<?xml version="1.0" encoding="utf-8"?>
<!-- Generator: Adobe Illustrator 22.0.1, SVG Export Plug-In . SVG Version: 6.00 Build 0)  -->
<svg version="1.1" id="Layer_1" xmlns="http://www.w3.org/2000/svg" xmlns:xlink="http://www.w3.org/1999/xlink" x="0px" y="0px"
	 viewBox="0 0 512 512" style="enable-background:new 0 0 512 512;" xml:space="preserve">
<path d="M464,64l-16,16h16v16l-16,16v352h-64V256c0-70.7-57.3-128-128-128s-128,57.3-128,128v208H64V112L48,96V80h16L48,64V48h416
	V64z"/>
<g>
	<path d="M256,176c-49.7,0-90,40.3-90,90c0,43.5,30.9,79.9,72,88.2V374h-36v36h36v18h-36v36h72V354.2c41.1-8.3,72-44.7,72-88.2
		C346,216.3,305.7,176,256,176z M202,266c0-29.8,24.2-54,54-54s54,24.2,54,54H202z"/>
</g>
</svg>
