<?xml version="1.0" encoding="utf-8"?>
<!-- Generator: Adobe Illustrator 22.0.1, SVG Export Plug-In . SVG Version: 6.00 Build 0)  -->
<svg version="1.1" id="Layer_1" xmlns="http://www.w3.org/2000/svg" xmlns:xlink="http://www.w3.org/1999/xlink" x="0px" y="0px"
	 viewBox="0 0 512 512" style="enable-background:new 0 0 512 512;" xml:space="preserve">
<style type="text/css">
	.st0{fill:none;}
	.st1{fill:#8C1414;}
</style>
<g>
	<circle class="st0" cx="256" cy="256" r="144"/>
	<path class="st1" d="M237.6,399.3c0-0.3,0-0.7,0-1c0-0.3,0.1-0.7,0.1-1l7.1,0.5l0.5-7.1c0.3,0,0.7,0,1,0c0.3,0,0.7,0.1,1,0.1
		c1,0.2,1.9,0.6,2.8,1.1c0.8,0.5,1.5,1.2,2.1,1.9c0.6,0.8,1.1,1.6,1.3,2.6c0.3,1,0.4,2,0.3,3l-2-0.1c0.1-0.7,0-1.5-0.2-2.2
		c-0.2-0.7-0.5-1.3-1-1.9c-0.4-0.6-0.9-1.1-1.5-1.5c-0.6-0.4-1.3-0.7-2-0.9l-1,14.2c-0.3,0-0.7,0-1,0s-0.7-0.1-1-0.1
		c-0.9-0.2-1.8-0.5-2.5-1c-0.8-0.5-1.5-1-2.1-1.7c-0.6-0.7-1-1.4-1.4-2.3C237.8,401.1,237.6,400.2,237.6,399.3z M239.6,399.4
		c0.1,0.6,0.2,1.3,0.5,1.8c0.3,0.6,0.6,1.1,1,1.6c0.4,0.5,0.9,0.9,1.4,1.2c0.5,0.3,1.1,0.6,1.8,0.7l0.4-5L239.6,399.4z M251.1,405
		c0.5-0.4,1-1,1.4-1.5l-1.5-1.4c-0.4,0.6-0.8,1.1-1.4,1.5L251.1,405z"/>
	<path class="st1" d="M218.6,394.4c-0.2,0.8-0.2,1.6-0.1,2.4c0.1,0.8,0.4,1.5,0.9,2.2s1,1.3,1.6,1.7c0.7,0.5,1.4,0.8,2.2,1
		c0.8,0.2,1.6,0.2,2.4,0.1c0.8-0.1,1.5-0.4,2.2-0.9c0.7-0.4,1.3-1,1.7-1.6c0.5-0.7,0.8-1.4,1-2.2l2,0.4c-0.2,1.1-0.7,2.1-1.3,3
		c-0.6,0.9-1.4,1.6-2.3,2.2s-1.9,1-2.9,1.1c-1.1,0.2-2.2,0.2-3.3-0.1s-2.1-0.7-3-1.3c-0.9-0.6-1.6-1.4-2.2-2.3
		c-0.6-0.9-1-1.9-1.1-2.9c-0.2-1.1-0.2-2.2,0.1-3.3L218.6,394.4z M221.6,395.1c-0.1,0.6-0.1,1.3,0.2,1.9c0.3,0.6,0.6,1.1,1.2,1.4
		l2.4-10.8c0.3,0,0.7,0.1,1,0.2c0.3,0.1,0.7,0.2,1,0.3l-2.4,10.8c0.6-0.1,1.2-0.3,1.7-0.8c0.5-0.4,0.8-1,1-1.6l2,0.4
		c-0.1,0.6-0.4,1.1-0.7,1.6c-0.3,0.5-0.7,0.9-1.2,1.3c-0.5,0.4-1,0.6-1.5,0.8c-0.6,0.2-1.1,0.3-1.7,0.3c-0.3,0-0.7,0-1-0.1
		s-0.7-0.2-1-0.3c-0.5-0.2-1-0.6-1.4-1c-0.4-0.4-0.8-0.9-1-1.4c-0.3-0.5-0.4-1.1-0.5-1.7c-0.1-0.6-0.1-1.2,0.1-1.8L221.6,395.1z"/>
	<path class="st1" d="M203.4,388.7l-3-5.3l1.8-1l3.5,6.1l-3.5,9c-0.3-0.1-0.7-0.2-1-0.3c-1-0.4-1.9-1-2.7-1.8
		c-0.8-0.7-1.4-1.6-1.8-2.6s-0.7-2-0.7-3.1c0-1.1,0.2-2.2,0.6-3.2l1.9,0.7c-0.3,0.7-0.4,1.4-0.4,2.2c0,0.7,0.1,1.4,0.4,2.1
		c0.2,0.7,0.6,1.3,1,1.8c0.5,0.6,1,1,1.6,1.4L203.4,388.7z M210.3,390c0-0.6,0-1.2-0.1-1.8l2-0.4c0.2,0.8,0.2,1.6,0.2,2.4
		c-0.1,0.8-0.2,1.6-0.5,2.4c-0.3,0.8-0.7,1.5-1.2,2.1c-0.5,0.6-1.1,1.2-1.7,1.6l-1.2-1.7c0.5-0.3,0.9-0.7,1.3-1.2
		c0.4-0.5,0.7-1,0.9-1.6C210.1,391.2,210.3,390.6,210.3,390z"/>
	<path class="st1" d="M160.2,364.1c0.2-0.3,0.4-0.6,0.6-0.8s0.4-0.5,0.7-0.8l5.6,4.4l4.4-5.6c0.3,0.2,0.6,0.4,0.8,0.6
		c0.3,0.2,0.5,0.4,0.8,0.7c0.7,0.7,1.3,1.5,1.7,2.5c0.4,0.9,0.6,1.8,0.7,2.8c0.1,1-0.1,2-0.3,2.9c-0.3,1-0.8,1.9-1.4,2.7l-1.6-1.3
		c0.5-0.6,0.8-1.2,1-1.9c0.2-0.7,0.3-1.4,0.3-2.1c0-0.7-0.2-1.4-0.4-2.1c-0.3-0.7-0.7-1.3-1.1-1.8l-8.8,11.1
		c-0.3-0.2-0.6-0.4-0.8-0.6s-0.5-0.4-0.8-0.7c-0.6-0.7-1.2-1.4-1.5-2.2c-0.4-0.8-0.6-1.7-0.7-2.6c-0.1-0.9-0.1-1.8,0.1-2.7
		C159.4,365.8,159.7,364.9,160.2,364.1z M161.8,365.4c-0.3,0.6-0.5,1.2-0.6,1.8c-0.1,0.6-0.1,1.3-0.1,1.9c0.1,0.6,0.2,1.2,0.5,1.8
		c0.3,0.6,0.6,1.1,1,1.6l3.1-4L161.8,365.4z M168.1,376.5c0.7-0.1,1.4-0.2,2-0.5l-0.5-2c-0.6,0.3-1.3,0.4-2,0.5L168.1,376.5z"/>
	<path class="st1" d="M147.3,349.4c-0.6,0.6-1.1,1.2-1.4,2c-0.3,0.7-0.5,1.5-0.5,2.3c0,0.8,0.1,1.6,0.4,2.3c0.3,0.8,0.7,1.5,1.3,2.1
		c0.6,0.6,1.2,1.1,2,1.4c0.7,0.3,1.5,0.5,2.3,0.5s1.6-0.1,2.3-0.4c0.8-0.3,1.5-0.7,2.1-1.3l1.4,1.5c-0.8,0.8-1.7,1.3-2.8,1.7
		c-1,0.4-2,0.5-3.1,0.5s-2.1-0.3-3.1-0.7c-1-0.4-1.9-1.1-2.6-1.9c-0.8-0.8-1.3-1.7-1.7-2.8c-0.4-1-0.5-2-0.5-3.1s0.3-2.1,0.7-3.1
		c0.4-1,1.1-1.9,1.9-2.6L147.3,349.4z M149.3,351.6c-0.5,0.4-0.8,1-0.9,1.7c-0.1,0.6-0.1,1.2,0.2,1.8l8.1-7.5
		c0.3,0.2,0.5,0.5,0.7,0.7s0.5,0.5,0.7,0.8l-8.1,7.5c0.6,0.3,1.2,0.4,1.8,0.3c0.7-0.1,1.2-0.4,1.7-0.8l1.4,1.5
		c-0.4,0.4-0.9,0.7-1.5,1c-0.5,0.2-1.1,0.4-1.7,0.4c-0.6,0-1.2,0-1.7-0.2c-0.6-0.2-1.1-0.4-1.6-0.7c-0.3-0.2-0.5-0.4-0.8-0.7
		c-0.2-0.3-0.4-0.5-0.6-0.8c-0.3-0.5-0.5-1-0.6-1.6c-0.1-0.6-0.1-1.1-0.1-1.7c0.1-0.6,0.2-1.1,0.5-1.7c0.3-0.5,0.6-1,1.1-1.4
		L149.3,351.6z"/>
	<path class="st1" d="M137.9,336.1l0.4-6.1l2,0.1l-0.5,7l-8,5.5c-0.2-0.3-0.4-0.5-0.6-0.8c-0.6-0.9-1.1-1.9-1.3-3
		c-0.2-1-0.2-2.1,0-3.1s0.6-2,1.2-2.9c0.6-0.9,1.3-1.7,2.3-2.3l1.2,1.7c-0.6,0.4-1.1,0.9-1.6,1.5c-0.4,0.6-0.7,1.2-0.9,1.9
		c-0.2,0.7-0.2,1.4-0.2,2.1c0.1,0.7,0.2,1.4,0.5,2.1L137.9,336.1z M142.9,341c0.4-0.5,0.7-1,0.9-1.5l1.9,0.8c-0.3,0.7-0.7,1.4-1.2,2
		c-0.5,0.6-1.1,1.2-1.8,1.7c-0.7,0.5-1.4,0.8-2.2,1.1c-0.8,0.2-1.5,0.4-2.3,0.4l0-2c0.6,0,1.2-0.1,1.7-0.3c0.6-0.2,1.1-0.5,1.6-0.8
		C142,341.9,142.5,341.5,142.9,341z"/>
	<path class="st1" d="M124.6,311c0.8-0.3,1.6-0.4,2.4-0.4c0.8,0,1.6,0.1,2.4,0.3s1.5,0.5,2.2,1c0.7,0.4,1.3,1,1.9,1.6l-1.9,0.9
		c-0.8-0.8-1.7-1.3-2.8-1.6c-1.1-0.3-2.2-0.3-3.3,0.1l3.1,6.4l-6.4,3.1c0.4,0.6,0.9,1.1,1.5,1.5c0.6,0.4,1.2,0.7,1.9,0.9
		c0.7,0.2,1.4,0.2,2.1,0.2c0.7-0.1,1.4-0.3,2.1-0.6c0.8-0.4,1.4-0.9,1.9-1.5c0.5-0.6,0.9-1.3,1.2-2c0.3-0.8,0.4-1.5,0.3-2.3
		c0-0.8-0.3-1.6-0.6-2.4l1.8-0.9c0.5,1,0.8,2,0.8,3.1c0.1,1.1-0.1,2.1-0.4,3.1s-0.9,1.9-1.6,2.7c-0.7,0.8-1.6,1.5-2.6,2
		c-0.9,0.4-1.9,0.7-2.9,0.8c-1,0.1-1.9,0-2.9-0.3c-0.9-0.3-1.8-0.7-2.6-1.3c-0.8-0.6-1.5-1.3-2.1-2.2c-0.2-0.3-0.3-0.6-0.5-0.9
		s-0.3-0.6-0.4-1c-0.5-1.4-0.6-2.8-0.3-4.3c0.1-0.7,0.4-1.4,0.7-2c0.3-0.6,0.7-1.2,1.2-1.8l1,2c-0.5,0.8-0.8,1.6-1,2.5
		c-0.1,0.9-0.1,1.8,0.2,2.7l4.5-2.2l-3.1-6.4c0.3-0.2,0.6-0.4,0.9-0.5C124,311.3,124.3,311.1,124.6,311z"/>
	<path class="st1" d="M115.2,291.9c0.5-0.3,1.1-0.6,1.7-0.8c0.7-0.2,1.4-0.3,2-0.3c0.7-0.1,1.4,0,2.2,0.2c1.1,0.2,2,0.7,2.9,1.3
		c0.9,0.6,1.6,1.4,2.2,2.4c0.4,0.5,0.6,1.2,0.9,1.9c0.5,1.6,0.5,3.1,0.1,4.7l-1.8-1.4c0.1-0.9,0.1-1.8-0.2-2.7l-3.9,1.2l-1.7-5.5
		c-0.7,0-1.4,0.1-2.1,0.3c-0.2,0.1-0.3,0.1-0.5,0.2c-0.7,0.3-1.3,0.6-1.8,1.2l0,0l0,0l9.6,7.4l1.6,1.3c-0.4,0.6-0.8,1.2-1.3,1.6
		l-1.6-1.3l-9.6-7.4c-0.8,1.5-0.9,3.1-0.4,4.7c0.1,0.4,0.3,0.8,0.5,1.2l1.7-2.1l1.6,1.3l-1.9,2.5l-1.3,1.6c-0.5-0.4-1-0.9-1.4-1.5
		c-0.5-0.7-0.9-1.5-1.1-2.3c-0.4-1.1-0.5-2.3-0.3-3.4c0.1-1.1,0.5-2.2,1.1-3.1c0.3-0.6,0.7-1.1,1.2-1.7c0,0,0,0,0,0
		C114,292.6,114.6,292.2,115.2,291.9z M124.3,295.2c-0.6-0.8-1.4-1.5-2.4-1.9l0.8,2.4L124.3,295.2z"/>
	<path class="st1" d="M108.3,278c0,0.3,0,0.7,0.1,1s0.1,0.7,0.2,1l-2,0.3c-0.1-0.3-0.2-0.7-0.2-1c-0.1-0.3-0.1-0.7-0.1-1L108.3,278z
		 M106.5,276.2c0.2-0.8,0.5-1.5,0.9-2.2c0.4-0.7,0.9-1.3,1.5-1.9c0.6-0.6,1.3-1,2-1.4c0.7-0.4,1.5-0.6,2.4-0.7
		c1.1-0.2,2.2-0.1,3.2,0.1c1,0.3,2,0.7,2.9,1.3c0.9,0.6,1.6,1.4,2.1,2.3c0.6,0.9,1,2,1.1,3.1c0.2,1.1,0.1,2.2-0.1,3.2
		c-0.3,1-0.7,2-1.3,2.9s-1.4,1.6-2.3,2.1c-0.9,0.6-2,1-3.1,1.1c-0.8,0.1-1.7,0.1-2.5,0c-0.8-0.1-1.6-0.4-2.3-0.7
		c-0.7-0.3-1.4-0.8-2-1.3c-0.6-0.5-1.1-1.2-1.5-1.9l2.2-0.3c0.7,0.8,1.5,1.5,2.5,1.9c1,0.4,2.1,0.5,3.2,0.4c0.8-0.1,1.6-0.4,2.3-0.8
		c0.7-0.4,1.3-1,1.7-1.6c0.5-0.7,0.8-1.4,1-2.1c0.2-0.8,0.2-1.6,0.1-2.4c-0.1-0.8-0.4-1.6-0.8-2.3c-0.4-0.7-1-1.3-1.6-1.7
		c-0.7-0.5-1.4-0.8-2.1-1c-0.8-0.2-1.6-0.2-2.4-0.1c-1.1,0.2-2.1,0.6-3,1.3c-0.8,0.7-1.4,1.5-1.8,2.5L106.5,276.2z"/>
	<path class="st1" d="M113.7,248.7c1,0.1,2,0.4,2.9,0.9c0.9,0.4,1.6,1,2.3,1.8c0.7,0.7,1.2,1.6,1.6,2.5c0.4,0.9,0.6,1.9,0.6,3
		l-2.1,0c0-0.8-0.2-1.5-0.4-2.2c-0.3-0.7-0.6-1.3-1.1-1.8c-0.5-0.5-1-1-1.7-1.3c-0.6-0.3-1.3-0.6-2-0.7L114,265
		c-0.3,0-0.7,0.1-1,0.1c-0.3,0-0.7,0-1,0c-1-0.1-1.9-0.4-2.8-0.9c-0.9-0.4-1.6-1-2.3-1.8c-0.7-0.7-1.2-1.6-1.6-2.5
		c-0.4-0.9-0.6-1.9-0.6-3c0-0.3,0-0.7,0-1l2.1,0c0,0.3-0.1,0.7-0.1,1c0,0.7,0.2,1.5,0.4,2.2c0.3,0.7,0.6,1.3,1.1,1.8
		c0.5,0.5,1,1,1.7,1.3c0.6,0.3,1.3,0.6,2,0.7l-0.2-14.2c0.3,0,0.7-0.1,1-0.1S113.4,248.6,113.7,248.7z M107.7,257.9l0-2.1l2.1,0
		l0,2.1L107.7,257.9z"/>
	<path class="st1" d="M114.4,227.3c0.3,0,0.7,0,1,0.1s0.7,0.1,1,0.2l-1,7l7.1,1c0,0.3,0,0.7-0.1,1s-0.1,0.7-0.2,1
		c-0.3,1-0.7,1.9-1.3,2.7c-0.6,0.8-1.3,1.5-2.1,2c-0.8,0.5-1.7,0.9-2.7,1.2c-1,0.2-2,0.3-3,0.1l0.3-2c0.7,0.1,1.5,0.1,2.2-0.1
		c0.7-0.2,1.3-0.4,2-0.8c0.6-0.4,1.1-0.9,1.6-1.4c0.4-0.6,0.8-1.2,1-1.9l-14.1-2c0-0.3,0-0.7,0.1-1c0-0.3,0.1-0.7,0.2-1
		c0.2-0.9,0.6-1.7,1.2-2.5c0.5-0.7,1.1-1.4,1.8-1.9c0.7-0.5,1.5-0.9,2.4-1.2C112.6,227.4,113.5,227.2,114.4,227.3z M107.7,240.4
		c0.4,0.6,0.9,1.1,1.4,1.5l1.5-1.4c-0.6-0.4-1-0.9-1.4-1.5L107.7,240.4z M114.1,229.3c-0.6,0-1.3,0.1-1.9,0.3
		c-0.6,0.2-1.2,0.5-1.7,0.9c-0.5,0.4-0.9,0.8-1.3,1.3c-0.4,0.5-0.7,1.1-0.9,1.7l5,0.7L114.1,229.3z"/>
	<path class="st1" d="M127,193.7l-0.9,1.9l-7.4-3.5c0.1-0.3,0.2-0.6,0.4-0.9s0.3-0.6,0.5-0.9L127,193.7z M130.1,187.3
		c1,0.5,1.9,1.1,2.6,1.9c0.7,0.8,1.2,1.7,1.6,2.7c0.4,1,0.5,2,0.5,3.1c0,1.1-0.3,2.2-0.8,3.2c-0.5,1-1.1,1.9-1.9,2.6
		c-0.8,0.7-1.7,1.2-2.7,1.6c-1,0.4-2,0.5-3.1,0.5c-1.1,0-2.2-0.3-3.2-0.8l0.9-1.9c0.8,0.4,1.5,0.6,2.4,0.6c0.8,0,1.6-0.1,2.3-0.4
		c0.8-0.3,1.4-0.7,2-1.2c0.6-0.5,1.1-1.2,1.5-2c0.4-0.8,0.6-1.5,0.6-2.4c0-0.8-0.1-1.6-0.4-2.3c-0.3-0.8-0.7-1.4-1.2-2
		c-0.5-0.6-1.2-1.1-2-1.5L130.1,187.3z M130.7,195.5l-0.9,1.9l-1.9-0.9l0.9-1.9L130.7,195.5z"/>
	<path class="st1" d="M142.5,170l-4.3,6.4l1.5,7.5c-0.7,0.2-1.3,0.4-2,0.4l-0.4-2l-1-4.9l-0.1-0.6l-4.7-3.1
		c-0.4,0.9-0.6,1.8-0.5,2.7c0,0.7,0.1,1.4,0.4,2l-2,0.4c-0.2-0.6-0.4-1.3-0.4-2c-0.1-1.5,0.2-2.9,0.9-4.2c0.1-0.3,0.3-0.6,0.5-0.9
		c0.2-0.3,0.4-0.6,0.6-0.8l5.9,4l4-5.9c0.3,0.1,0.6,0.3,0.9,0.5C142,169.5,142.3,169.7,142.5,170z M143.7,175.6l-1.1,1.7l-1.7-1.1
		l1.1-1.7L143.7,175.6z"/>
	<path class="st1" d="M144.2,159.3c0,0.7,0.1,1.4,0.3,2l-2,0.4c-0.2-0.7-0.3-1.3-0.3-2L144.2,159.3z M152.6,151.4
		c-0.9-0.2-1.7-0.4-2.6-0.3c-0.9,0-1.8,0.2-2.6,0.6c-0.9,0.3-1.6,0.8-2.3,1.4c-0.3,0.2-0.5,0.5-0.7,0.7c-0.2,0.3-0.4,0.5-0.6,0.8
		l10.5,9.6c-0.6,0.4-1.2,0.8-1.9,1c-0.7,0.2-1.4,0.3-2.1,0.3c-0.7,0-1.4-0.2-2.1-0.4c-0.7-0.3-1.3-0.7-1.9-1.2l-1.4,1.5
		c0.8,0.7,1.6,1.2,2.6,1.6c0.9,0.4,1.9,0.5,2.9,0.6c1,0,1.9-0.1,2.9-0.5c1-0.3,1.8-0.8,2.6-1.5c0.3-0.2,0.5-0.5,0.7-0.7
		c0.2-0.3,0.4-0.5,0.7-0.8l-5.3-4.8l4.8-5.2c-0.2-0.3-0.5-0.5-0.7-0.7c-0.3-0.2-0.5-0.4-0.8-0.7
		C154.3,152.1,153.5,151.7,152.6,151.4z M150.3,157.9l-3.7-3.4c0.5-0.4,1.1-0.7,1.7-0.9c0.6-0.2,1.2-0.3,1.8-0.4s1.3,0,1.9,0.2
		c0.6,0.2,1.2,0.4,1.7,0.8L150.3,157.9z"/>
	<path class="st1" d="M162.5,149.8c0.5,0.3,1,0.6,1.6,0.8l-0.6,2c-0.8-0.2-1.5-0.6-2.1-1c-0.7-0.5-1.3-1-1.8-1.6
		c-0.5-0.6-0.9-1.3-1.2-2.1c-0.3-0.7-0.5-1.5-0.6-2.3l2-0.2c0.1,0.6,0.2,1.2,0.4,1.7c0.2,0.6,0.5,1.1,0.9,1.6
		C161.5,149,162,149.4,162.5,149.8z M167.1,144.4l6.1,0l0,2.1l-7.1,0L160,139c0.2-0.2,0.5-0.5,0.8-0.7c0.9-0.7,1.8-1.2,2.9-1.5
		c1-0.3,2.1-0.4,3.1-0.3c1.1,0.1,2.1,0.4,3,0.9c1,0.5,1.8,1.2,2.5,2.1l-1.6,1.3c-0.5-0.6-1-1.1-1.7-1.4c-0.6-0.4-1.3-0.6-2-0.7
		c-0.7-0.1-1.4-0.1-2.1,0c-0.7,0.1-1.4,0.4-2,0.7L167.1,144.4z"/>
	<path class="st1" d="M191.6,131.2c0.1,1,0.1,2-0.1,3l-2-0.5c0.1-0.7,0.2-1.5,0.1-2.2c-0.1-0.8-0.4-1.5-0.8-2.2
		c-0.6-0.9-1.3-1.7-2.3-2.2l-3.7,2.2l2.4,4.1l-0.7,1.2l-2.3,3.9c0.7,0.2,1.5,0.2,2.2,0.1c0.8-0.1,1.5-0.4,2.2-0.8l1,1.8
		c-1,0.6-2.1,1-3.3,1.1c-1.1,0.1-2.2,0-3.3-0.3c-0.7-0.2-1.3-0.5-1.9-0.8l1-1.8l2.6-4.4l-2.8-4.8l3.8-2.2c-0.6,0-1.2,0-1.8,0.2
		c-0.6,0.1-1.2,0.4-1.7,0.7c-0.7,0.4-1.3,1-1.8,1.6c-0.5,0.6-0.8,1.4-1,2.1c-0.2,0.8-0.3,1.6-0.1,2.4c0.1,0.8,0.4,1.6,0.8,2.3
		l-1.8,1c-0.6-1-0.9-2-1.1-3.1c-0.1-1.1-0.1-2.1,0.2-3.1c0.3-1,0.7-2,1.4-2.8c0.7-0.9,1.5-1.6,2.4-2.2c1.1-0.6,2.3-1,3.5-1.1
		c1.2-0.1,2.4,0.1,3.5,0.5c0.8,0.3,1.5,0.7,2.1,1.2c0.8,0.6,1.5,1.4,2.1,2.4C191.1,129.2,191.5,130.2,191.6,131.2z"/>
	<path class="st1" d="M210.6,121l-7.1,2.9l-3,7.1c-0.7-0.2-1.3-0.4-1.9-0.8l0.8-1.9l2-4.6l0.2-0.6l-2.1-5.2c-0.8,0.5-1.5,1.1-2,1.9
		c-0.4,0.6-0.6,1.2-0.8,1.9l-1.9-0.8c0.2-0.7,0.4-1.3,0.8-1.9c0.7-1.3,1.8-2.3,3.1-3c0.3-0.2,0.6-0.3,0.9-0.5c0.3-0.1,0.6-0.2,1-0.3
		l2.6,6.6l6.6-2.6c0.2,0.3,0.3,0.6,0.5,0.9C210.4,120.3,210.5,120.7,210.6,121z M208.4,126.3l-1.9,0.8l-0.8-1.9l1.9-0.8L208.4,126.3
		z"/>
	<path class="st1" d="M231.1,118c-0.2,1.1-0.5,2-1.1,2.9c-0.6,0.9-1.3,1.7-2.1,2.3c-0.9,0.7-1.9,1.1-3,1.4l-0.5-2
		c0.8-0.2,1.6-0.5,2.2-1c0.6-0.5,1.2-1.1,1.6-1.7c0.4-0.7,0.7-1.4,0.8-2.2c0.1-0.8,0.1-1.6-0.1-2.4c-0.2-0.6-0.4-1.3-0.8-1.8
		l-8.7,8.3l-1.5,1.4c-0.5-0.4-1-0.9-1.5-1.4c-0.8-1-1.3-2-1.6-3.2c-0.3-1.3-0.3-2.6,0-3.9c0.2-0.7,0.4-1.3,0.8-1.9l4.5,2.8l-1.1,1.7
		l-2.3-1.4c-0.1,0.8-0.1,1.5,0.1,2.3c0.2,0.8,0.5,1.6,1,2.3l8.8-8.4l1.5-1.4c0.5,0.5,1,1,1.4,1.5c0.6,0.8,1,1.8,1.2,2.8
		C231.3,115.8,231.3,116.9,231.1,118z"/>
	<path class="st1" d="M246.5,119c-0.1,0.2-0.2,0.5-0.4,0.7s-0.4,0.4-0.6,0.5c-0.2,0.1-0.5,0.2-0.8,0.2s-0.5,0-0.8-0.1
		c-0.3-0.1-0.5-0.2-0.7-0.4c-0.2-0.2-0.4-0.4-0.5-0.6c-0.1-0.2-0.2-0.5-0.2-0.8c0-0.3,0-0.5,0.1-0.8c0.1-0.2,0.2-0.5,0.4-0.7
		c0.2-0.2,0.4-0.4,0.6-0.5s0.5-0.2,0.8-0.2c0.3,0,0.5,0,0.8,0.1c0.3,0.1,0.5,0.2,0.7,0.4c0.2,0.2,0.4,0.4,0.5,0.6
		c0.1,0.2,0.2,0.5,0.2,0.8C246.6,118.5,246.6,118.8,246.5,119z"/>
	<path class="st1" d="M273.7,112.6c0,0.3,0,0.7,0,1c0,0.3-0.1,0.7-0.1,1l-7.1-0.5l-0.5,7.1c-0.3,0-0.7,0-1,0c-0.3,0-0.7-0.1-1-0.1
		c-1-0.2-1.9-0.6-2.8-1.1c-0.8-0.5-1.5-1.2-2.2-1.9c-0.6-0.8-1.1-1.6-1.4-2.6c-0.3-1-0.4-2-0.4-3l2,0.1c0,0.7,0,1.5,0.2,2.2
		c0.2,0.7,0.5,1.3,1,1.9c0.4,0.6,0.9,1.1,1.5,1.5c0.6,0.4,1.3,0.7,2,0.9l0.9-14.2c0.3,0,0.7,0,1,0c0.3,0,0.7,0.1,1,0.1
		c0.9,0.2,1.8,0.5,2.5,1c0.8,0.5,1.5,1,2.1,1.7c0.6,0.7,1.1,1.4,1.4,2.3C273.5,110.8,273.7,111.7,273.7,112.6z M260.1,106.9
		c-0.5,0.5-1,1-1.4,1.5l1.6,1.4c0.4-0.6,0.8-1.1,1.4-1.5L260.1,106.9z M271.7,112.5c-0.1-0.6-0.2-1.3-0.5-1.8
		c-0.3-0.6-0.6-1.1-1-1.6c-0.4-0.5-0.9-0.9-1.4-1.2c-0.6-0.3-1.1-0.6-1.8-0.7l-0.3,5L271.7,112.5z"/>
	<path class="st1" d="M292.7,117.4c0.2-0.8,0.2-1.6,0-2.4c-0.1-0.8-0.4-1.5-0.9-2.2s-1-1.2-1.6-1.7c-0.7-0.5-1.4-0.8-2.2-1
		c-0.8-0.2-1.6-0.2-2.4,0c-0.8,0.1-1.5,0.4-2.2,0.9s-1.2,1-1.7,1.6c-0.5,0.7-0.8,1.4-1,2.2l-2-0.4c0.2-1.1,0.7-2.1,1.3-3
		c0.6-0.9,1.4-1.6,2.3-2.2s1.9-1,2.9-1.2c1.1-0.2,2.2-0.2,3.3,0.1c1.1,0.2,2.1,0.7,3,1.3c0.9,0.6,1.6,1.4,2.2,2.3
		c0.6,0.9,1,1.9,1.2,2.9c0.2,1.1,0.2,2.2-0.1,3.3L292.7,117.4z M289.7,116.8c0.1-0.6,0.1-1.3-0.2-1.9c-0.3-0.6-0.7-1.1-1.2-1.4
		l-2.4,10.8c-0.3,0-0.7-0.1-1-0.2c-0.3-0.1-0.7-0.2-1-0.3l2.4-10.8c-0.6,0.1-1.2,0.3-1.7,0.8c-0.5,0.4-0.8,1-0.9,1.6l-2-0.4
		c0.1-0.6,0.4-1.1,0.7-1.7c0.3-0.5,0.7-0.9,1.2-1.3c0.5-0.4,1-0.6,1.5-0.8c0.6-0.2,1.1-0.3,1.7-0.3c0.3,0,0.7,0,1,0.1
		c0.3,0.1,0.7,0.2,1,0.3c0.5,0.2,1,0.6,1.4,1c0.4,0.4,0.8,0.9,1,1.4c0.3,0.5,0.4,1.1,0.5,1.7c0.1,0.6,0.1,1.2-0.1,1.8L289.7,116.8z"
		/>
	<path class="st1" d="M301,121.8c0,0.6,0,1.2,0.1,1.8l-2,0.5c-0.2-0.8-0.2-1.6-0.2-2.4c0.1-0.8,0.2-1.6,0.5-2.4
		c0.3-0.8,0.7-1.5,1.2-2.1c0.5-0.6,1.1-1.2,1.7-1.6l1.2,1.7c-0.5,0.3-0.9,0.7-1.3,1.2c-0.4,0.5-0.7,1-0.9,1.6
		C301.2,120.6,301.1,121.2,301,121.8z M308,123.1l3.1,5.2l-1.8,1l-3.6-6.1l3.5-9c0.3,0.1,0.7,0.2,1,0.3c1,0.4,2,1,2.7,1.7
		c0.8,0.7,1.4,1.6,1.8,2.6c0.4,1,0.7,2,0.7,3.1c0,1.1-0.1,2.2-0.5,3.2l-1.9-0.7c0.3-0.7,0.4-1.4,0.4-2.2c0-0.7-0.1-1.4-0.4-2.1
		c-0.2-0.7-0.6-1.3-1-1.8c-0.5-0.6-1-1-1.6-1.4L308,123.1z"/>
	<path class="st1" d="M351.3,147.4c-0.2,0.3-0.4,0.6-0.6,0.8c-0.2,0.3-0.4,0.5-0.7,0.8l-5.6-4.4l-4.4,5.6c-0.3-0.2-0.6-0.4-0.8-0.6
		c-0.3-0.2-0.5-0.4-0.8-0.7c-0.7-0.7-1.3-1.5-1.7-2.5c-0.4-0.9-0.6-1.8-0.7-2.8c-0.1-1,0.1-2,0.3-2.9c0.3-1,0.8-1.9,1.4-2.7l1.6,1.3
		c-0.5,0.6-0.8,1.2-1,1.9c-0.2,0.7-0.3,1.4-0.3,2.1c0,0.7,0.2,1.4,0.5,2.1c0.3,0.7,0.7,1.3,1.1,1.8l8.8-11.2
		c0.3,0.2,0.6,0.4,0.8,0.6s0.5,0.4,0.8,0.7c0.6,0.7,1.2,1.4,1.6,2.2c0.4,0.8,0.6,1.7,0.8,2.6c0.1,0.9,0.1,1.8-0.1,2.7
		C352.1,145.8,351.8,146.6,351.3,147.4z M343.3,135.1c-0.7,0.1-1.4,0.2-2,0.5l0.5,2c0.6-0.3,1.3-0.4,2-0.5L343.3,135.1z
		 M349.7,146.2c0.3-0.6,0.5-1.2,0.6-1.8c0.1-0.6,0.1-1.3,0.1-1.9c-0.1-0.6-0.2-1.2-0.5-1.8c-0.3-0.6-0.6-1.1-1-1.6l-3.1,4
		L349.7,146.2z"/>
	<path class="st1" d="M362.2,159.9c0.5-0.5,0.8-1,0.9-1.7c0.1-0.6,0.1-1.2-0.2-1.8l-8,7.6c-0.3-0.2-0.5-0.5-0.8-0.7
		c-0.2-0.3-0.5-0.5-0.7-0.8l8-7.6c-0.6-0.3-1.2-0.4-1.8-0.3c-0.7,0.1-1.2,0.4-1.7,0.8l-1.4-1.5c0.4-0.4,0.9-0.7,1.5-1
		c0.5-0.2,1.1-0.4,1.7-0.4c0.6,0,1.2,0,1.7,0.2c0.6,0.1,1.1,0.4,1.6,0.7c0.3,0.2,0.5,0.4,0.8,0.7c0.2,0.3,0.4,0.5,0.6,0.8
		c0.3,0.5,0.5,1,0.6,1.6c0.1,0.6,0.2,1.1,0.1,1.7c-0.1,0.6-0.2,1.1-0.5,1.7c-0.3,0.5-0.6,1-1.1,1.4L362.2,159.9z M364.3,162.1
		c0.6-0.6,1.1-1.2,1.4-2c0.3-0.7,0.5-1.5,0.5-2.3s-0.1-1.6-0.4-2.3c-0.3-0.8-0.7-1.5-1.3-2.1s-1.2-1.1-2-1.4
		c-0.7-0.3-1.5-0.5-2.3-0.5c-0.8,0-1.6,0.1-2.3,0.4c-0.8,0.3-1.5,0.7-2.1,1.3l-1.4-1.5c0.8-0.8,1.7-1.3,2.8-1.7c1-0.4,2-0.5,3.1-0.5
		c1.1,0,2.1,0.3,3.1,0.7c1,0.4,1.9,1.1,2.7,1.9c0.8,0.8,1.3,1.7,1.7,2.8c0.4,1,0.5,2,0.5,3.1c0,1.1-0.3,2.1-0.7,3.1
		c-0.4,1-1.1,1.9-1.9,2.7L364.3,162.1z"/>
	<path class="st1" d="M368.7,170.4c-0.4,0.5-0.7,1-0.9,1.5l-1.9-0.7c0.3-0.7,0.7-1.4,1.2-2.1c0.5-0.6,1.1-1.2,1.8-1.7
		c0.7-0.5,1.4-0.8,2.2-1.1c0.8-0.2,1.5-0.4,2.3-0.4l0,2c-0.6,0-1.2,0.1-1.7,0.3c-0.6,0.2-1.1,0.5-1.6,0.8S369.1,169.9,368.7,170.4z
		 M373.7,175.4l-0.4,6.1l-2-0.1l0.5-7l7.9-5.5c0.2,0.3,0.4,0.5,0.6,0.8c0.6,0.9,1.1,1.9,1.3,3c0.2,1,0.2,2.1,0.1,3.1
		c-0.2,1.1-0.6,2-1.1,2.9c-0.6,0.9-1.3,1.7-2.2,2.4l-1.2-1.7c0.6-0.4,1.1-0.9,1.6-1.6c0.4-0.6,0.7-1.2,0.9-1.9
		c0.2-0.7,0.2-1.4,0.2-2.1c-0.1-0.7-0.3-1.4-0.6-2.1L373.7,175.4z"/>
	<path class="st1" d="M387.1,200.4c-0.8,0.3-1.6,0.4-2.4,0.5c-0.8,0-1.6-0.1-2.4-0.3c-0.8-0.2-1.5-0.5-2.2-1c-0.7-0.4-1.3-1-1.9-1.6
		l1.9-1c0.8,0.8,1.7,1.3,2.8,1.6c1.1,0.3,2.2,0.2,3.3-0.1l-3.1-6.4l6.4-3.1c-0.4-0.6-0.9-1.1-1.5-1.5c-0.6-0.4-1.2-0.7-1.9-0.9
		c-0.7-0.2-1.4-0.2-2.1-0.2c-0.7,0.1-1.4,0.3-2.1,0.6c-0.7,0.4-1.4,0.9-1.9,1.5c-0.5,0.6-0.9,1.3-1.2,2.1c-0.3,0.8-0.4,1.5-0.3,2.3
		c0,0.8,0.3,1.6,0.6,2.4l-1.8,0.9c-0.5-1-0.8-2-0.8-3.1c-0.1-1.1,0.1-2.1,0.4-3.1c0.3-1,0.9-1.9,1.6-2.7c0.7-0.8,1.6-1.5,2.6-2
		c0.9-0.5,1.9-0.7,2.9-0.8c1-0.1,1.9,0,2.9,0.3c0.9,0.3,1.8,0.7,2.6,1.2c0.8,0.6,1.5,1.3,2.1,2.1c0.2,0.3,0.4,0.6,0.5,0.9
		s0.3,0.6,0.4,1c0.5,1.4,0.6,2.8,0.3,4.3c-0.1,0.7-0.4,1.4-0.7,2c-0.3,0.6-0.7,1.2-1.2,1.8l-1-2c0.5-0.8,0.8-1.6,1-2.5
		c0.1-0.9,0.1-1.8-0.2-2.7l-4.5,2.2l3.2,6.4c-0.3,0.2-0.6,0.4-0.9,0.5S387.5,200.2,387.1,200.4z"/>
	<path class="st1" d="M396.6,219.5c-0.5,0.3-1.1,0.6-1.7,0.8c-0.7,0.2-1.4,0.3-2,0.4c-0.7,0.1-1.4,0-2.2-0.2c-1.1-0.2-2-0.7-2.9-1.3
		c-0.9-0.6-1.6-1.4-2.2-2.4c-0.4-0.5-0.7-1.2-0.9-1.9c-0.5-1.6-0.5-3.1-0.1-4.7l1.8,1.4c-0.1,0.9,0,1.8,0.2,2.7l3.9-1.2l1.8,5.5
		c0.7,0,1.4-0.1,2-0.3c0.2-0.1,0.3-0.1,0.5-0.2c0.7-0.3,1.3-0.7,1.8-1.2l0,0l0,0l-9.6-7.4l-1.6-1.2c0.4-0.6,0.8-1.2,1.3-1.6l1.6,1.3
		l9.6,7.4c0.8-1.5,0.9-3.1,0.4-4.7c-0.1-0.4-0.3-0.8-0.5-1.2l-1.7,2.2l-1.6-1.3l1.9-2.5l1.2-1.6c0.5,0.4,1,0.9,1.4,1.5
		c0.5,0.7,0.9,1.5,1.1,2.3c0.4,1.1,0.5,2.3,0.3,3.4c-0.1,1.1-0.5,2.2-1,3.1c-0.3,0.6-0.7,1.2-1.2,1.7c0,0,0,0,0,0
		C397.8,218.7,397.2,219.1,396.6,219.5z M387.5,216.1c0.6,0.8,1.4,1.5,2.4,1.9l-0.8-2.4L387.5,216.1z"/>
	<path class="st1" d="M405.4,235c-0.2,0.8-0.5,1.5-0.9,2.2c-0.4,0.7-0.9,1.3-1.5,1.9c-0.6,0.6-1.2,1-2,1.4c-0.7,0.4-1.5,0.6-2.4,0.8
		c-1.1,0.2-2.2,0.1-3.2-0.1c-1-0.3-2-0.7-2.9-1.3s-1.6-1.4-2.1-2.3c-0.6-0.9-1-2-1.1-3c-0.2-1.1-0.1-2.2,0.1-3.2
		c0.3-1,0.7-2,1.3-2.9c0.6-0.9,1.4-1.6,2.3-2.1c0.9-0.6,2-1,3-1.1c0.8-0.1,1.7-0.1,2.5,0c0.8,0.1,1.6,0.4,2.3,0.7
		c0.7,0.3,1.4,0.8,2,1.3c0.6,0.5,1.1,1.2,1.5,1.9l-2.2,0.4c-0.7-0.8-1.5-1.5-2.5-1.9c-1-0.4-2.1-0.5-3.2-0.3
		c-0.8,0.1-1.6,0.4-2.3,0.9c-0.7,0.4-1.3,1-1.7,1.6c-0.5,0.7-0.8,1.4-1,2.1c-0.2,0.8-0.2,1.6-0.1,2.4c0.1,0.8,0.4,1.6,0.9,2.3
		c0.4,0.7,1,1.3,1.6,1.7s1.4,0.8,2.1,1c0.8,0.2,1.6,0.2,2.4,0.1c1.1-0.2,2.1-0.6,2.9-1.3c0.8-0.7,1.4-1.5,1.8-2.5L405.4,235z
		 M403.6,233.3c0-0.3,0-0.7-0.1-1c-0.1-0.3-0.1-0.7-0.2-1l2-0.3c0.1,0.3,0.2,0.7,0.2,1s0.1,0.7,0.1,1L403.6,233.3z"/>
	<path class="st1" d="M398.3,262.7c-1-0.1-2-0.4-2.9-0.9c-0.9-0.4-1.6-1-2.3-1.8c-0.7-0.7-1.2-1.6-1.6-2.5c-0.4-0.9-0.6-1.9-0.6-3
		l2,0c0,0.8,0.2,1.5,0.4,2.2c0.3,0.7,0.6,1.3,1.1,1.8c0.5,0.5,1,1,1.7,1.3c0.6,0.3,1.3,0.6,2,0.7l-0.2-14.2c0.3,0,0.7-0.1,1-0.1
		c0.3,0,0.7,0,1,0c1,0.1,1.9,0.4,2.8,0.9c0.9,0.4,1.6,1,2.3,1.8c0.7,0.7,1.2,1.6,1.6,2.5c0.4,0.9,0.6,1.9,0.6,3c0,0.3,0,0.7,0,1
		l-2.1,0c0-0.3,0.1-0.7,0.1-1c0-0.8-0.2-1.5-0.4-2.2c-0.3-0.7-0.6-1.3-1.1-1.8c-0.5-0.5-1-1-1.7-1.3c-0.6-0.3-1.3-0.6-2-0.7
		l0.2,14.2c-0.3,0-0.7,0.1-1,0.1C399,262.7,398.6,262.7,398.3,262.7z M404.3,253.4l0,2.1l-2.1,0l0-2.1L404.3,253.4z"/>
	<path class="st1" d="M397.7,284c-0.3,0-0.7,0-1-0.1c-0.3,0-0.7-0.1-1-0.2l1-7l-7.1-1c0-0.3,0-0.7,0.1-1c0-0.3,0.1-0.7,0.2-1
		c0.3-1,0.7-1.9,1.3-2.7c0.6-0.8,1.3-1.5,2.1-2c0.8-0.5,1.7-0.9,2.7-1.2c1-0.2,2-0.3,3-0.1l-0.3,2c-0.7-0.1-1.5-0.1-2.2,0.1
		c-0.7,0.2-1.3,0.4-2,0.8c-0.6,0.4-1.1,0.9-1.6,1.4c-0.4,0.6-0.8,1.2-1,1.9l14.1,2c0,0.3,0,0.7-0.1,1c0,0.3-0.1,0.7-0.2,1
		c-0.2,0.9-0.6,1.7-1.1,2.5c-0.5,0.7-1.1,1.4-1.8,1.9c-0.7,0.5-1.5,1-2.4,1.2C399.6,283.9,398.7,284.1,397.7,284z M398,282
		c0.6,0,1.3-0.1,1.9-0.4c0.6-0.2,1.1-0.5,1.7-0.9s0.9-0.8,1.3-1.3c0.4-0.5,0.7-1.1,0.9-1.7l-5-0.7L398,282z M404.4,270.9
		c-0.4-0.6-0.9-1-1.4-1.5l-1.5,1.5c0.6,0.4,1,0.9,1.4,1.5L404.4,270.9z"/>
	<path class="st1" d="M382.3,324.1c-1-0.5-1.9-1.1-2.6-1.9c-0.7-0.8-1.3-1.7-1.6-2.7c-0.4-1-0.5-2-0.5-3.1c0-1.1,0.3-2.2,0.8-3.2
		c0.5-1,1.1-1.9,1.9-2.6c0.8-0.7,1.7-1.3,2.7-1.6s2-0.5,3.1-0.5c1.1,0,2.2,0.3,3.2,0.8l-0.9,1.9c-0.8-0.4-1.5-0.5-2.4-0.6
		c-0.8,0-1.6,0.1-2.3,0.4c-0.8,0.3-1.4,0.7-2,1.2c-0.6,0.5-1.1,1.2-1.4,2c-0.4,0.8-0.5,1.5-0.6,2.4c0,0.8,0.1,1.6,0.4,2.3
		s0.7,1.4,1.2,2c0.6,0.6,1.2,1.1,2,1.4L382.3,324.1z M381.6,315.9l0.9-1.9l1.9,0.9l-0.9,1.9L381.6,315.9z M385.3,317.6l0.9-1.9
		l7.4,3.5c-0.1,0.3-0.2,0.6-0.4,0.9c-0.1,0.3-0.3,0.6-0.5,0.9L385.3,317.6z"/>
	<path class="st1" d="M368.7,335.9l1.1-1.7l1.7,1.1l-1.1,1.7L368.7,335.9z M369.9,341.5l4.3-6.4l-1.5-7.5c0.7-0.2,1.3-0.4,2-0.4
		l0.4,2l1,4.9l0.1,0.6l4.7,3.1c0.4-0.9,0.6-1.8,0.5-2.7c0-0.7-0.1-1.4-0.4-2l2-0.4c0.2,0.6,0.4,1.3,0.4,2c0.1,1.5-0.2,2.9-0.8,4.2
		c-0.1,0.3-0.3,0.6-0.5,0.9c-0.2,0.3-0.4,0.6-0.6,0.8l-5.9-3.9l-3.9,5.9c-0.3-0.1-0.6-0.3-0.9-0.5
		C370.4,342,370.1,341.7,369.9,341.5z"/>
	<path class="st1" d="M357.4,358.9c-0.3-0.2-0.5-0.4-0.8-0.6c-0.3-0.2-0.5-0.5-0.7-0.7l4.8-5.3l-5.3-4.8c0.2-0.3,0.4-0.5,0.6-0.8
		c0.2-0.3,0.5-0.5,0.7-0.7c0.8-0.7,1.6-1.2,2.6-1.5c0.9-0.3,1.9-0.5,2.9-0.5c1,0,1.9,0.2,2.9,0.5c1,0.4,1.8,0.9,2.6,1.6l-1.4,1.5
		c-0.6-0.5-1.2-0.9-1.9-1.2c-0.7-0.3-1.4-0.4-2.1-0.4c-0.7,0-1.4,0.1-2.1,0.3c-0.7,0.2-1.3,0.6-1.9,1l10.5,9.5
		c-0.2,0.3-0.4,0.5-0.6,0.8c-0.2,0.3-0.5,0.5-0.7,0.7c-0.7,0.6-1.5,1.1-2.3,1.4c-0.8,0.3-1.7,0.5-2.6,0.6c-0.9,0-1.8-0.1-2.6-0.3
		C359,359.8,358.2,359.4,357.4,358.9z M358.8,357.4c0.5,0.3,1.1,0.6,1.7,0.8c0.6,0.2,1.2,0.2,1.9,0.2c0.6,0,1.2-0.2,1.8-0.4
		c0.6-0.2,1.2-0.5,1.7-0.9l-3.7-3.4L358.8,357.4z M370.3,351.8c0-0.7-0.1-1.4-0.3-2l-2,0.4c0.2,0.7,0.3,1.3,0.4,2L370.3,351.8z"/>
	<path class="st1" d="M345.5,367.2l-6.1,0.1l0-2.1l7.1-0.1l6.1,7.5c-0.2,0.2-0.5,0.5-0.8,0.7c-0.9,0.7-1.8,1.2-2.9,1.5
		c-1,0.3-2.1,0.4-3.1,0.3c-1.1-0.1-2.1-0.4-3-0.9c-1-0.5-1.8-1.2-2.5-2.1l1.6-1.3c0.5,0.6,1,1.1,1.7,1.4c0.6,0.4,1.3,0.6,2,0.7
		c0.7,0.1,1.4,0.1,2.1,0c0.7-0.1,1.4-0.4,2-0.7L345.5,367.2z M350,361.8c-0.5-0.3-1-0.6-1.6-0.8l0.6-2c0.8,0.2,1.5,0.6,2.1,1
		c0.7,0.5,1.3,1,1.8,1.6c0.5,0.6,0.9,1.3,1.2,2.1c0.3,0.7,0.5,1.5,0.6,2.3l-2,0.2c-0.1-0.6-0.2-1.2-0.4-1.7
		c-0.2-0.6-0.6-1.1-0.9-1.6C351,362.5,350.5,362.1,350,361.8z"/>
	<path class="st1" d="M321,380.4c-0.2-1-0.1-2,0.1-3l2,0.5c-0.1,0.7-0.2,1.5,0,2.2c0.1,0.8,0.4,1.5,0.8,2.2c0.6,0.9,1.3,1.7,2.3,2.2
		l3.7-2.2l-2.4-4l0.7-1.2l2.3-3.9c-0.7-0.2-1.5-0.2-2.2-0.1c-0.8,0.1-1.5,0.4-2.2,0.8l-1-1.8c1-0.6,2.1-1,3.2-1.1
		c1.1-0.1,2.2,0,3.3,0.3c0.7,0.2,1.3,0.5,1.9,0.8l-1,1.8l-2.5,4.4l2.8,4.8l-3.8,2.3c0.6,0,1.2,0,1.8-0.2c0.6-0.1,1.2-0.4,1.7-0.7
		c0.7-0.4,1.3-1,1.8-1.6c0.5-0.6,0.8-1.4,1-2.1c0.2-0.8,0.2-1.6,0.1-2.4c-0.1-0.8-0.4-1.6-0.8-2.3l1.8-1c0.6,1,0.9,2,1.1,3.1
		c0.1,1.1,0.1,2.1-0.2,3.1c-0.3,1-0.7,2-1.3,2.8c-0.7,0.9-1.5,1.6-2.4,2.2c-1.1,0.7-2.3,1-3.5,1.1c-1.2,0.1-2.4-0.1-3.5-0.5
		c-0.8-0.3-1.5-0.7-2.1-1.1c-0.8-0.6-1.5-1.4-2.1-2.3C321.5,382.5,321.2,381.5,321,380.4z"/>
	<path class="st1" d="M302.1,390.8l7.1-2.9l3-7.1c0.7,0.2,1.3,0.4,1.9,0.8l-0.8,1.9l-2,4.6l-0.2,0.6l2.1,5.2c0.8-0.5,1.5-1.1,2-1.9
		c0.4-0.6,0.6-1.2,0.8-1.9l1.9,0.8c-0.2,0.7-0.4,1.3-0.8,1.9c-0.7,1.3-1.8,2.3-3.1,3c-0.3,0.2-0.6,0.3-0.9,0.5
		c-0.3,0.1-0.6,0.2-1,0.3l-2.7-6.6l-6.6,2.7c-0.2-0.3-0.3-0.6-0.5-0.9C302.2,391.4,302.1,391.1,302.1,390.8z M304.2,385.5l1.9-0.8
		l0.8,1.9l-1.9,0.8L304.2,385.5z"/>
	<path class="st1" d="M281.5,393.9c0.2-1.1,0.5-2,1.1-3c0.6-0.9,1.3-1.7,2.1-2.3c0.9-0.7,1.9-1.1,2.9-1.4l0.5,2
		c-0.8,0.2-1.5,0.5-2.2,1c-0.6,0.5-1.2,1.1-1.6,1.7c-0.4,0.7-0.7,1.4-0.8,2.2c-0.1,0.8-0.1,1.6,0.1,2.4c0.2,0.6,0.4,1.3,0.8,1.8
		l8.7-8.4l1.5-1.4c0.5,0.4,1,0.9,1.5,1.4c0.8,1,1.3,2,1.6,3.2c0.3,1.3,0.3,2.6,0,3.9c-0.2,0.7-0.4,1.3-0.8,1.9l-4.5-2.8l1.1-1.7
		l2.3,1.4c0.1-0.8,0.1-1.5-0.1-2.3c-0.2-0.8-0.6-1.6-1.1-2.3l-8.8,8.5l-1.5,1.4c-0.5-0.5-1-1-1.4-1.5c-0.6-0.8-1-1.8-1.2-2.8
		C281.4,396.1,281.4,395,281.5,393.9z"/>
	<path class="st1" d="M266.1,392.9c0.1-0.3,0.2-0.5,0.4-0.7c0.2-0.2,0.4-0.4,0.6-0.5c0.2-0.1,0.5-0.2,0.8-0.2c0.3,0,0.5,0,0.8,0.1
		c0.3,0.1,0.5,0.2,0.7,0.4s0.4,0.4,0.5,0.6c0.1,0.2,0.2,0.5,0.2,0.8c0,0.3,0,0.5-0.1,0.8c-0.1,0.3-0.2,0.5-0.4,0.7s-0.4,0.4-0.6,0.5
		s-0.5,0.2-0.8,0.2c-0.3,0-0.5,0-0.8-0.1c-0.3-0.1-0.5-0.2-0.7-0.4c-0.2-0.2-0.4-0.4-0.5-0.6c-0.1-0.2-0.2-0.5-0.2-0.8
		C266,393.5,266,393.2,266.1,392.9z"/>
</g>
<g>
</g>
<g>
</g>
<g>
</g>
<g>
</g>
<g>
</g>
<g>
</g>
<g>
</g>
<g>
</g>
<g>
</g>
<g>
</g>
<g>
</g>
<g>
</g>
<g>
</g>
<g>
</g>
<g>
</g>
</svg>
