<?xml version="1.0" encoding="utf-8"?>
<!-- Generator: Adobe Illustrator 22.0.1, SVG Export Plug-In . SVG Version: 6.00 Build 0)  -->
<svg version="1.1" id="Layer_1" xmlns="http://www.w3.org/2000/svg" xmlns:xlink="http://www.w3.org/1999/xlink" x="0px" y="0px"
	 viewBox="0 0 512 512" style="enable-background:new 0 0 512 512;" xml:space="preserve">
<style type="text/css">
	.st0{fill:none;}
	.st1{fill:#8C1414;}
</style>
<g>
	<circle class="st0" cx="256" cy="256" r="176"/>
	<path class="st1" d="M239.5,430.6c0-0.3,0-0.6,0-0.9c0-0.3,0-0.6,0.1-0.9l6.3,0.3l0.3-6.3c0.3,0,0.6,0,0.9,0c0.3,0,0.6,0,0.9,0.1
		c0.9,0.2,1.7,0.5,2.5,0.9c0.7,0.4,1.4,1,1.9,1.7c0.5,0.7,1,1.4,1.2,2.3c0.3,0.9,0.4,1.7,0.4,2.7l-1.8-0.1c0-0.7,0-1.3-0.2-1.9
		c-0.2-0.6-0.5-1.2-0.9-1.7c-0.4-0.5-0.8-0.9-1.4-1.3c-0.5-0.3-1.1-0.6-1.8-0.7l-0.7,12.6c-0.3,0-0.6,0-0.9,0c-0.3,0-0.6,0-0.9-0.1
		c-0.8-0.1-1.6-0.4-2.3-0.8c-0.7-0.4-1.3-0.9-1.9-1.5c-0.5-0.6-1-1.3-1.3-2C239.8,432.2,239.6,431.4,239.5,430.6z M241.3,430.7
		c0.1,0.6,0.2,1.1,0.5,1.6c0.2,0.5,0.5,1,0.9,1.4c0.4,0.4,0.8,0.8,1.3,1.1c0.5,0.3,1,0.5,1.6,0.6l0.2-4.5L241.3,430.7z M251.7,435.5
		c0.5-0.4,0.9-0.9,1.2-1.4l-1.4-1.2c-0.3,0.5-0.7,1-1.2,1.4L251.7,435.5z"/>
	<path class="st1" d="M227.9,427.6l-3.6-4l1.3-1.2l4.2,4.6l-1.3,8.5c-0.3,0-0.6,0-0.9-0.1c-1-0.2-1.9-0.5-2.7-1
		c-0.8-0.5-1.5-1.1-2.1-1.9c-0.6-0.8-1-1.6-1.2-2.5c-0.2-1-0.3-1.9-0.1-2.9l1.8,0.3c-0.1,0.7-0.1,1.3,0,2c0.1,0.6,0.4,1.2,0.7,1.8
		c0.3,0.5,0.7,1,1.2,1.4c0.5,0.4,1.1,0.7,1.7,0.9L227.9,427.6z M234.1,427.4c-0.1-0.5-0.2-1-0.4-1.5l1.6-0.8c0.3,0.6,0.5,1.3,0.6,2
		c0.1,0.7,0.1,1.4,0,2.2c-0.1,0.7-0.3,1.4-0.7,2.1c-0.3,0.6-0.7,1.2-1.2,1.7l-1.3-1.2c0.4-0.4,0.7-0.8,0.9-1.3
		c0.2-0.5,0.4-1,0.5-1.6C234.2,428.5,234.2,427.9,234.1,427.4z"/>
	<path class="st1" d="M204.1,421.7l2.6,0.7l1.2-4.6c0.7-0.3,1.3-0.5,2-0.6l-2,7.4l-2.6-0.7c-0.1,0.8,0,1.6,0.3,2.4
		c0.3,0.8,0.7,1.4,1.3,2l-0.5,2c-0.5-0.4-1-0.8-1.4-1.3c-0.4-0.5-0.7-1.1-1-1.6c-0.3-0.6-0.4-1.2-0.5-1.9c-0.1-0.7-0.1-1.3,0-2
		c0-0.3,0.1-0.6,0.2-0.9C203.9,422.2,204,421.9,204.1,421.7z M211.9,417.2c0.3,0,0.6,0.1,0.9,0.2c0.3,0.1,0.6,0.2,0.9,0.3l-1.6,6.1
		l6.1,1.6c0,0.3-0.1,0.6-0.2,0.9c-0.1,0.3-0.2,0.6-0.3,0.9l-6.1-1.6l-1.6,6.1c-0.3,0-0.6-0.1-0.9-0.2s-0.6-0.2-0.9-0.3L211.9,417.2z
		"/>
	<path class="st1" d="M186.4,417.8c0.1-0.5,0.2-1.1,0.4-1.6c0.2-0.6,0.5-1.1,0.9-1.6c0.4-0.5,0.8-1,1.3-1.4c0.7-0.6,1.6-1.1,2.5-1.3
		c0.9-0.3,1.9-0.4,2.9-0.2c0.6,0,1.2,0.2,1.8,0.4c1.4,0.5,2.5,1.4,3.3,2.5l-2,0.5c-0.6-0.6-1.2-1-2-1.3l-1.3,3.4l-4.8-1.8
		c-0.4,0.5-0.7,1-0.9,1.6c-0.1,0.1-0.1,0.3-0.1,0.5c-0.2,0.6-0.3,1.3-0.2,1.9l0,0l0,0l10.5-2.6l1.8-0.4c0.2,0.6,0.4,1.2,0.4,1.8
		l-1.8,0.4l-10.4,2.6c0.6,1.4,1.6,2.3,3,2.9c0.3,0.1,0.7,0.2,1.1,0.3l-0.6-2.3l1.8-0.4l0.7,2.7l0.4,1.8c-0.6,0.1-1.2,0.2-1.8,0.1
		c-0.8,0-1.5-0.2-2.2-0.5c-1-0.4-1.8-0.9-2.6-1.7c-0.7-0.7-1.2-1.5-1.6-2.5c-0.2-0.6-0.4-1.2-0.5-1.8c0,0,0,0,0,0
		C186.3,419,186.3,418.4,186.4,417.8z M193.8,413.3c-0.9,0-1.8,0.2-2.6,0.6l2.1,0.8L193.8,413.3z"/>
	<path class="st1" d="M176.4,410.6l-2.2-4.9l1.7-0.8l2.6,5.7l-3.9,7.7c-0.3-0.1-0.6-0.2-0.8-0.4c-0.9-0.4-1.6-1-2.3-1.8
		c-0.6-0.7-1.1-1.5-1.4-2.4c-0.3-0.9-0.4-1.8-0.3-2.8c0.1-1,0.3-1.9,0.8-2.8l1.6,0.8c-0.3,0.6-0.5,1.2-0.6,1.9
		c-0.1,0.6,0,1.3,0.1,1.9c0.1,0.6,0.4,1.2,0.7,1.7c0.4,0.5,0.8,1,1.3,1.4L176.4,410.6z M182.4,412.3c0.1-0.5,0.1-1,0-1.6l1.8-0.2
		c0.1,0.7,0.1,1.4-0.1,2.1c-0.1,0.7-0.4,1.4-0.7,2.1c-0.3,0.7-0.8,1.2-1.3,1.8c-0.5,0.5-1,0.9-1.7,1.3l-0.9-1.6
		c0.5-0.3,0.9-0.6,1.2-1c0.4-0.4,0.7-0.8,0.9-1.3C182.1,413.4,182.3,412.9,182.4,412.3z"/>
	<path class="st1" d="M154.7,399.1c0.1-0.3,0.3-0.5,0.5-0.8c0.2-0.3,0.3-0.5,0.5-0.7l5.3,3.4l3.4-5.3c0.3,0.1,0.5,0.3,0.8,0.5
		s0.5,0.3,0.7,0.5c0.7,0.6,1.2,1.3,1.7,2c0.4,0.8,0.7,1.6,0.8,2.4c0.1,0.9,0.1,1.7-0.1,2.6c-0.2,0.9-0.5,1.7-1,2.5l-1.5-1
		c0.4-0.6,0.6-1.2,0.8-1.8c0.1-0.6,0.2-1.3,0.1-1.9c-0.1-0.6-0.3-1.2-0.6-1.8c-0.3-0.6-0.7-1.1-1.2-1.5l-6.9,10.6
		c-0.3-0.1-0.5-0.3-0.8-0.4c-0.3-0.2-0.5-0.3-0.7-0.5c-0.6-0.5-1.1-1.1-1.6-1.9c-0.4-0.7-0.7-1.4-0.9-2.2c-0.2-0.8-0.2-1.6-0.1-2.4
		C154.1,400.6,154.3,399.9,154.7,399.1z M156.2,400.1c-0.2,0.5-0.4,1.1-0.4,1.6c-0.1,0.6,0,1.1,0.1,1.7c0.1,0.5,0.3,1.1,0.6,1.6
		c0.3,0.5,0.6,0.9,1.1,1.3l2.4-3.8L156.2,400.1z M162.7,409.4c0.6-0.1,1.2-0.3,1.7-0.6l-0.6-1.7c-0.5,0.3-1.1,0.5-1.7,0.6
		L162.7,409.4z"/>
	<path class="st1" d="M141.4,386.4l2.1,1.7l3-3.7c0.7,0,1.4,0.1,2.1,0.3l-4.8,6l-2.1-1.7c-0.4,0.7-0.6,1.5-0.7,2.3
		c-0.1,0.8,0.1,1.6,0.3,2.3l-1.3,1.6c-0.3-0.6-0.5-1.2-0.7-1.8c-0.1-0.6-0.2-1.3-0.2-1.9c0-0.6,0.1-1.3,0.3-1.9
		c0.2-0.6,0.4-1.2,0.8-1.8c0.2-0.3,0.3-0.5,0.5-0.7C141,386.8,141.2,386.6,141.4,386.4z M150.3,385.4c0.3,0.2,0.5,0.3,0.7,0.5
		c0.2,0.2,0.5,0.4,0.7,0.6l-4,4.9l4.9,4c-0.2,0.3-0.3,0.5-0.5,0.7c-0.2,0.2-0.4,0.5-0.6,0.7l-4.9-4l-4,4.9c-0.3-0.2-0.5-0.3-0.7-0.5
		s-0.5-0.4-0.7-0.6L150.3,385.4z"/>
	<path class="st1" d="M126.3,382.3c-0.3-0.7-0.5-1.3-0.5-2.1c-0.1-0.7,0-1.4,0.1-2.1c0.1-0.7,0.4-1.4,0.7-2c0.3-0.7,0.8-1.3,1.3-1.8
		c0.7-0.7,1.5-1.2,2.4-1.6c0.9-0.4,1.8-0.5,2.7-0.5c1,0,1.9,0.2,2.7,0.5c0.9,0.4,1.7,0.9,2.4,1.6s1.2,1.5,1.6,2.4
		c0.4,0.9,0.5,1.8,0.5,2.7c0,1-0.2,1.9-0.5,2.7c-0.4,0.9-0.9,1.7-1.6,2.4c-0.5,0.5-1.1,1-1.8,1.3c-0.6,0.3-1.3,0.6-2,0.7
		c-0.7,0.1-1.4,0.2-2.1,0.1c-0.7-0.1-1.4-0.3-2.1-0.5l1.4-1.4c0.9,0.2,1.9,0.2,2.8,0c1-0.3,1.8-0.7,2.5-1.4c0.5-0.5,0.9-1.1,1.2-1.8
		c0.3-0.7,0.4-1.3,0.4-2.1c0-0.7-0.1-1.4-0.4-2.1c-0.3-0.7-0.7-1.3-1.2-1.8c-0.5-0.5-1.1-0.9-1.8-1.2c-0.7-0.3-1.3-0.4-2.1-0.4
		c-0.7,0-1.4,0.1-2.1,0.4c-0.7,0.3-1.3,0.7-1.8,1.2c-0.7,0.7-1.2,1.5-1.4,2.5c-0.2,0.9-0.2,1.9,0,2.8L126.3,382.3z M128.5,382.6
		c0.2,0.3,0.4,0.5,0.6,0.7s0.4,0.4,0.7,0.6l-1.3,1.3c-0.2-0.2-0.5-0.4-0.7-0.6c-0.2-0.2-0.4-0.4-0.6-0.7L128.5,382.6z"/>
	<path class="st1" d="M106.8,344.7c0.7-0.3,1.4-0.5,2.1-0.7c0.7-0.1,1.4-0.1,2.1,0c0.7,0.1,1.4,0.3,2.1,0.6c0.7,0.3,1.3,0.7,1.8,1.2
		l-1.6,1c-0.8-0.6-1.7-1-2.6-1.1c-1-0.1-1.9,0-2.9,0.4l3.4,5.3L106,355c0.4,0.5,1,0.9,1.5,1.2c0.6,0.3,1.2,0.5,1.8,0.6
		c0.6,0.1,1.3,0.1,1.9-0.1c0.6-0.1,1.2-0.4,1.8-0.8c0.6-0.4,1.1-0.9,1.5-1.5c0.4-0.6,0.7-1.2,0.8-1.9c0.1-0.7,0.2-1.4,0-2.1
		c-0.1-0.7-0.4-1.4-0.8-2l1.5-1c0.5,0.8,0.9,1.7,1.1,2.7c0.2,0.9,0.2,1.9,0,2.8s-0.6,1.8-1.1,2.6c-0.5,0.8-1.2,1.5-2.1,2
		c-0.8,0.5-1.6,0.8-2.5,1c-0.9,0.2-1.7,0.2-2.6,0.1c-0.9-0.1-1.7-0.4-2.4-0.8c-0.8-0.4-1.5-1-2.1-1.7c-0.2-0.2-0.4-0.5-0.5-0.7
		s-0.3-0.5-0.5-0.8c-0.6-1.2-0.8-2.5-0.7-3.8c0.1-0.6,0.2-1.3,0.4-1.9c0.2-0.6,0.5-1.2,0.9-1.7l1.1,1.7c-0.4,0.7-0.5,1.5-0.6,2.3
		c0,0.8,0.1,1.6,0.4,2.4l3.7-2.5l-3.5-5.3c0.2-0.2,0.5-0.4,0.7-0.5C106.3,345,106.5,344.8,106.8,344.7z"/>
	<path class="st1" d="M103.1,328.6c1.9,0.6,3.3,1.8,4.3,3.6c0.5,1,0.8,2,0.8,3.1c0,0.6,0,1.2-0.2,1.9l-1.7-0.7l-4.8-1.8l-0.4,1.5
		l4.7,1.8l1.7,0.7c-0.2,0.6-0.6,1.1-1,1.6l-1.8-0.7l-4-1.5l-0.8,2.9l-0.5,1.8c-0.6-0.1-1.2-0.3-1.7-0.6l0.5-1.8l0.8-2.9l0.5-1.8
		l0.9-3.3l6,2.3c-0.1-0.5-0.3-1-0.5-1.5c-0.7-1.3-1.8-2.3-3.2-2.7c-1.4-0.5-2.8-0.4-4.2,0.3c-1.1,0.6-1.9,1.4-2.5,2.6
		c-0.5,1.1-0.6,2.3-0.4,3.5c0.1,0.5,0.3,0.9,0.5,1.3l-1.6,0.8c-0.9-1.8-1.1-3.6-0.5-5.6c0.6-1.9,1.8-3.3,3.6-4.3
		C99.3,328.1,101.2,328,103.1,328.6z"/>
	<path class="st1" d="M96.4,312.3c1.8,0.8,3.1,2.2,3.9,4c0.4,1,0.5,2.1,0.5,3.2c0,0.6-0.2,1.2-0.4,1.9l-1.6-0.8l-4.6-2.3l-0.6,1.5
		l4.5,2.3l1.6,0.8c-0.3,0.5-0.7,1-1.2,1.5l-1.8-0.9l-3.8-1.9l-1.1,2.8l-0.6,1.7c-0.6-0.2-1.1-0.4-1.7-0.8l0.7-1.8l1.1-2.8l0.7-1.7
		l1.2-3.2l5.8,2.9c0-0.5-0.1-1.1-0.3-1.6c-0.5-1.4-1.5-2.4-2.9-3c-1.4-0.6-2.8-0.6-4.2-0.1c-1.2,0.5-2.1,1.2-2.7,2.3
		c-0.6,1.1-0.9,2.2-0.7,3.4c0.1,0.5,0.2,0.9,0.3,1.3l-1.7,0.7c-0.7-1.9-0.7-3.7,0.1-5.6c0.8-1.8,2.2-3.1,4-3.9
		C92.7,311.4,94.5,311.5,96.4,312.3z"/>
	<path class="st1" d="M88,300.6l2.2-4.9l1.7,0.7l-2.5,5.7l-8.3,2.2c-0.1-0.3-0.2-0.6-0.3-0.9c-0.3-1-0.3-1.9-0.2-2.9
		c0.1-0.9,0.4-1.8,0.9-2.7c0.5-0.8,1.1-1.5,1.8-2.1c0.8-0.6,1.6-1,2.6-1.3l0.5,1.8c-0.6,0.2-1.2,0.5-1.8,0.8
		c-0.5,0.4-0.9,0.8-1.3,1.4c-0.4,0.5-0.6,1.1-0.8,1.7c-0.2,0.6-0.2,1.3-0.2,1.9L88,300.6z M90.7,306.3c0.4-0.3,0.8-0.6,1.2-1
		l1.4,1.2c-0.5,0.5-1,1-1.6,1.4c-0.6,0.4-1.3,0.7-2,0.9s-1.4,0.3-2.2,0.2c-0.7,0-1.4-0.2-2.1-0.4l0.6-1.7c0.5,0.2,1,0.3,1.5,0.3
		c0.6,0,1.1,0,1.6-0.2C89.7,306.8,90.2,306.6,90.7,306.3z"/>
	<path class="st1" d="M83.1,278.5c-0.7,0.1-1.4,0.4-2,0.8c-0.6,0.4-1.1,0.9-1.5,1.4c-0.4,0.6-0.7,1.2-0.9,1.9
		c-0.2,0.7-0.2,1.4-0.1,2.2c0.1,0.7,0.4,1.4,0.8,2c0.4,0.6,0.9,1.1,1.4,1.5s1.2,0.7,1.9,0.9c0.7,0.2,1.4,0.2,2.2,0.1l0.3,1.8
		c-1,0.2-1.9,0.1-2.9-0.1c-0.9-0.2-1.8-0.6-2.5-1.2c-0.8-0.6-1.4-1.2-1.9-2c-0.5-0.8-0.9-1.7-1-2.7c-0.2-1-0.1-1.9,0.1-2.9
		c0.2-0.9,0.6-1.8,1.2-2.5c0.6-0.8,1.2-1.4,2-1.9c0.8-0.5,1.7-0.9,2.7-1L83.1,278.5z M83.5,281.2c-0.6,0.1-1.1,0.3-1.5,0.8
		c-0.4,0.4-0.7,0.9-0.8,1.4l9.7-1.6c0.1,0.3,0.1,0.6,0.2,0.9s0.1,0.6,0.1,0.9l-9.7,1.6c0.3,0.5,0.7,0.9,1.2,1.1
		c0.5,0.3,1.1,0.3,1.7,0.3l0.3,1.8c-0.5,0.1-1.1,0.1-1.6,0c-0.5-0.1-1-0.3-1.4-0.5c-0.4-0.3-0.8-0.6-1.2-1c-0.3-0.4-0.6-0.8-0.8-1.3
		c-0.1-0.3-0.2-0.6-0.2-0.9s-0.1-0.6-0.1-0.9c0-0.5,0.1-1,0.3-1.5c0.2-0.5,0.5-0.9,0.8-1.3c0.3-0.4,0.7-0.7,1.2-1
		c0.5-0.3,1-0.4,1.5-0.5L83.5,281.2z"/>
	<path class="st1" d="M87.1,263.8c0.2,0.1,0.4,0.2,0.6,0.4c0.2,0.2,0.3,0.3,0.4,0.6c0.1,0.2,0.2,0.5,0.2,0.7c0,0.3,0,0.5-0.1,0.7
		c-0.1,0.2-0.2,0.4-0.4,0.6s-0.3,0.3-0.6,0.4c-0.2,0.1-0.5,0.2-0.7,0.2c-0.2,0-0.5,0-0.7-0.1c-0.2-0.1-0.4-0.2-0.6-0.4
		c-0.2-0.2-0.3-0.3-0.4-0.6c-0.1-0.2-0.2-0.4-0.2-0.7c0-0.2,0-0.5,0.1-0.7s0.2-0.4,0.4-0.6s0.3-0.3,0.6-0.4c0.2-0.1,0.5-0.2,0.7-0.2
		C86.7,263.7,86.9,263.7,87.1,263.8z"/>
	<path class="st1" d="M81.3,240.3c0.3,0,0.6,0,0.9,0s0.6,0,0.9,0.1l-0.3,6.3l6.3,0.3c0,0.3,0,0.6,0,0.9s0,0.6-0.1,0.9
		c-0.2,0.9-0.5,1.7-0.9,2.5c-0.4,0.7-1,1.4-1.7,1.9c-0.7,0.6-1.4,1-2.3,1.2c-0.9,0.3-1.7,0.4-2.7,0.4l0.1-1.8c0.7,0,1.3-0.1,1.9-0.3
		c0.6-0.2,1.2-0.5,1.7-0.9c0.5-0.4,0.9-0.8,1.3-1.4c0.3-0.5,0.6-1.1,0.7-1.8l-12.6-0.6c0-0.3,0-0.6,0-0.9s0-0.6,0.1-0.9
		c0.1-0.8,0.4-1.6,0.8-2.3c0.4-0.7,0.9-1.3,1.5-1.9c0.6-0.5,1.3-1,2-1.3C79.7,240.6,80.5,240.4,81.3,240.3z M76.5,252.5
		c0.4,0.5,0.9,0.9,1.4,1.2l1.2-1.4c-0.5-0.3-1-0.7-1.4-1.2L76.5,252.5z M81.3,242.1c-0.6,0.1-1.1,0.2-1.6,0.5
		c-0.5,0.2-1,0.5-1.4,0.9s-0.8,0.8-1.1,1.3c-0.3,0.5-0.5,1-0.6,1.6l4.5,0.2L81.3,242.1z"/>
	<path class="st1" d="M84.3,228.6l4-3.7l1.2,1.3l-4.6,4.2l-8.5-1.3c0-0.3,0-0.6,0.1-0.9c0.1-1,0.5-1.9,1-2.7
		c0.5-0.8,1.1-1.5,1.9-2.1s1.6-1,2.5-1.2c1-0.2,1.9-0.3,2.9-0.1l-0.3,1.8c-0.7-0.1-1.3-0.1-2,0c-0.6,0.1-1.2,0.4-1.8,0.7
		c-0.5,0.3-1,0.7-1.4,1.3c-0.4,0.5-0.7,1.1-0.9,1.7L84.3,228.6z M84.5,234.9c0.5-0.1,1-0.2,1.5-0.5l0.8,1.6c-0.6,0.3-1.3,0.5-2,0.6
		c-0.7,0.1-1.4,0.1-2.2,0c-0.7-0.1-1.4-0.3-2.1-0.6c-0.6-0.3-1.2-0.7-1.7-1.2l1.2-1.3c0.4,0.4,0.8,0.6,1.3,0.9
		c0.5,0.2,1,0.4,1.6,0.5C83.4,234.9,84,234.9,84.5,234.9z"/>
	<path class="st1" d="M94.6,212.6c0,0.3-0.1,0.6-0.2,0.9c-0.1,0.3-0.2,0.6-0.3,0.9l-6.1-1.6l-1.6,6.1c-0.3,0-0.6-0.1-0.9-0.2
		c-0.3-0.1-0.6-0.2-0.9-0.3l1.6-6.1l-6.1-1.6c0-0.3,0.1-0.6,0.2-0.9c0.1-0.3,0.2-0.6,0.3-0.9L94.6,212.6z M90.1,204.9l-0.7,2.6
		l4.6,1.2c0.3,0.7,0.5,1.3,0.6,2l-7.4-1.9l0.7-2.6c-0.8-0.1-1.6,0-2.4,0.3c-0.8,0.3-1.4,0.7-2,1.3l-2-0.5c0.4-0.5,0.8-1,1.3-1.4
		c0.5-0.4,1.1-0.7,1.6-1c0.6-0.3,1.2-0.4,1.8-0.5c0.7-0.1,1.3-0.1,2,0c0.3,0,0.6,0.1,0.9,0.2C89.5,204.7,89.8,204.8,90.1,204.9z"/>
	<path class="st1" d="M93.9,187.1c0.5,0.1,1.1,0.2,1.6,0.4c0.6,0.2,1.1,0.5,1.6,0.9c0.5,0.3,1,0.8,1.4,1.3c0.6,0.7,1.1,1.6,1.3,2.5
		c0.3,0.9,0.4,1.9,0.3,2.9c0,0.6-0.2,1.2-0.4,1.8c-0.5,1.4-1.4,2.5-2.5,3.3l-0.5-2c0.6-0.6,1-1.2,1.3-2l-3.4-1.3l1.8-4.8
		c-0.5-0.4-1-0.7-1.6-0.9c-0.1-0.1-0.3-0.1-0.5-0.1c-0.6-0.2-1.3-0.3-1.9-0.2l0,0l0,0l2.6,10.5l0.5,1.8c-0.6,0.2-1.2,0.4-1.8,0.4
		l-0.4-1.8l-2.6-10.4c-1.4,0.6-2.3,1.6-2.9,3c-0.1,0.3-0.2,0.7-0.3,1.1l2.3-0.6l0.4,1.8l-2.7,0.7l-1.8,0.4c-0.1-0.6-0.2-1.2-0.1-1.8
		c0-0.8,0.2-1.5,0.5-2.2c0.4-1,0.9-1.8,1.6-2.6c0.7-0.7,1.5-1.2,2.5-1.6c0.6-0.2,1.2-0.4,1.8-0.5c0,0,0,0,0,0
		C92.7,187,93.3,187,93.9,187.1z M98.4,194.4c0-0.9-0.2-1.8-0.6-2.6l-0.8,2.1L98.4,194.4z"/>
	<path class="st1" d="M101.1,177.1l4.9-2.2l0.8,1.7l-5.7,2.6l-7.7-3.9c0.1-0.3,0.2-0.6,0.4-0.8c0.4-0.9,1-1.6,1.8-2.3
		c0.7-0.6,1.5-1.1,2.4-1.4c0.9-0.3,1.8-0.4,2.8-0.3c1,0.1,1.9,0.3,2.8,0.8l-0.8,1.6c-0.6-0.3-1.2-0.5-1.9-0.6
		c-0.6-0.1-1.3,0-1.9,0.1c-0.6,0.1-1.2,0.4-1.7,0.8c-0.5,0.4-1,0.8-1.4,1.3L101.1,177.1z M99.3,183.1c0.5,0.1,1,0.1,1.6,0l0.2,1.8
		c-0.7,0.1-1.4,0.1-2.1,0c-0.7-0.1-1.4-0.3-2.1-0.7c-0.7-0.3-1.2-0.7-1.8-1.3c-0.5-0.5-0.9-1-1.3-1.7l1.6-0.9c0.3,0.5,0.6,0.9,1,1.2
		c0.4,0.4,0.8,0.7,1.3,0.9C98.3,182.8,98.8,183,99.3,183.1z"/>
	<path class="st1" d="M103.9,162.8c0.1,0.6,0.3,1.2,0.6,1.7l-1.7,0.6c-0.3-0.5-0.5-1.1-0.6-1.7L103.9,162.8z M110.1,154.6
		c-0.8-0.1-1.6-0.1-2.4,0.1c-0.8,0.2-1.5,0.5-2.2,0.9c-0.7,0.4-1.3,0.9-1.8,1.6c-0.2,0.2-0.4,0.5-0.5,0.7c-0.2,0.3-0.3,0.5-0.4,0.8
		l10.6,6.8c-0.4,0.5-0.9,0.9-1.5,1.2c-0.6,0.3-1.2,0.5-1.8,0.6c-0.6,0.1-1.3,0.1-1.9-0.1c-0.6-0.1-1.2-0.4-1.8-0.8l-1,1.5
		c0.8,0.5,1.6,0.8,2.5,1c0.9,0.2,1.7,0.2,2.6,0.1c0.9-0.1,1.7-0.4,2.4-0.8c0.8-0.4,1.5-1,2-1.7c0.2-0.2,0.4-0.5,0.5-0.7
		c0.2-0.3,0.3-0.5,0.5-0.8l-5.3-3.4l3.4-5.3c-0.2-0.2-0.5-0.4-0.7-0.5c-0.3-0.2-0.5-0.3-0.8-0.5
		C111.7,154.9,110.9,154.7,110.1,154.6z M109,160.6l-3.8-2.4c0.4-0.4,0.8-0.8,1.3-1.1c0.5-0.3,1-0.5,1.6-0.6
		c0.5-0.1,1.1-0.2,1.7-0.1c0.6,0.1,1.1,0.2,1.6,0.4L109,160.6z"/>
	<path class="st1" d="M126.1,150.9c-0.2,0.3-0.3,0.5-0.5,0.7c-0.2,0.2-0.4,0.5-0.6,0.7l-4.9-4l-4,4.9c-0.3-0.2-0.5-0.3-0.7-0.5
		c-0.2-0.2-0.5-0.4-0.7-0.6l4-4.9l-4.9-4c0.2-0.3,0.3-0.5,0.5-0.7c0.2-0.2,0.4-0.5,0.6-0.7L126.1,150.9z M125.2,142l-1.7,2.1l3.7,3
		c0,0.7-0.1,1.4-0.3,2.1l-6-4.8l1.7-2.1c-0.7-0.4-1.5-0.6-2.3-0.7c-0.8,0-1.6,0.1-2.3,0.4l-1.6-1.3c0.6-0.3,1.2-0.5,1.8-0.7
		c0.6-0.2,1.3-0.2,1.9-0.2c0.6,0,1.3,0.1,1.9,0.3c0.6,0.2,1.2,0.4,1.8,0.8c0.3,0.2,0.5,0.3,0.7,0.5
		C124.7,141.6,124.9,141.8,125.2,142z"/>
	<path class="st1" d="M129.1,126.8c0.7-0.3,1.3-0.5,2.1-0.5c0.7-0.1,1.4-0.1,2.1,0.1c0.7,0.1,1.4,0.4,2,0.7c0.7,0.3,1.3,0.8,1.8,1.3
		c0.7,0.7,1.2,1.5,1.6,2.4c0.4,0.9,0.5,1.8,0.6,2.7c0,1-0.2,1.9-0.5,2.8c-0.4,0.9-0.9,1.7-1.6,2.4c-0.7,0.7-1.5,1.2-2.4,1.6
		c-0.9,0.4-1.8,0.5-2.7,0.6c-1,0-1.9-0.2-2.8-0.5c-0.9-0.4-1.7-0.9-2.4-1.6c-0.5-0.5-1-1.1-1.3-1.8c-0.3-0.6-0.6-1.3-0.7-2
		c-0.1-0.7-0.2-1.4-0.1-2.1c0.1-0.7,0.2-1.4,0.5-2.1l1.4,1.4c-0.2,0.9-0.2,1.9,0,2.8c0.3,1,0.7,1.8,1.4,2.5c0.5,0.5,1.1,0.9,1.8,1.2
		c0.7,0.3,1.3,0.4,2.1,0.4s1.4-0.1,2.1-0.4c0.7-0.3,1.3-0.7,1.8-1.2c0.5-0.5,0.9-1.1,1.2-1.8c0.3-0.7,0.4-1.3,0.4-2.1
		c0-0.7-0.1-1.4-0.4-2.1c-0.3-0.7-0.7-1.3-1.2-1.8c-0.7-0.7-1.5-1.2-2.5-1.4c-0.9-0.2-1.9-0.2-2.8,0L129.1,126.8z M128.8,129.1
		c-0.2,0.2-0.5,0.4-0.7,0.6s-0.4,0.4-0.6,0.7l-1.3-1.3c0.2-0.2,0.4-0.5,0.6-0.7s0.4-0.4,0.7-0.6L128.8,129.1z"/>
	<path class="st1" d="M166.6,107.2c0.3,0.7,0.5,1.4,0.7,2.1c0.1,0.7,0.1,1.4,0,2.1c-0.1,0.7-0.3,1.4-0.6,2.1
		c-0.3,0.7-0.7,1.3-1.2,1.8l-1-1.6c0.6-0.8,1-1.7,1.1-2.7c0.1-1,0-1.9-0.4-2.9l-5.3,3.5l-3.5-5.3c-0.5,0.4-0.9,1-1.1,1.5
		c-0.3,0.6-0.5,1.2-0.5,1.8c-0.1,0.6,0,1.3,0.1,1.9c0.1,0.6,0.4,1.2,0.8,1.8c0.4,0.6,0.9,1.1,1.5,1.5c0.6,0.4,1.2,0.7,1.9,0.8
		c0.7,0.1,1.4,0.2,2.1,0c0.7-0.1,1.4-0.4,2-0.8l1,1.5c-0.8,0.5-1.7,0.9-2.7,1.1c-0.9,0.2-1.9,0.2-2.8,0s-1.8-0.6-2.6-1.1
		c-0.8-0.5-1.5-1.2-2-2c-0.5-0.8-0.8-1.6-1-2.5c-0.2-0.9-0.2-1.7-0.1-2.6c0.1-0.9,0.4-1.7,0.8-2.4c0.4-0.8,1-1.5,1.7-2.1
		c0.2-0.2,0.5-0.4,0.7-0.5c0.3-0.2,0.5-0.3,0.8-0.5c1.2-0.6,2.4-0.8,3.8-0.7c0.6,0.1,1.3,0.2,1.9,0.4c0.6,0.2,1.2,0.5,1.7,0.9
		l-1.7,1.1c-0.7-0.4-1.5-0.5-2.3-0.6c-0.8,0-1.6,0.1-2.4,0.5l2.5,3.7l5.3-3.5c0.2,0.2,0.4,0.5,0.5,0.7
		C166.4,106.7,166.5,106.9,166.6,107.2z"/>
	<path class="st1" d="M182.7,103.4c-0.6,1.9-1.8,3.3-3.6,4.3c-1,0.5-2,0.8-3.1,0.8c-0.6,0-1.2,0-1.9-0.2l0.7-1.7l1.8-4.8l-1.5-0.4
		l-1.8,4.7l-0.6,1.7c-0.6-0.2-1.1-0.6-1.6-1l0.7-1.8l1.5-4l-2.9-0.8l-1.8-0.4c0.1-0.6,0.3-1.2,0.6-1.7l1.8,0.5l2.9,0.7l1.8,0.5
		l3.3,0.8l-2.3,6c0.5-0.1,1-0.3,1.5-0.5c1.3-0.7,2.2-1.8,2.7-3.2c0.5-1.4,0.3-2.8-0.4-4.2c-0.6-1.1-1.4-1.9-2.6-2.4
		c-1.1-0.5-2.3-0.6-3.5-0.4c-0.5,0.1-0.9,0.3-1.3,0.5l-0.8-1.6c1.8-0.9,3.6-1.1,5.6-0.5c1.9,0.6,3.3,1.8,4.3,3.6
		C183.2,99.7,183.3,101.5,182.7,103.4z"/>
	<path class="st1" d="M199,96.6c-0.8,1.8-2.2,3.1-4,3.9c-1,0.4-2.1,0.6-3.2,0.5c-0.6,0-1.2-0.1-1.9-0.4l0.8-1.6l2.3-4.6l-1.5-0.6
		l-2.2,4.5l-0.8,1.6c-0.5-0.3-1-0.7-1.5-1.2L188,97l1.9-3.8l-2.8-1.1l-1.7-0.6c0.2-0.6,0.4-1.1,0.8-1.7l1.8,0.7l2.8,1l1.7,0.6
		l3.2,1.2l-2.9,5.8c0.5,0,1.1-0.1,1.6-0.3c1.4-0.6,2.4-1.5,3-2.9c0.6-1.4,0.6-2.8,0.1-4.2c-0.5-1.2-1.2-2.1-2.3-2.7
		c-1.1-0.6-2.2-0.9-3.4-0.7c-0.5,0.1-0.9,0.2-1.3,0.3l-0.7-1.7c1.9-0.7,3.7-0.7,5.6,0.1c1.8,0.8,3.1,2.2,3.9,4
		C199.9,92.9,199.8,94.8,199,96.6z"/>
	<path class="st1" d="M205,90.9c0.3,0.4,0.6,0.8,1,1.2l-1.2,1.4c-0.5-0.5-1-1-1.4-1.6c-0.4-0.6-0.7-1.3-0.9-2
		c-0.2-0.7-0.3-1.4-0.3-2.2c0-0.7,0.1-1.4,0.4-2.1l1.7,0.6c-0.2,0.5-0.3,1-0.3,1.5c0,0.6,0.1,1.1,0.2,1.6S204.7,90.4,205,90.9z
		 M210.6,88.2l5,2.1l-0.7,1.7l-5.8-2.5l-2.3-8.3c0.3-0.1,0.6-0.2,0.9-0.3c1-0.3,1.9-0.3,2.9-0.2c0.9,0.1,1.8,0.4,2.7,0.9
		c0.8,0.5,1.5,1.1,2.1,1.8c0.6,0.8,1,1.6,1.3,2.6l-1.8,0.5c-0.2-0.6-0.5-1.2-0.8-1.8c-0.4-0.5-0.8-0.9-1.4-1.3
		c-0.5-0.4-1.1-0.6-1.7-0.8c-0.6-0.2-1.3-0.2-1.9-0.1L210.6,88.2z"/>
	<path class="st1" d="M232.8,83.2c-0.1-0.7-0.4-1.4-0.8-2c-0.4-0.6-0.9-1.1-1.4-1.5c-0.6-0.4-1.2-0.7-1.9-0.9
		c-0.7-0.2-1.4-0.2-2.2-0.1c-0.7,0.1-1.4,0.4-2,0.8c-0.6,0.4-1.1,0.9-1.5,1.4c-0.4,0.6-0.7,1.2-0.9,1.9c-0.2,0.7-0.2,1.4-0.1,2.2
		l-1.8,0.3c-0.2-1-0.1-1.9,0.1-2.9c0.2-0.9,0.6-1.8,1.2-2.5s1.2-1.4,2-1.9c0.8-0.5,1.7-0.9,2.7-1c1-0.2,1.9-0.1,2.9,0.1
		c0.9,0.2,1.8,0.6,2.5,1.2c0.8,0.6,1.4,1.2,1.9,2c0.5,0.8,0.9,1.7,1,2.7L232.8,83.2z M230.1,83.6c-0.1-0.6-0.4-1.1-0.8-1.5
		c-0.4-0.4-0.9-0.7-1.4-0.8l1.6,9.7c-0.3,0.1-0.6,0.2-0.9,0.2c-0.3,0-0.6,0.1-0.9,0.1l-1.6-9.7c-0.5,0.3-0.9,0.7-1.1,1.2
		c-0.3,0.5-0.3,1.1-0.2,1.7l-1.8,0.3c-0.1-0.5-0.1-1.1,0-1.6c0.1-0.5,0.3-1,0.5-1.4c0.3-0.5,0.6-0.8,1-1.2c0.4-0.3,0.8-0.6,1.3-0.8
		c0.3-0.1,0.6-0.2,0.9-0.2c0.3,0,0.6-0.1,0.9-0.1c0.5,0,1,0.1,1.5,0.3c0.5,0.2,0.9,0.5,1.3,0.8c0.4,0.3,0.7,0.7,1,1.2
		c0.3,0.5,0.4,1,0.5,1.5L230.1,83.6z"/>
	<path class="st1" d="M247.5,87.2c-0.1,0.2-0.2,0.4-0.4,0.6c-0.2,0.2-0.3,0.3-0.6,0.4c-0.2,0.1-0.4,0.2-0.7,0.2
		c-0.2,0-0.5,0-0.7-0.1c-0.2-0.1-0.4-0.2-0.6-0.4c-0.2-0.2-0.3-0.3-0.4-0.5c-0.1-0.2-0.2-0.5-0.2-0.7c0-0.2,0-0.5,0.1-0.7
		c0.1-0.2,0.2-0.4,0.4-0.6c0.2-0.2,0.3-0.3,0.6-0.4c0.2-0.1,0.4-0.2,0.7-0.2s0.5,0,0.7,0.1s0.4,0.2,0.6,0.4s0.3,0.3,0.4,0.5
		c0.1,0.2,0.2,0.5,0.2,0.7C247.6,86.7,247.5,86.9,247.5,87.2z"/>
	<path class="st1" d="M270.9,81.3c0,0.3,0,0.6,0,0.9c0,0.3,0,0.6-0.1,0.9l-6.3-0.3l-0.3,6.3c-0.3,0-0.6,0-0.9,0
		c-0.3,0-0.6,0-0.9-0.1c-0.9-0.1-1.7-0.5-2.5-0.9c-0.7-0.4-1.4-1-2-1.7c-0.6-0.7-1-1.4-1.3-2.3c-0.3-0.9-0.4-1.7-0.4-2.7l1.8,0.1
		c0,0.7,0.1,1.3,0.3,1.9c0.2,0.6,0.5,1.2,0.9,1.7c0.4,0.5,0.9,0.9,1.4,1.3c0.5,0.3,1.1,0.6,1.8,0.7l0.5-12.6c0.3,0,0.6,0,0.9,0
		c0.3,0,0.6,0,0.9,0.1c0.8,0.1,1.6,0.4,2.3,0.8c0.7,0.4,1.3,0.9,1.9,1.5c0.5,0.6,1,1.3,1.3,2C270.6,79.7,270.8,80.5,270.9,81.3z
		 M258.7,76.5c-0.5,0.4-0.9,0.9-1.2,1.4l1.4,1.2c0.3-0.5,0.7-1,1.2-1.4L258.7,76.5z M269.1,81.2c-0.1-0.6-0.2-1.1-0.5-1.6
		c-0.2-0.5-0.6-1-0.9-1.4c-0.4-0.4-0.8-0.8-1.3-1c-0.5-0.3-1-0.5-1.6-0.6l-0.2,4.5L269.1,81.2z"/>
	<path class="st1" d="M276.4,84.4c0.1,0.5,0.2,1,0.5,1.5l-1.6,0.8c-0.3-0.6-0.5-1.3-0.6-2c-0.1-0.7-0.1-1.4,0-2.2
		c0.1-0.7,0.3-1.4,0.6-2.1c0.3-0.6,0.7-1.2,1.2-1.7l1.3,1.2c-0.4,0.4-0.6,0.8-0.9,1.3c-0.2,0.5-0.4,1-0.5,1.6S276.3,83.9,276.4,84.4
		z M282.6,84.2l3.7,4l-1.3,1.2l-4.3-4.6l1.3-8.5c0.3,0,0.6,0,0.9,0.1c1,0.1,1.9,0.5,2.7,1c0.8,0.5,1.5,1.1,2.1,1.9
		c0.6,0.8,1,1.6,1.2,2.5c0.2,0.9,0.3,1.9,0.2,2.9l-1.8-0.3c0.1-0.7,0.1-1.3-0.1-2c-0.1-0.6-0.4-1.2-0.7-1.7c-0.3-0.5-0.8-1-1.3-1.4
		c-0.5-0.4-1.1-0.7-1.7-0.9L282.6,84.2z"/>
	<path class="st1" d="M298.7,94.4c-0.3,0-0.6-0.1-0.9-0.2s-0.6-0.2-0.9-0.3l1.6-6.1l-6.1-1.6c0-0.3,0.1-0.6,0.2-0.9
		c0.1-0.3,0.2-0.6,0.3-0.9l6.1,1.6l1.6-6.1c0.3,0,0.6,0.1,0.9,0.2c0.3,0.1,0.6,0.2,0.9,0.3L298.7,94.4z M306.4,89.9l-2.6-0.7
		l-1.2,4.6c-0.7,0.3-1.3,0.5-2,0.6l1.9-7.4l2.6,0.7c0.1-0.8,0-1.6-0.3-2.4c-0.3-0.8-0.7-1.4-1.3-2l0.5-2c0.5,0.4,1,0.8,1.4,1.3
		c0.4,0.5,0.7,1,1,1.6c0.3,0.6,0.4,1.2,0.5,1.8c0.1,0.7,0.1,1.3,0,2c0,0.3-0.1,0.6-0.2,0.9S306.5,89.6,306.4,89.9z"/>
	<path class="st1" d="M324.2,93.6c-0.1,0.5-0.2,1.1-0.4,1.6c-0.2,0.6-0.5,1.1-0.9,1.6c-0.3,0.5-0.8,1-1.3,1.4
		c-0.7,0.6-1.6,1.1-2.5,1.4c-0.9,0.3-1.9,0.4-2.9,0.3c-0.6,0-1.2-0.2-1.8-0.4c-1.4-0.5-2.5-1.3-3.3-2.5l2-0.5c0.6,0.6,1.2,1,2,1.3
		l1.3-3.4l4.8,1.8c0.4-0.5,0.7-1,0.9-1.6c0.1-0.1,0.1-0.3,0.1-0.5c0.2-0.6,0.2-1.3,0.2-1.9l0,0l0,0l-10.5,2.7l-1.8,0.5
		c-0.2-0.6-0.4-1.2-0.4-1.8l1.8-0.5l10.4-2.7c-0.6-1.4-1.6-2.3-3.1-2.9c-0.3-0.1-0.7-0.2-1.1-0.3l0.6,2.3l-1.8,0.4l-0.7-2.7
		l-0.4-1.8c0.6-0.1,1.2-0.2,1.8-0.1c0.8,0,1.5,0.2,2.2,0.4c1,0.4,1.8,0.9,2.6,1.6c0.7,0.7,1.3,1.5,1.6,2.5c0.2,0.6,0.4,1.2,0.5,1.8
		c0,0,0,0,0,0C324.3,92.4,324.3,93,324.2,93.6z M316.9,98.1c0.9,0,1.8-0.2,2.6-0.6l-2.1-0.8L316.9,98.1z"/>
	<path class="st1" d="M328.2,99c-0.1,0.5-0.1,1,0,1.6l-1.8,0.2c-0.1-0.7-0.1-1.4,0-2.1c0.1-0.7,0.3-1.4,0.7-2.1s0.7-1.3,1.2-1.8
		c0.5-0.5,1-0.9,1.7-1.3l0.9,1.6c-0.5,0.3-0.9,0.6-1.2,1c-0.4,0.4-0.7,0.8-0.9,1.3C328.5,98,328.3,98.5,328.2,99z M334.2,100.7
		l2.3,4.9l-1.7,0.8l-2.6-5.7l3.8-7.7c0.3,0.1,0.6,0.2,0.8,0.4c0.9,0.4,1.6,1,2.3,1.8c0.6,0.7,1.1,1.5,1.4,2.4
		c0.3,0.9,0.4,1.8,0.4,2.8c-0.1,1-0.3,1.9-0.8,2.8l-1.6-0.8c0.3-0.6,0.5-1.2,0.6-1.9c0.1-0.6,0-1.3-0.1-1.9
		c-0.2-0.6-0.4-1.2-0.8-1.7c-0.4-0.5-0.8-1-1.3-1.4L334.2,100.7z"/>
	<path class="st1" d="M356.1,112c-0.1,0.3-0.3,0.5-0.4,0.8c-0.2,0.3-0.3,0.5-0.5,0.7l-5.3-3.4l-3.4,5.3c-0.3-0.1-0.5-0.3-0.8-0.4
		s-0.5-0.3-0.7-0.5c-0.7-0.6-1.3-1.2-1.7-2c-0.4-0.8-0.7-1.6-0.8-2.4c-0.1-0.9-0.1-1.7,0-2.6c0.2-0.9,0.5-1.7,1-2.5l1.5,1
		c-0.4,0.6-0.6,1.2-0.7,1.8c-0.1,0.6-0.1,1.3-0.1,1.9c0.1,0.6,0.3,1.2,0.6,1.8c0.3,0.6,0.7,1.1,1.2,1.5l6.8-10.7
		c0.3,0.1,0.5,0.3,0.8,0.4c0.3,0.2,0.5,0.3,0.7,0.5c0.6,0.5,1.2,1.1,1.6,1.8c0.4,0.7,0.7,1.4,0.9,2.2c0.2,0.8,0.2,1.6,0.1,2.4
		C356.6,110.5,356.4,111.2,356.1,112z M347.9,101.8c-0.6,0.1-1.2,0.3-1.7,0.6l0.6,1.7c0.5-0.3,1.1-0.5,1.7-0.6L347.9,101.8z
		 M354.5,111c0.2-0.5,0.4-1.1,0.4-1.6c0-0.6,0-1.1-0.1-1.7c-0.1-0.5-0.3-1.1-0.6-1.6c-0.3-0.5-0.6-0.9-1.1-1.3l-2.4,3.8L354.5,111z"
		/>
	<path class="st1" d="M360.5,125.7c-0.3-0.2-0.5-0.3-0.8-0.5s-0.5-0.4-0.7-0.6l3.9-5l-5-3.9c0.2-0.3,0.3-0.5,0.5-0.7
		c0.2-0.2,0.4-0.5,0.6-0.7l5,3.9l3.9-5c0.3,0.2,0.5,0.3,0.7,0.5s0.5,0.4,0.7,0.6L360.5,125.7z M369.4,124.6l-2.1-1.7l-3,3.7
		c-0.7,0-1.4-0.1-2.1-0.3l4.8-6l2.1,1.7c0.4-0.7,0.6-1.5,0.7-2.3c0-0.8-0.1-1.6-0.4-2.3l1.3-1.6c0.3,0.6,0.6,1.2,0.7,1.8
		c0.2,0.6,0.2,1.3,0.2,1.9c0,0.6-0.1,1.3-0.3,1.9c-0.2,0.6-0.4,1.2-0.8,1.8c-0.2,0.3-0.3,0.5-0.5,0.8
		C369.8,124.2,369.6,124.4,369.4,124.6z"/>
	<path class="st1" d="M384.6,128.6c0.3,0.7,0.5,1.3,0.6,2.1c0.1,0.7,0.1,1.4-0.1,2.1c-0.1,0.7-0.3,1.4-0.7,2
		c-0.3,0.7-0.8,1.3-1.3,1.8c-0.7,0.7-1.5,1.2-2.4,1.6c-0.9,0.4-1.8,0.6-2.7,0.6c-1,0-1.9-0.2-2.8-0.5c-0.9-0.4-1.7-0.9-2.4-1.6
		c-0.7-0.7-1.2-1.5-1.6-2.4c-0.4-0.9-0.6-1.8-0.6-2.7s0.2-1.9,0.5-2.8c0.4-0.9,0.9-1.7,1.6-2.4c0.5-0.5,1.1-1,1.8-1.3
		c0.6-0.3,1.3-0.6,2-0.7c0.7-0.1,1.4-0.2,2.1-0.1c0.7,0.1,1.4,0.2,2.1,0.5l-1.4,1.4c-0.9-0.2-1.9-0.2-2.8,0c-1,0.3-1.8,0.7-2.5,1.5
		c-0.5,0.5-0.9,1.1-1.2,1.8c-0.3,0.7-0.4,1.3-0.4,2.1c0,0.7,0.1,1.4,0.4,2.1c0.3,0.7,0.7,1.3,1.2,1.8c0.5,0.5,1.1,0.9,1.8,1.2
		c0.7,0.3,1.3,0.4,2.1,0.4s1.4-0.1,2.1-0.4c0.7-0.3,1.3-0.7,1.8-1.2c0.7-0.7,1.2-1.5,1.4-2.5c0.2-0.9,0.2-1.9,0-2.8L384.6,128.6z
		 M382.4,128.3c-0.2-0.2-0.4-0.5-0.6-0.7c-0.2-0.2-0.5-0.4-0.7-0.6l1.3-1.3c0.2,0.2,0.5,0.4,0.7,0.6c0.2,0.2,0.4,0.4,0.6,0.7
		L382.4,128.3z"/>
	<path class="st1" d="M404.4,166c-0.7,0.3-1.4,0.6-2.1,0.7c-0.7,0.1-1.4,0.1-2.1,0c-0.7-0.1-1.4-0.3-2.1-0.6
		c-0.7-0.3-1.3-0.7-1.8-1.2l1.6-1.1c0.8,0.6,1.7,0.9,2.7,1.1c1,0.1,1.9,0,2.9-0.4l-3.5-5.2l5.2-3.5c-0.4-0.5-1-0.9-1.5-1.1
		c-0.6-0.3-1.2-0.5-1.8-0.5c-0.6-0.1-1.3,0-1.9,0.1c-0.6,0.2-1.2,0.4-1.8,0.8c-0.6,0.4-1.1,0.9-1.5,1.5c-0.4,0.6-0.7,1.2-0.8,1.9
		s-0.1,1.4,0,2.1c0.1,0.7,0.4,1.4,0.8,2l-1.5,1c-0.5-0.8-0.9-1.7-1.1-2.7c-0.2-0.9-0.2-1.9,0-2.8s0.5-1.8,1.1-2.6
		c0.5-0.8,1.2-1.5,2-2c0.8-0.5,1.6-0.9,2.5-1.1c0.9-0.2,1.7-0.2,2.6-0.1c0.9,0.1,1.7,0.4,2.4,0.8c0.8,0.4,1.5,1,2.1,1.7
		c0.2,0.2,0.4,0.5,0.5,0.7c0.2,0.3,0.3,0.5,0.5,0.8c0.6,1.2,0.8,2.4,0.7,3.8c0,0.6-0.2,1.3-0.4,1.9c-0.2,0.6-0.5,1.2-0.9,1.7
		l-1.1-1.7c0.4-0.7,0.5-1.5,0.6-2.3c0-0.8-0.1-1.6-0.5-2.4l-3.7,2.5l3.5,5.3c-0.2,0.2-0.5,0.4-0.7,0.6
		C404.9,165.7,404.7,165.8,404.4,166z"/>
	<path class="st1" d="M408.3,182.1c-1.9-0.6-3.4-1.8-4.3-3.6c-0.5-1-0.8-2-0.8-3.1c0-0.6,0-1.2,0.2-1.9l1.7,0.6l4.8,1.8l0.4-1.5
		l-4.7-1.7l-1.7-0.6c0.2-0.6,0.6-1.1,1-1.6l1.8,0.7l4,1.5l0.7-2.9l0.4-1.8c0.6,0.1,1.2,0.3,1.7,0.6l-0.5,1.8l-0.7,2.9l-0.5,1.8
		l-0.8,3.3l-6-2.2c0.1,0.5,0.3,1,0.5,1.5c0.7,1.3,1.8,2.2,3.2,2.7c1.4,0.4,2.8,0.3,4.2-0.4c1.1-0.6,1.9-1.4,2.4-2.6
		c0.5-1.1,0.6-2.3,0.3-3.5c-0.1-0.5-0.3-0.9-0.5-1.3l1.6-0.9c0.9,1.8,1.1,3.6,0.5,5.6c-0.6,1.9-1.8,3.4-3.6,4.3
		C412,182.5,410.2,182.7,408.3,182.1z"/>
	<path class="st1" d="M415.1,198.3c-1.9-0.8-3.1-2.1-3.9-4c-0.4-1-0.6-2.1-0.5-3.1c0-0.6,0.1-1.2,0.4-1.9l1.7,0.8l4.6,2.3l0.5-1.5
		l-4.5-2.2l-1.6-0.8c0.3-0.5,0.7-1,1.1-1.5l1.8,0.9l3.8,1.9l1-2.8l0.6-1.7c0.6,0.2,1.1,0.4,1.7,0.8l-0.6,1.8l-1,2.8l-0.6,1.7
		l-1.2,3.2l-5.8-2.9c0,0.5,0.2,1.1,0.4,1.6c0.6,1.4,1.5,2.4,2.9,3c1.4,0.6,2.8,0.6,4.2,0.1c1.2-0.5,2.1-1.2,2.7-2.3
		c0.6-1.1,0.9-2.2,0.7-3.5c-0.1-0.5-0.2-0.9-0.3-1.3l1.7-0.7c0.7,1.9,0.7,3.7-0.1,5.6c-0.8,1.9-2.1,3.1-4,3.9
		C418.8,199.1,417,199.1,415.1,198.3z"/>
	<path class="st1" d="M420.9,204.3c-0.4,0.3-0.8,0.6-1.2,1l-1.4-1.2c0.5-0.5,1-1,1.6-1.4c0.6-0.4,1.3-0.7,2-0.9
		c0.7-0.2,1.4-0.3,2.2-0.3c0.7,0,1.4,0.1,2.1,0.4l-0.6,1.7c-0.5-0.2-1-0.3-1.5-0.3c-0.6,0-1.1,0.1-1.6,0.2
		C421.8,203.7,421.3,204,420.9,204.3z M423.6,209.9l-2.1,5l-1.7-0.7l2.5-5.8l8.3-2.3c0.1,0.3,0.2,0.6,0.3,0.9
		c0.3,0.9,0.3,1.9,0.2,2.9c-0.1,0.9-0.4,1.8-0.9,2.7c-0.5,0.8-1.1,1.5-1.8,2.1c-0.8,0.6-1.6,1-2.6,1.3l-0.5-1.8
		c0.6-0.2,1.2-0.5,1.8-0.9c0.5-0.4,0.9-0.8,1.3-1.4c0.4-0.5,0.6-1.1,0.8-1.7c0.2-0.6,0.2-1.3,0.1-1.9L423.6,209.9z"/>
	<path class="st1" d="M428.3,229.3c0.6-0.1,1.1-0.4,1.5-0.8c0.4-0.4,0.7-0.9,0.7-1.4l-9.7,1.6c-0.1-0.3-0.2-0.6-0.2-0.9
		s-0.1-0.6-0.1-0.9l9.7-1.6c-0.3-0.5-0.7-0.9-1.2-1.1c-0.5-0.3-1.1-0.3-1.7-0.2l-0.3-1.8c0.5-0.1,1.1-0.1,1.6,0
		c0.5,0.1,1,0.3,1.4,0.5c0.5,0.3,0.8,0.6,1.2,1c0.3,0.4,0.6,0.8,0.8,1.3c0.1,0.3,0.2,0.6,0.2,0.9c0.1,0.3,0.1,0.6,0.1,0.9
		c0,0.5-0.1,1-0.3,1.5c-0.2,0.5-0.5,0.9-0.8,1.3c-0.3,0.4-0.7,0.7-1.2,1c-0.5,0.3-1,0.4-1.5,0.5L428.3,229.3z M428.7,232
		c0.7-0.1,1.4-0.4,2-0.8c0.6-0.4,1.1-0.9,1.5-1.5c0.4-0.6,0.7-1.2,0.9-1.9c0.2-0.7,0.2-1.4,0.1-2.2c-0.1-0.7-0.4-1.4-0.8-2
		c-0.4-0.6-0.9-1.1-1.5-1.5c-0.6-0.4-1.2-0.7-1.9-0.9c-0.7-0.2-1.4-0.2-2.2-0.1l-0.3-1.8c1-0.2,1.9-0.1,2.9,0.1
		c0.9,0.2,1.8,0.6,2.6,1.2c0.8,0.6,1.4,1.2,1.9,2c0.5,0.8,0.9,1.7,1,2.7s0.1,1.9-0.1,2.9c-0.2,0.9-0.6,1.8-1.2,2.6
		c-0.6,0.8-1.2,1.4-2,1.9c-0.8,0.5-1.7,0.9-2.7,1L428.7,232z"/>
	<path class="st1" d="M424.8,246.7c-0.2-0.1-0.4-0.2-0.6-0.3c-0.2-0.2-0.3-0.3-0.4-0.6c-0.1-0.2-0.2-0.4-0.2-0.7
		c0-0.2,0-0.5,0.1-0.7c0.1-0.2,0.2-0.4,0.4-0.6c0.2-0.2,0.3-0.3,0.5-0.4c0.2-0.1,0.5-0.2,0.7-0.2c0.2,0,0.5,0,0.7,0.1
		c0.2,0.1,0.4,0.2,0.6,0.3c0.2,0.2,0.3,0.3,0.4,0.6c0.1,0.2,0.2,0.4,0.2,0.7c0,0.2,0,0.5-0.1,0.7c-0.1,0.2-0.2,0.4-0.4,0.6
		c-0.2,0.2-0.3,0.3-0.5,0.4c-0.2,0.1-0.5,0.2-0.7,0.2C425.3,246.8,425,246.8,424.8,246.7z"/>
	<path class="st1" d="M430.8,270.1c-0.3,0-0.6,0-0.9,0c-0.3,0-0.6,0-0.9-0.1l0.2-6.3l-6.3-0.2c0-0.3,0-0.6,0-0.9
		c0-0.3,0-0.6,0.1-0.9c0.1-0.9,0.4-1.7,0.9-2.5c0.4-0.7,1-1.4,1.7-2c0.7-0.6,1.4-1,2.3-1.3c0.9-0.3,1.7-0.4,2.7-0.4l-0.1,1.8
		c-0.7,0-1.3,0.1-1.9,0.3c-0.6,0.2-1.2,0.5-1.7,0.9c-0.5,0.4-0.9,0.9-1.3,1.4c-0.3,0.5-0.6,1.1-0.7,1.8l12.6,0.5c0,0.3,0,0.6,0,0.9
		c0,0.3,0,0.6-0.1,0.9c-0.1,0.8-0.4,1.6-0.8,2.3c-0.4,0.7-0.9,1.3-1.4,1.9c-0.6,0.5-1.3,1-2,1.3
		C432.4,269.9,431.6,270.1,430.8,270.1z M430.9,268.3c0.6-0.1,1.1-0.2,1.6-0.5c0.5-0.2,1-0.6,1.4-0.9c0.4-0.4,0.8-0.8,1-1.3
		c0.3-0.5,0.5-1,0.6-1.6l-4.5-0.2L430.9,268.3z M435.5,257.9c-0.4-0.5-0.9-0.8-1.4-1.2l-1.2,1.4c0.5,0.3,1,0.7,1.4,1.2L435.5,257.9z
		"/>
	<path class="st1" d="M427.9,281.9l-3.9,3.7l-1.3-1.3l4.6-4.3l8.5,1.2c0,0.3,0,0.6-0.1,0.9c-0.1,1-0.5,1.9-1,2.7
		c-0.5,0.8-1.1,1.5-1.9,2.1c-0.8,0.6-1.6,1-2.5,1.2c-0.9,0.2-1.9,0.3-2.9,0.2l0.3-1.8c0.7,0.1,1.3,0.1,2-0.1
		c0.6-0.1,1.2-0.4,1.7-0.7c0.5-0.3,1-0.8,1.4-1.3c0.4-0.5,0.7-1.1,0.9-1.7L427.9,281.9z M427.7,275.6c-0.5,0.1-1,0.2-1.5,0.5
		l-0.8-1.6c0.6-0.3,1.3-0.5,2-0.6c0.7-0.1,1.4-0.1,2.2,0s1.4,0.3,2.1,0.6c0.6,0.3,1.2,0.7,1.7,1.2l-1.2,1.4
		c-0.4-0.4-0.8-0.6-1.3-0.9c-0.5-0.2-1-0.4-1.6-0.5S428.2,275.5,427.7,275.6z"/>
	<path class="st1" d="M417.7,298c0-0.3,0.1-0.6,0.2-0.9c0.1-0.3,0.2-0.6,0.3-0.9l6.1,1.6l1.6-6.1c0.3,0,0.6,0.1,0.9,0.2
		c0.3,0.1,0.6,0.2,0.9,0.3l-1.6,6.1l6.1,1.5c0,0.3-0.1,0.6-0.2,0.9c-0.1,0.3-0.2,0.6-0.3,0.9L417.7,298z M422.3,305.7l0.7-2.6
		l-4.6-1.2c-0.3-0.7-0.5-1.3-0.6-2l7.4,1.9l-0.7,2.6c0.8,0.1,1.6-0.1,2.4-0.3c0.8-0.3,1.4-0.7,2-1.3l2,0.5c-0.4,0.5-0.8,1-1.3,1.4
		c-0.5,0.4-1,0.7-1.6,1c-0.6,0.3-1.2,0.4-1.8,0.5c-0.7,0.1-1.3,0.1-2,0c-0.3,0-0.6-0.1-0.9-0.2S422.6,305.8,422.3,305.7z"/>
	<path class="st1" d="M418.7,323.5c-0.5-0.1-1.1-0.2-1.6-0.4c-0.6-0.2-1.2-0.5-1.6-0.9c-0.5-0.3-1-0.8-1.5-1.3
		c-0.6-0.7-1.1-1.6-1.4-2.5c-0.3-0.9-0.4-1.9-0.3-2.9c0-0.6,0.2-1.2,0.4-1.8c0.5-1.4,1.3-2.5,2.5-3.3l0.5,1.9c-0.6,0.6-1,1.2-1.3,2
		l3.4,1.3l-1.8,4.8c0.5,0.4,1,0.7,1.6,0.9c0.2,0.1,0.3,0.1,0.5,0.1c0.6,0.2,1.3,0.2,1.9,0.2l0,0l0,0l-2.7-10.4l-0.5-1.8
		c0.6-0.2,1.2-0.4,1.8-0.5l0.5,1.8l2.7,10.4c1.4-0.6,2.3-1.7,2.8-3.1c0.1-0.3,0.2-0.7,0.3-1.1l-2.3,0.6l-0.4-1.8l2.7-0.7l1.8-0.5
		c0.1,0.6,0.2,1.2,0.2,1.8c0,0.8-0.2,1.5-0.4,2.2c-0.4,1-0.9,1.8-1.6,2.6c-0.7,0.7-1.5,1.3-2.4,1.6c-0.6,0.2-1.2,0.4-1.8,0.5
		c0,0,0,0,0,0C419.9,323.6,419.3,323.5,418.7,323.5z M414.1,316.2c0,0.9,0.2,1.8,0.6,2.6l0.8-2.1L414.1,316.2z"/>
	<path class="st1" d="M411.6,333.6l-4.9,2.3l-0.8-1.6l5.7-2.7l7.7,3.8c-0.1,0.3-0.2,0.6-0.4,0.8c-0.4,0.9-1,1.6-1.8,2.3
		c-0.7,0.6-1.5,1.1-2.4,1.4c-0.9,0.3-1.8,0.4-2.8,0.4c-1-0.1-1.9-0.3-2.8-0.7l0.8-1.6c0.6,0.3,1.2,0.5,1.9,0.5
		c0.6,0.1,1.3,0,1.9-0.2c0.6-0.2,1.2-0.4,1.7-0.8c0.5-0.4,1-0.8,1.4-1.3L411.6,333.6z M413.3,327.6c-0.5-0.1-1-0.1-1.6,0l-0.2-1.8
		c0.7-0.1,1.4-0.1,2.1,0c0.7,0.1,1.4,0.3,2.1,0.7s1.3,0.7,1.8,1.2c0.5,0.5,0.9,1,1.3,1.7l-1.6,0.9c-0.3-0.5-0.6-0.9-1-1.2
		c-0.4-0.4-0.9-0.7-1.3-0.9C414.3,327.8,413.8,327.6,413.3,327.6z"/>
	<path class="st1" d="M400.5,355.4c-0.3-0.1-0.5-0.3-0.8-0.4c-0.3-0.2-0.5-0.3-0.7-0.5l3.4-5.3l-5.4-3.4c0.1-0.3,0.3-0.5,0.4-0.8
		s0.3-0.5,0.5-0.7c0.6-0.7,1.2-1.3,2-1.7c0.8-0.4,1.6-0.7,2.4-0.9c0.9-0.1,1.7-0.1,2.6,0c0.9,0.2,1.7,0.5,2.5,1l-1,1.5
		c-0.6-0.4-1.2-0.6-1.8-0.7c-0.6-0.1-1.3-0.1-1.9,0c-0.6,0.1-1.2,0.3-1.8,0.6c-0.6,0.3-1.1,0.7-1.5,1.2l10.7,6.7
		c-0.1,0.3-0.3,0.5-0.4,0.8c-0.2,0.3-0.3,0.5-0.5,0.7c-0.5,0.6-1.1,1.2-1.8,1.6c-0.7,0.4-1.4,0.7-2.2,0.9c-0.8,0.2-1.6,0.2-2.4,0.1
		C402,356,401.2,355.8,400.5,355.4z M401.4,353.9c0.5,0.2,1.1,0.4,1.6,0.4c0.6,0,1.1,0,1.7-0.1s1.1-0.3,1.6-0.6
		c0.5-0.3,0.9-0.6,1.3-1.1l-3.8-2.4L401.4,353.9z M410.6,347.2c-0.1-0.6-0.3-1.2-0.6-1.7l-1.7,0.6c0.3,0.5,0.5,1.1,0.6,1.7
		L410.6,347.2z"/>
	<path class="st1" d="M387.9,368.8l1.7-2.1l-3.8-3c0-0.7,0.1-1.4,0.3-2.1l6,4.7l-1.6,2.1c0.7,0.4,1.5,0.6,2.3,0.7
		c0.8,0,1.6-0.1,2.3-0.4l1.6,1.3c-0.6,0.3-1.2,0.6-1.8,0.7c-0.6,0.2-1.3,0.2-1.9,0.2c-0.6,0-1.3-0.1-1.9-0.3
		c-0.6-0.2-1.2-0.4-1.8-0.8c-0.3-0.2-0.5-0.3-0.8-0.5C388.3,369.2,388.1,369,387.9,368.8z M386.8,359.9c0.2-0.3,0.3-0.5,0.5-0.8
		c0.2-0.2,0.4-0.5,0.6-0.7l5,3.9l3.9-5c0.3,0.2,0.5,0.3,0.7,0.5c0.2,0.2,0.5,0.4,0.7,0.6l-3.9,5l5,3.9c-0.2,0.3-0.3,0.5-0.5,0.7
		c-0.2,0.2-0.4,0.5-0.6,0.7L386.8,359.9z"/>
	<path class="st1" d="M384,384.1c-0.7,0.3-1.3,0.5-2.1,0.6c-0.7,0.1-1.4,0.1-2.1-0.1c-0.7-0.1-1.4-0.3-2-0.7
		c-0.7-0.3-1.3-0.8-1.8-1.3c-0.7-0.7-1.3-1.5-1.6-2.4c-0.4-0.9-0.6-1.8-0.6-2.7c0-1,0.2-1.9,0.5-2.8c0.4-0.9,0.9-1.7,1.6-2.4
		c0.7-0.7,1.5-1.3,2.4-1.6c0.9-0.4,1.8-0.6,2.7-0.6c1,0,1.9,0.2,2.8,0.5c0.9,0.4,1.7,0.9,2.4,1.6c0.5,0.5,1,1.1,1.3,1.8
		c0.3,0.6,0.6,1.3,0.7,2c0.1,0.7,0.2,1.4,0.1,2.1c-0.1,0.7-0.2,1.4-0.5,2.1l-1.5-1.4c0.2-0.9,0.2-1.9,0-2.8c-0.3-1-0.8-1.8-1.5-2.5
		c-0.5-0.5-1.1-0.9-1.8-1.2c-0.7-0.3-1.4-0.4-2.1-0.4s-1.4,0.2-2.1,0.4c-0.7,0.3-1.3,0.7-1.8,1.2s-0.9,1.1-1.2,1.8
		c-0.3,0.7-0.4,1.4-0.4,2.1c0,0.7,0.2,1.4,0.4,2.1c0.3,0.7,0.7,1.3,1.2,1.8c0.7,0.7,1.5,1.2,2.5,1.4c0.9,0.2,1.9,0.2,2.8,0
		L384,384.1z M384.3,381.8c0.2-0.2,0.5-0.4,0.7-0.6s0.4-0.5,0.6-0.7l1.3,1.3c-0.2,0.2-0.4,0.5-0.6,0.7c-0.2,0.2-0.4,0.4-0.7,0.6
		L384.3,381.8z"/>
	<path class="st1" d="M346.7,404c-0.3-0.7-0.6-1.4-0.7-2.1c-0.1-0.7-0.1-1.4,0-2.1c0.1-0.7,0.3-1.4,0.6-2.1c0.3-0.7,0.7-1.3,1.2-1.8
		l1.1,1.6c-0.6,0.8-0.9,1.7-1,2.7c-0.1,1,0,1.9,0.5,2.9l5.2-3.5l3.5,5.2c0.5-0.4,0.8-1,1.1-1.5c0.3-0.6,0.5-1.2,0.5-1.8
		c0.1-0.6,0-1.3-0.1-1.9c-0.2-0.6-0.4-1.2-0.8-1.8c-0.4-0.6-0.9-1.1-1.5-1.5c-0.6-0.4-1.2-0.6-1.9-0.8c-0.7-0.1-1.4-0.1-2.1,0
		c-0.7,0.1-1.4,0.4-2,0.8l-1-1.5c0.8-0.6,1.7-0.9,2.7-1.1c0.9-0.2,1.9-0.2,2.8,0c0.9,0.2,1.8,0.5,2.6,1.1c0.8,0.5,1.5,1.2,2.1,2
		c0.5,0.8,0.9,1.6,1.1,2.5c0.2,0.9,0.2,1.7,0.1,2.6c-0.1,0.9-0.4,1.7-0.8,2.5c-0.4,0.8-1,1.5-1.6,2.1c-0.2,0.2-0.5,0.4-0.7,0.5
		c-0.3,0.2-0.5,0.3-0.8,0.5c-1.2,0.6-2.4,0.8-3.8,0.8c-0.6,0-1.3-0.2-1.9-0.4c-0.6-0.2-1.2-0.5-1.7-0.9l1.7-1.1
		c0.7,0.3,1.5,0.5,2.3,0.5c0.8,0,1.6-0.1,2.4-0.5l-2.5-3.7l-5.2,3.5c-0.2-0.2-0.4-0.5-0.6-0.7C347,404.5,346.8,404.3,346.7,404z"/>
	<path class="st1" d="M330.6,407.9c0.6-1.9,1.8-3.4,3.6-4.3c1-0.5,2-0.8,3.1-0.8c0.6,0,1.2,0,1.9,0.2l-0.6,1.7l-1.7,4.8l1.5,0.4
		l1.7-4.7l0.6-1.7c0.6,0.2,1.1,0.6,1.6,1l-0.7,1.8l-1.5,4l2.9,0.7l1.8,0.4c-0.1,0.6-0.3,1.2-0.6,1.7l-1.8-0.5l-2.9-0.7l-1.8-0.4
		l-3.3-0.8l2.2-6.1c-0.5,0.1-1,0.3-1.5,0.5c-1.3,0.7-2.2,1.8-2.7,3.2s-0.3,2.8,0.4,4.2c0.6,1.1,1.5,1.9,2.6,2.4
		c1.1,0.5,2.3,0.6,3.5,0.3c0.5-0.1,0.9-0.3,1.3-0.5l0.9,1.6c-1.8,0.9-3.6,1.1-5.6,0.5c-1.9-0.6-3.4-1.8-4.3-3.6
		C330.2,411.7,330,409.9,330.6,407.9z"/>
	<path class="st1" d="M314.4,414.9c0.8-1.9,2.1-3.2,4-3.9c1-0.4,2.1-0.6,3.1-0.5c0.6,0,1.2,0.1,1.9,0.4l-0.8,1.7l-2.2,4.6l1.5,0.5
		l2.2-4.5l0.8-1.6c0.5,0.3,1,0.7,1.5,1.1l-0.9,1.8l-1.9,3.9l2.8,1l1.7,0.6c-0.2,0.6-0.4,1.2-0.8,1.7l-1.8-0.6l-2.8-1l-1.7-0.6
		l-3.2-1.2l2.8-5.8c-0.5,0-1.1,0.2-1.6,0.4c-1.4,0.6-2.4,1.5-3,2.9s-0.6,2.8,0,4.2c0.5,1.2,1.2,2.1,2.3,2.7c1.1,0.6,2.2,0.8,3.5,0.7
		c0.5-0.1,0.9-0.2,1.3-0.4l0.7,1.7c-1.9,0.8-3.7,0.7-5.6-0.1c-1.9-0.8-3.2-2.1-3.9-4C313.6,418.6,313.6,416.7,314.4,414.9z"/>
	<path class="st1" d="M302.9,423.4l-5-2.1l0.7-1.7l5.8,2.4l2.4,8.3c-0.3,0.1-0.6,0.2-0.9,0.3c-0.9,0.3-1.9,0.3-2.9,0.2
		c-0.9-0.1-1.8-0.4-2.7-0.9c-0.8-0.5-1.5-1.1-2.1-1.8c-0.6-0.8-1.1-1.6-1.3-2.6l1.8-0.5c0.2,0.6,0.5,1.2,0.9,1.8
		c0.4,0.5,0.8,0.9,1.4,1.3c0.5,0.3,1.1,0.6,1.7,0.8c0.6,0.2,1.3,0.2,1.9,0.1L302.9,423.4z M308.5,420.6c-0.3-0.4-0.6-0.8-1-1.2
		l1.2-1.4c0.5,0.5,1,1,1.4,1.6c0.4,0.6,0.7,1.3,0.9,2s0.3,1.4,0.3,2.2c0,0.7-0.1,1.4-0.4,2.1l-1.7-0.6c0.2-0.5,0.2-1,0.3-1.5
		c0-0.6-0.1-1.1-0.2-1.6C309,421.6,308.8,421.1,308.5,420.6z"/>
	<path class="st1" d="M280.8,428.6c0.1,0.7,0.4,1.4,0.8,2c0.4,0.6,0.9,1.1,1.5,1.5c0.6,0.4,1.2,0.7,1.9,0.9c0.7,0.2,1.4,0.2,2.2,0.1
		c0.7-0.1,1.4-0.4,2-0.8c0.6-0.4,1.1-0.9,1.5-1.5c0.4-0.6,0.7-1.2,0.9-1.9c0.2-0.7,0.2-1.4,0.1-2.2l1.8-0.3c0.2,1,0.1,1.9-0.1,2.9
		c-0.2,0.9-0.6,1.8-1.1,2.6s-1.2,1.4-2,1.9c-0.8,0.5-1.7,0.9-2.7,1.1c-1,0.2-1.9,0.1-2.9-0.1c-0.9-0.2-1.8-0.6-2.6-1.1
		s-1.4-1.2-1.9-2c-0.5-0.8-0.9-1.7-1.1-2.7L280.8,428.6z M283.5,428.2c0.1,0.6,0.4,1.1,0.8,1.5c0.4,0.4,0.9,0.6,1.5,0.7l-1.7-9.7
		c0.3-0.1,0.6-0.2,0.9-0.2c0.3-0.1,0.6-0.1,0.9-0.1l1.7,9.7c0.5-0.3,0.9-0.7,1.1-1.2c0.3-0.5,0.3-1.1,0.2-1.7l1.8-0.3
		c0.1,0.5,0.1,1.1,0,1.6c-0.1,0.5-0.3,1-0.5,1.4c-0.3,0.5-0.6,0.8-1,1.2c-0.4,0.4-0.8,0.6-1.3,0.8c-0.3,0.1-0.6,0.2-0.9,0.2
		c-0.3,0.1-0.6,0.1-0.9,0.1c-0.5,0-1-0.1-1.5-0.3c-0.5-0.2-0.9-0.4-1.3-0.8c-0.4-0.3-0.7-0.7-1-1.2c-0.3-0.5-0.5-1-0.5-1.5
		L283.5,428.2z"/>
	<path class="st1" d="M266.1,424.7c0.1-0.2,0.2-0.4,0.3-0.6c0.2-0.2,0.3-0.3,0.6-0.4c0.2-0.1,0.4-0.2,0.7-0.2c0.2,0,0.5,0,0.7,0.1
		c0.2,0.1,0.4,0.2,0.6,0.4c0.2,0.2,0.3,0.3,0.4,0.5c0.1,0.2,0.2,0.5,0.2,0.7c0,0.2,0,0.5-0.1,0.7c-0.1,0.2-0.2,0.4-0.3,0.6
		c-0.2,0.2-0.3,0.3-0.6,0.4c-0.2,0.1-0.4,0.2-0.7,0.2c-0.2,0-0.5,0-0.7-0.1c-0.2-0.1-0.4-0.2-0.6-0.4c-0.2-0.2-0.3-0.3-0.4-0.5
		c-0.1-0.2-0.2-0.5-0.2-0.7C265.9,425.2,266,425,266.1,424.7z"/>
</g>
<g>
</g>
<g>
</g>
<g>
</g>
<g>
</g>
<g>
</g>
<g>
</g>
<g>
</g>
<g>
</g>
<g>
</g>
<g>
</g>
<g>
</g>
<g>
</g>
<g>
</g>
<g>
</g>
<g>
</g>
</svg>
