<?xml version="1.0" encoding="utf-8"?>
<!-- Generator: Adobe Illustrator 22.0.1, SVG Export Plug-In . SVG Version: 6.00 Build 0)  -->
<svg version="1.1" id="Layer_1" xmlns="http://www.w3.org/2000/svg" xmlns:xlink="http://www.w3.org/1999/xlink" x="0px" y="0px"
	 viewBox="0 0 512 512" style="enable-background:new 0 0 512 512;" xml:space="preserve">
<style type="text/css">
	.st0{fill:none;}
	.st1{fill:#8C1414;}
</style>
<g>
	<circle class="st0" cx="256" cy="256" r="208"/>
	<path class="st1" d="M241.1,459.2c0.4-0.8,0.9-1.6,1.5-2.2l1.2,1.3c-0.5,0.5-0.8,1-1.1,1.6c-0.3,0.6-0.4,1.3-0.5,2
		c0,1,0.2,1.9,0.6,2.8l3.8,0.2l0.2-4.2l1.1-0.6l3.6-1.8c-0.5-0.5-1-0.9-1.6-1.1c-0.6-0.3-1.3-0.4-2-0.5l0.1-1.8c1,0,2,0.3,3,0.8
		c0.9,0.4,1.7,1,2.3,1.8c0.4,0.5,0.7,1,1,1.5l-1.6,0.8l-4,2l-0.2,4.9l-3.9-0.2c0.4,0.3,0.9,0.5,1.4,0.7c0.5,0.2,1,0.3,1.6,0.3
		c0.7,0,1.5-0.1,2.1-0.3c0.7-0.3,1.3-0.6,1.8-1.1c0.5-0.5,0.9-1.1,1.2-1.7c0.3-0.7,0.5-1.4,0.5-2.1l1.8,0.1c0,1-0.3,1.9-0.7,2.8
		c-0.4,0.9-1,1.6-1.7,2.3c-0.7,0.6-1.5,1.1-2.4,1.5c-0.9,0.3-1.9,0.5-2.9,0.5c-1.1,0-2.2-0.3-3.2-0.9c-1-0.5-1.8-1.2-2.4-2.1
		c-0.4-0.6-0.8-1.2-1-1.9c-0.3-0.9-0.5-1.8-0.4-2.8C240.5,460.9,240.7,460,241.1,459.2z"/>
	<path class="st1" d="M229.9,460.2l-3.8-3.9l1.3-1.3l4.4,4.5l-1,8.5c-0.3,0-0.6,0-0.9-0.1c-1-0.1-1.9-0.4-2.7-0.9
		c-0.8-0.5-1.5-1.1-2.1-1.8s-1-1.6-1.3-2.5c-0.3-0.9-0.3-1.9-0.2-2.9l1.8,0.2c-0.1,0.7,0,1.3,0.1,2c0.2,0.6,0.4,1.2,0.8,1.7
		c0.3,0.5,0.8,1,1.3,1.4c0.5,0.4,1.1,0.7,1.7,0.9L229.9,460.2z M236.1,459.8c-0.1-0.5-0.3-1-0.5-1.5l1.6-0.8c0.3,0.6,0.5,1.3,0.7,2
		c0.1,0.7,0.1,1.4,0.1,2.2c-0.1,0.7-0.3,1.4-0.6,2.1c-0.3,0.6-0.7,1.2-1.1,1.8l-1.4-1.2c0.3-0.4,0.6-0.8,0.8-1.3
		c0.2-0.5,0.4-1,0.4-1.6C236.2,460.9,236.2,460.3,236.1,459.8z"/>
	<path class="st1" d="M209.9,451.9c1.7-1.1,3.5-1.5,5.5-1c1.1,0.2,2,0.7,2.9,1.3c0.5,0.4,0.9,0.8,1.4,1.3l-1.6,0.9l-4.4,2.6l0.9,1.3
		l4.3-2.5l1.6-0.9c0.3,0.5,0.5,1.1,0.6,1.8l-1.7,1l-3.7,2.2l1.8,2.4l1.1,1.5c-0.5,0.4-1,0.7-1.6,1l-1.1-1.5l-1.8-2.4l-1.1-1.5
		l-2-2.7l5.6-3.3c-0.5-0.3-1-0.5-1.5-0.6c-1.5-0.3-2.9,0-4.1,0.8c-1.3,0.8-2,2-2.4,3.5c-0.3,1.2-0.1,2.4,0.5,3.5
		c0.6,1.1,1.4,1.9,2.5,2.5c0.4,0.2,0.9,0.3,1.3,0.4l-0.4,1.8c-2-0.4-3.5-1.5-4.6-3.1c-1.1-1.7-1.5-3.5-1-5.5
		C207.2,454.6,208.3,453,209.9,451.9z"/>
	<path class="st1" d="M194,447.5c1.8-1,3.6-1.1,5.5-0.6c1.9,0.6,3.4,1.7,4.3,3.5c1,1.8,1.2,3.6,0.6,5.5l0,0l-1.7-0.5l0,0
		c0.4-1.4,0.3-2.8-0.4-4.2c-0.7-1.3-1.8-2.2-3.3-2.6s-2.8-0.3-4.2,0.4s-2.2,1.8-2.6,3.2c-0.4,1.5-0.3,2.8,0.4,4.2
		c0.7,1.3,1.8,2.2,3.3,2.6c1.1,0.3,2.2,0.3,3.3-0.1l-2.7-5.1l-0.9,3.1l-1.8-0.5l1.5-5.2l1.7-0.2l3.8,7l0.9,1.6
		c-0.5,0.4-1,0.6-1.6,0.9c-1.5,0.6-3.1,0.7-4.7,0.2c-1.9-0.6-3.4-1.7-4.3-3.5s-1.2-3.6-0.6-5.5C191.1,449.9,192.2,448.4,194,447.5z"
		/>
	<path class="st1" d="M174.9,444.9c0.4-0.7,0.8-1.2,1.3-1.8c0.5-0.5,1.1-0.9,1.7-1.2c0.6-0.3,1.3-0.6,2-0.7c0.7-0.1,1.4-0.2,2.2-0.1
		l-0.7,1.8c-1,0-1.9,0.2-2.8,0.7c-0.9,0.5-1.6,1.1-2.1,2l5.9,2.3l-2.3,5.9c0.6,0.1,1.3,0.1,1.9,0c0.6-0.1,1.2-0.3,1.8-0.6
		c0.6-0.3,1.1-0.7,1.5-1.2c0.4-0.5,0.8-1.1,1-1.7c0.3-0.7,0.4-1.4,0.4-2.1c0-0.7-0.2-1.4-0.5-2c-0.3-0.7-0.7-1.2-1.2-1.7
		c-0.5-0.5-1.1-0.9-1.8-1.2l0.7-1.7c0.9,0.4,1.7,0.9,2.4,1.6c0.7,0.7,1.2,1.4,1.6,2.3s0.6,1.8,0.6,2.7c0,1-0.1,1.9-0.5,2.8
		c-0.3,0.8-0.8,1.6-1.4,2.3c-0.6,0.6-1.3,1.2-2.1,1.6c-0.8,0.4-1.6,0.6-2.5,0.8c-0.9,0.1-1.8,0.1-2.6-0.2c-0.3-0.1-0.6-0.2-0.9-0.3
		c-0.3-0.1-0.6-0.2-0.8-0.4c-1.2-0.6-2.1-1.5-2.8-2.7c-0.3-0.6-0.6-1.1-0.8-1.7c-0.2-0.6-0.3-1.3-0.3-1.9l1.9,0.7
		c0.1,0.8,0.4,1.5,0.9,2.2c0.5,0.7,1,1.2,1.7,1.7l1.6-4.2l-5.9-2.3c0.1-0.3,0.2-0.6,0.3-0.9C174.7,445.5,174.8,445.2,174.9,444.9z"
		/>
	<path class="st1" d="M159.7,437.6l5.7,2.8l2.8-5.7c0.3,0.1,0.6,0.2,0.8,0.4c0.3,0.1,0.5,0.3,0.8,0.4l-3.6,7.3l-5.7-2.8
		c-0.2,0.6-0.2,1.2-0.2,1.9c0,0.6,0.2,1.2,0.4,1.8c0.3,0.6,0.6,1.1,1,1.6c0.5,0.5,1,0.9,1.6,1.2l-0.8,1.6c-0.8-0.4-1.5-0.9-2.2-1.6
		c-0.6-0.6-1.1-1.4-1.4-2.2c-0.3-0.8-0.5-1.6-0.5-2.5c0-0.9,0.1-1.8,0.4-2.6c0.1-0.3,0.2-0.6,0.4-0.8
		C159.4,438.1,159.5,437.8,159.7,437.6z M171.2,436.7c0.5,0.5,0.9,1.1,1.2,1.8c0.3,0.6,0.5,1.3,0.6,2c0.1,0.7,0.1,1.4,0,2.1
		c-0.1,0.7-0.3,1.4-0.7,2.1l-1.6-0.8c0.4-0.9,0.6-1.8,0.5-2.8c-0.1-1-0.4-1.8-0.9-2.6L171.2,436.7z"/>
	<path class="st1" d="M150.2,432.6l-1.9-5.1l1.7-0.6l2.2,5.9l-4.4,7.4c-0.3-0.1-0.5-0.3-0.8-0.4c-0.8-0.5-1.6-1.2-2.1-1.9
		c-0.6-0.8-1-1.6-1.2-2.5c-0.2-0.9-0.3-1.9-0.2-2.8c0.1-1,0.5-1.9,1-2.7l1.6,0.9c-0.3,0.6-0.6,1.2-0.7,1.8c-0.1,0.6-0.1,1.3,0,1.9
		c0.1,0.6,0.3,1.2,0.6,1.8c0.3,0.6,0.7,1.1,1.2,1.5L150.2,432.6z M156.1,434.8c0.1-0.5,0.2-1,0.1-1.6l1.8-0.1c0,0.7,0,1.4-0.2,2.1
		c-0.2,0.7-0.4,1.4-0.8,2s-0.8,1.2-1.4,1.7c-0.5,0.5-1.1,0.9-1.7,1.2l-0.8-1.6c0.5-0.2,0.9-0.5,1.3-0.9c0.4-0.4,0.8-0.8,1-1.3
		C155.8,435.8,156,435.3,156.1,434.8z"/>
	<path class="st1" d="M117,409.8c0.2-0.3,0.4-0.5,0.6-0.7c0.2-0.2,0.4-0.5,0.6-0.7l4.8,4.1l4.1-4.8c0.3,0.2,0.5,0.4,0.7,0.6
		c0.2,0.2,0.5,0.4,0.7,0.6c0.6,0.7,1.1,1.4,1.4,2.2c0.3,0.8,0.5,1.6,0.5,2.5c0,0.9-0.1,1.7-0.4,2.6c-0.3,0.9-0.7,1.6-1.3,2.3
		l-1.4-1.2c0.4-0.5,0.8-1.1,1-1.7c0.2-0.6,0.3-1.2,0.3-1.9c0-0.6-0.1-1.2-0.3-1.8c-0.2-0.6-0.5-1.2-1-1.7l-8.1,9.7
		c-0.3-0.2-0.5-0.3-0.7-0.5c-0.2-0.2-0.5-0.4-0.7-0.6c-0.6-0.6-1-1.3-1.3-2c-0.3-0.7-0.5-1.5-0.6-2.3c-0.1-0.8,0-1.6,0.2-2.4
		C116.2,411.2,116.5,410.5,117,409.8z M118.4,411c-0.3,0.5-0.5,1-0.6,1.6c-0.1,0.6-0.2,1.1-0.1,1.7s0.2,1.1,0.4,1.6
		c0.2,0.5,0.5,1,0.9,1.4l2.9-3.4L118.4,411z M123.7,421c0.6,0,1.2-0.2,1.8-0.4l-0.4-1.8c-0.6,0.2-1.2,0.4-1.8,0.4L123.7,421z"/>
	<path class="st1" d="M106,396.5c0.6-0.5,1.2-0.8,1.9-1.1c0.7-0.2,1.4-0.4,2.1-0.4c0.7,0,1.4,0,2.1,0.2c0.7,0.2,1.4,0.4,2,0.8
		l-1.3,1.4c-0.9-0.4-1.8-0.6-2.8-0.5c-1,0.1-1.9,0.4-2.7,1l4.5,4.4l-4.4,4.5c0.5,0.4,1.1,0.6,1.7,0.8c0.6,0.2,1.2,0.2,1.9,0.2
		c0.6-0.1,1.3-0.2,1.8-0.5c0.6-0.3,1.1-0.7,1.6-1.1c0.5-0.5,0.9-1.1,1.2-1.8c0.3-0.7,0.4-1.3,0.4-2.1c0-0.7-0.1-1.4-0.4-2.1
		c-0.3-0.7-0.7-1.3-1.2-1.8l1.3-1.3c0.7,0.7,1.2,1.5,1.6,2.4c0.4,0.9,0.5,1.8,0.5,2.7c0,1-0.2,1.9-0.5,2.7c-0.4,0.9-0.9,1.7-1.6,2.4
		c-0.6,0.6-1.4,1.2-2.2,1.5c-0.8,0.4-1.6,0.6-2.5,0.6c-0.9,0.1-1.7,0-2.6-0.3c-0.9-0.3-1.6-0.7-2.4-1.2c-0.2-0.2-0.5-0.4-0.7-0.6
		c-0.2-0.2-0.4-0.4-0.6-0.7c-0.8-1-1.3-2.2-1.5-3.6c-0.1-0.6-0.1-1.3,0-1.9c0.1-0.6,0.3-1.3,0.5-1.9l1.4,1.4
		c-0.2,0.8-0.2,1.6-0.1,2.4c0.1,0.8,0.5,1.5,0.9,2.2l3.2-3.2l-4.5-4.5c0.2-0.2,0.4-0.5,0.6-0.7C105.6,396.9,105.8,396.7,106,396.5z"
		/>
	<path class="st1" d="M85,370l3.7,5.1l5.1-3.7c0.2,0.2,0.4,0.5,0.6,0.7s0.3,0.5,0.5,0.8l-6.6,4.8l-3.7-5.1c-0.4,0.5-0.8,1-1.1,1.6
		c-0.3,0.6-0.4,1.2-0.5,1.8c0,0.6,0,1.3,0.2,1.9c0.2,0.6,0.5,1.2,0.8,1.8l-1.5,1.1c-0.5-0.7-0.9-1.5-1.1-2.4
		c-0.2-0.8-0.3-1.7-0.2-2.6c0.1-0.9,0.3-1.7,0.7-2.5c0.4-0.8,0.9-1.5,1.6-2.1c0.2-0.2,0.5-0.4,0.7-0.6S84.7,370.2,85,370z
		 M95.6,374.7c0.2,0.7,0.2,1.4,0.2,2.1c0,0.7-0.2,1.4-0.4,2.1c-0.2,0.7-0.6,1.3-1,1.9c-0.4,0.6-1,1.1-1.6,1.5l-1.1-1.5
		c0.8-0.6,1.4-1.3,1.8-2.2c0.4-0.9,0.5-1.8,0.4-2.8L95.6,374.7z"/>
	<path class="st1" d="M78.1,355c0.9-0.1,1.9-0.1,2.8,0.1c0.9,0.2,1.8,0.6,2.5,1.2c0.8,0.6,1.4,1.3,2,2.1l-1.6,0.9
		c-0.4-0.6-0.9-1.2-1.5-1.6c-0.6-0.4-1.2-0.7-1.9-0.9c-0.7-0.2-1.4-0.2-2.1-0.1c-0.7,0.1-1.4,0.3-2,0.7c-0.5,0.3-1,0.7-1.3,1.1
		l9.4,5.1l1.6,0.9c-0.2,0.6-0.5,1.1-0.8,1.6c-0.6,0.9-1.4,1.6-2.3,2.2c-1,0.6-2.1,1-3.3,1c-0.6,0-1.2,0-1.8-0.1l1.1-4.6l1.8,0.4
		l-0.6,2.4c0.7-0.1,1.3-0.3,1.9-0.7c0.6-0.4,1.2-0.9,1.6-1.5l-9.5-5.2l-1.6-0.9c0.2-0.6,0.5-1.1,0.9-1.6c0.6-0.7,1.2-1.3,2-1.8
		C76.2,355.4,77.1,355.1,78.1,355z"/>
	<path class="st1" d="M63.7,330.9l0.7,1.7l-6.7,2.7c-0.1-0.3-0.3-0.5-0.4-0.8c-0.1-0.3-0.2-0.6-0.3-0.9L63.7,330.9z M61.4,325
		c0.9-0.4,1.9-0.5,2.8-0.5c0.9,0,1.9,0.2,2.7,0.6c0.9,0.4,1.6,0.9,2.3,1.6c0.7,0.7,1.2,1.5,1.6,2.4c0.4,0.9,0.5,1.9,0.5,2.8
		c0,0.9-0.2,1.9-0.6,2.7c-0.4,0.9-0.9,1.6-1.6,2.3c-0.7,0.7-1.5,1.2-2.4,1.6l-0.7-1.7c0.7-0.3,1.3-0.7,1.8-1.2
		c0.5-0.5,0.9-1.1,1.2-1.7c0.3-0.7,0.4-1.3,0.5-2c0-0.7-0.1-1.4-0.4-2.1s-0.7-1.3-1.2-1.8c-0.5-0.5-1.1-0.9-1.7-1.2
		s-1.3-0.4-2.1-0.5c-0.7,0-1.4,0.1-2.1,0.4L61.4,325z M67.1,329.6l0.7,1.7l-1.7,0.7l-0.7-1.7L67.1,329.6z"/>
	<path class="st1" d="M57.3,308.5l2,6.5l6,3.2c-0.2,0.6-0.5,1.1-0.9,1.6l-1.6-0.9l-3.9-2.1l-0.5-0.2l-4.8,1.4
		c0.4,0.8,0.9,1.4,1.5,1.9c0.5,0.4,1,0.7,1.6,0.9l-0.9,1.6c-0.6-0.2-1.1-0.5-1.6-0.9c-1.1-0.8-1.9-1.7-2.4-3
		c-0.1-0.3-0.2-0.6-0.3-0.9c-0.1-0.3-0.2-0.6-0.2-0.9l6-1.8l-1.8-6c0.3-0.1,0.6-0.2,0.9-0.3C56.7,308.6,57,308.5,57.3,308.5z
		 M61.8,310.9l0.5,1.7l-1.7,0.5l-0.5-1.7L61.8,310.9z"/>
	<path class="st1" d="M53.6,291.9l1.3,6.2l6.2-1.3c0.1,0.3,0.2,0.6,0.2,0.9c0.1,0.3,0.1,0.6,0.1,0.9l-8,1.7l-1.3-6.2
		c-0.6,0.2-1.1,0.6-1.6,1c-0.5,0.4-0.9,0.9-1.2,1.5c-0.3,0.6-0.5,1.2-0.6,1.8c-0.1,0.7-0.1,1.3,0.1,2l-1.8,0.4
		c-0.2-0.9-0.2-1.8-0.1-2.7c0.1-0.9,0.4-1.7,0.9-2.4c0.4-0.8,1-1.4,1.6-2c0.7-0.6,1.4-1,2.3-1.3c0.3-0.1,0.6-0.2,0.9-0.2
		C53,292,53.3,291.9,53.6,291.9z M61.4,300.4c-0.1,0.7-0.4,1.4-0.7,2c-0.3,0.6-0.7,1.2-1.2,1.7c-0.5,0.5-1.1,1-1.7,1.3
		c-0.6,0.4-1.3,0.6-2.1,0.8l-0.4-1.8c1-0.2,1.8-0.6,2.6-1.3c0.7-0.7,1.2-1.4,1.5-2.4L61.4,300.4z"/>
	<path class="st1" d="M51.7,281.5l2.8-4.6l1.6,0.9l-3.3,5.4l-8.5,1.1c-0.1-0.3-0.1-0.6-0.2-0.9c-0.1-1-0.1-1.9,0.2-2.9
		c0.3-0.9,0.7-1.7,1.3-2.5c0.6-0.8,1.3-1.4,2.1-1.8c0.8-0.5,1.8-0.8,2.7-0.9l0.2,1.8c-0.7,0.1-1.3,0.3-1.9,0.6
		c-0.6,0.3-1.1,0.7-1.5,1.2c-0.4,0.5-0.8,1-1,1.6c-0.2,0.6-0.4,1.2-0.4,1.9L51.7,281.5z M53.7,287.4c0.5-0.2,0.9-0.5,1.3-0.9
		l1.2,1.4c-0.5,0.5-1.1,0.8-1.8,1.1c-0.7,0.3-1.4,0.5-2.1,0.6c-0.7,0.1-1.5,0.1-2.2,0c-0.7-0.1-1.4-0.3-2-0.7l0.8-1.6
		c0.5,0.2,1,0.4,1.5,0.5c0.5,0.1,1.1,0.1,1.6,0C52.6,287.8,53.1,287.6,53.7,287.4z"/>
	<path class="st1" d="M55.1,263.5c0.2,0.1,0.4,0.2,0.6,0.4c0.2,0.2,0.3,0.3,0.4,0.6c0.1,0.2,0.2,0.5,0.2,0.7c0,0.2,0,0.5-0.1,0.7
		c-0.1,0.2-0.2,0.4-0.4,0.6c-0.2,0.2-0.3,0.3-0.6,0.4c-0.2,0.1-0.5,0.2-0.7,0.2c-0.2,0-0.5,0-0.7-0.1c-0.2-0.1-0.4-0.2-0.6-0.4
		c-0.2-0.2-0.3-0.3-0.4-0.6c-0.1-0.2-0.2-0.5-0.2-0.7s0-0.5,0.1-0.7s0.2-0.4,0.4-0.6c0.2-0.2,0.3-0.3,0.6-0.4
		c0.2-0.1,0.5-0.2,0.7-0.2C54.6,263.4,54.9,263.5,55.1,263.5z"/>
	<path class="st1" d="M52.8,241.8c0.8,0.4,1.6,0.9,2.2,1.5l-1.3,1.2c-0.5-0.5-1-0.8-1.6-1.1c-0.6-0.3-1.3-0.4-2-0.4
		c-1,0-1.9,0.2-2.8,0.6l-0.1,3.8l4.2,0.2l0.6,1.1l1.8,3.6c0.5-0.5,0.9-1,1.1-1.6c0.3-0.6,0.4-1.3,0.5-2l1.8,0.1c0,1-0.3,2-0.7,3
		c-0.4,0.9-1,1.7-1.8,2.3c-0.5,0.4-1,0.7-1.5,1l-0.8-1.6l-2-4l-4.9-0.2l0.1-3.9c-0.3,0.4-0.5,0.9-0.7,1.4c-0.2,0.5-0.3,1-0.3,1.6
		c0,0.7,0.1,1.5,0.4,2.1c0.3,0.7,0.6,1.3,1.1,1.8c0.5,0.5,1.1,0.9,1.7,1.2c0.7,0.3,1.4,0.5,2.1,0.5l-0.1,1.8c-1,0-1.9-0.3-2.8-0.7
		c-0.9-0.4-1.6-0.9-2.3-1.6c-0.6-0.7-1.1-1.5-1.5-2.4c-0.3-0.9-0.5-1.9-0.5-2.9c0-1.1,0.3-2.2,0.9-3.2c0.5-1,1.2-1.8,2.1-2.4
		c0.6-0.4,1.2-0.8,1.9-1c0.9-0.3,1.8-0.5,2.8-0.4C51,241.2,51.9,241.4,52.8,241.8z"/>
	<path class="st1" d="M51.7,230.6l3.8-3.8l1.3,1.3l-4.5,4.4l-8.5-1c0-0.3,0-0.6,0.1-0.9c0.1-1,0.4-1.9,0.9-2.7
		c0.5-0.8,1.1-1.5,1.8-2.1c0.7-0.6,1.6-1,2.5-1.3c0.9-0.3,1.9-0.4,2.9-0.2l-0.2,1.8c-0.7-0.1-1.3,0-2,0.1c-0.6,0.2-1.2,0.4-1.7,0.8
		c-0.5,0.4-1,0.8-1.4,1.3c-0.4,0.5-0.7,1.1-0.9,1.7L51.7,230.6z M52.1,236.9c0.5-0.1,1-0.3,1.5-0.5l0.8,1.6c-0.6,0.3-1.3,0.5-2,0.7
		c-0.7,0.1-1.4,0.2-2.2,0.1s-1.4-0.3-2.1-0.6c-0.6-0.3-1.2-0.7-1.8-1.1l1.2-1.4c0.4,0.3,0.8,0.6,1.3,0.8c0.5,0.2,1,0.4,1.6,0.4
		C51.1,237,51.6,237,52.1,236.9z"/>
	<path class="st1" d="M59.9,210.7c1.1,1.7,1.5,3.5,1.1,5.5c-0.2,1.1-0.7,2-1.3,2.9c-0.3,0.5-0.8,0.9-1.3,1.4l-0.9-1.6l-2.6-4.4
		l-1.3,0.9l2.5,4.3l0.9,1.6c-0.5,0.3-1.1,0.5-1.8,0.6l-1-1.7l-2.2-3.7l-2.4,1.8l-1.5,1.1c-0.4-0.5-0.7-1-1-1.5l1.5-1.1l2.4-1.8
		l1.5-1.1l2.7-2l3.3,5.6c0.3-0.5,0.5-1,0.6-1.5c0.3-1.5,0-2.9-0.8-4.1c-0.8-1.3-2-2-3.5-2.3c-1.2-0.3-2.4-0.1-3.5,0.5
		c-1.1,0.6-1.9,1.4-2.5,2.5c-0.2,0.4-0.3,0.9-0.4,1.3l-1.8-0.4c0.4-2,1.4-3.5,3.1-4.6c1.7-1.1,3.5-1.5,5.5-1.1
		C57.3,208,58.8,209,59.9,210.7z"/>
	<path class="st1" d="M64.3,194.7c1,1.8,1.2,3.6,0.6,5.5c-0.6,1.9-1.7,3.4-3.5,4.3c-1.8,1-3.6,1.2-5.5,0.6l0,0l0.5-1.8l0,0
		c1.4,0.4,2.8,0.3,4.1-0.5c1.3-0.7,2.2-1.8,2.6-3.3c0.4-1.4,0.3-2.8-0.5-4.2c-0.7-1.3-1.8-2.2-3.3-2.6c-1.5-0.4-2.8-0.3-4.2,0.5
		c-1.3,0.7-2.2,1.8-2.6,3.3c-0.3,1.1-0.3,2.2,0.1,3.3l5.1-2.8l-3.1-0.9l0.5-1.8l5.3,1.5l0.2,1.7l-7,3.8l-1.6,0.9
		c-0.4-0.5-0.6-1-0.9-1.6c-0.6-1.5-0.7-3.1-0.2-4.7c0.6-1.9,1.7-3.4,3.5-4.3c1.8-1,3.6-1.2,5.5-0.6
		C61.9,191.8,63.3,192.9,64.3,194.7z"/>
	<path class="st1" d="M66.8,175.6c0.7,0.4,1.2,0.8,1.8,1.3c0.5,0.5,0.9,1.1,1.3,1.7s0.6,1.3,0.7,2c0.1,0.7,0.2,1.4,0.1,2.2l-1.8-0.7
		c0-1-0.2-1.9-0.7-2.8c-0.5-0.9-1.2-1.6-2-2.1l-2.3,5.9L58,181c-0.1,0.6-0.1,1.3,0,1.9c0.1,0.6,0.3,1.2,0.6,1.8
		c0.3,0.6,0.7,1.1,1.2,1.5c0.5,0.4,1.1,0.8,1.7,1c0.7,0.3,1.4,0.4,2.1,0.4c0.7,0,1.4-0.2,2-0.5s1.2-0.7,1.7-1.2
		c0.5-0.5,0.9-1.1,1.2-1.8l1.7,0.7c-0.4,0.9-0.9,1.7-1.6,2.4c-0.7,0.7-1.4,1.2-2.3,1.6c-0.9,0.4-1.8,0.6-2.7,0.6
		c-1,0-1.9-0.1-2.9-0.5c-0.8-0.3-1.6-0.8-2.3-1.4c-0.6-0.6-1.2-1.3-1.6-2.1c-0.4-0.8-0.7-1.6-0.8-2.5c-0.1-0.9-0.1-1.8,0.2-2.6
		c0.1-0.3,0.2-0.6,0.3-0.9c0.1-0.3,0.2-0.6,0.4-0.8c0.6-1.2,1.5-2.1,2.7-2.8c0.6-0.3,1.1-0.6,1.7-0.8c0.6-0.2,1.3-0.3,1.9-0.3
		l-0.7,1.9c-0.8,0.1-1.5,0.4-2.2,0.9c-0.7,0.5-1.2,1-1.7,1.7l4.2,1.6l2.3-5.9c0.3,0.1,0.6,0.2,0.9,0.3
		C66.3,175.3,66.5,175.5,66.8,175.6z"/>
	<path class="st1" d="M74.1,160.3l-2.7,5.7l5.7,2.8c-0.1,0.3-0.2,0.6-0.4,0.8c-0.1,0.3-0.3,0.5-0.4,0.8l-7.3-3.5l2.7-5.7
		c-0.6-0.2-1.2-0.2-1.9-0.2c-0.6,0-1.2,0.2-1.8,0.4c-0.6,0.3-1.1,0.6-1.6,1c-0.5,0.5-0.9,1-1.1,1.6l-1.6-0.8
		c0.4-0.8,0.9-1.5,1.6-2.2c0.6-0.6,1.4-1.1,2.2-1.4c0.8-0.3,1.6-0.5,2.5-0.6c0.9,0,1.8,0.1,2.6,0.4c0.3,0.1,0.6,0.2,0.8,0.4
		C73.6,160,73.8,160.2,74.1,160.3z M75,171.8c-0.5,0.5-1.1,0.9-1.8,1.2c-0.6,0.3-1.3,0.5-2,0.6c-0.7,0.1-1.4,0.1-2.1,0
		c-0.7-0.1-1.4-0.3-2.1-0.7l0.8-1.6c0.9,0.4,1.8,0.6,2.8,0.5c1-0.1,1.8-0.4,2.6-0.9L75,171.8z"/>
	<path class="st1" d="M79,150.9l5-1.9l0.7,1.7l-5.9,2.2l-7.4-4.4c0.1-0.3,0.3-0.5,0.4-0.8c0.5-0.8,1.1-1.6,1.9-2.2
		c0.8-0.6,1.6-1,2.5-1.2c0.9-0.2,1.9-0.3,2.8-0.2c1,0.1,1.9,0.4,2.7,0.9l-0.9,1.6c-0.6-0.3-1.2-0.6-1.8-0.7c-0.6-0.1-1.3-0.1-1.9,0
		c-0.6,0.1-1.2,0.3-1.8,0.6c-0.6,0.3-1,0.7-1.5,1.2L79,150.9z M76.9,156.8c0.5,0.1,1,0.2,1.6,0.1l0.1,1.8c-0.7,0-1.4,0-2.1-0.2
		c-0.7-0.2-1.4-0.4-2-0.8c-0.6-0.4-1.2-0.8-1.7-1.4c-0.5-0.5-0.9-1.1-1.2-1.7l1.6-0.8c0.2,0.5,0.5,0.9,0.9,1.3
		c0.4,0.4,0.8,0.7,1.3,1S76.3,156.6,76.9,156.8z"/>
	<path class="st1" d="M92.3,123.9c0,0.6,0.2,1.2,0.4,1.8l-1.8,0.4c-0.2-0.6-0.3-1.2-0.4-1.8L92.3,123.9z M99.4,116.6
		c-0.8-0.2-1.6-0.2-2.4-0.2c-0.8,0.1-1.6,0.3-2.3,0.6c-0.8,0.3-1.4,0.8-2,1.3c-0.2,0.2-0.4,0.4-0.6,0.7c-0.2,0.2-0.4,0.5-0.5,0.7
		l9.7,8.1c-0.5,0.4-1,0.7-1.7,1c-0.6,0.2-1.2,0.3-1.8,0.3c-0.6,0-1.3-0.1-1.9-0.3c-0.6-0.2-1.2-0.5-1.7-1l-1.2,1.4
		c0.7,0.6,1.5,1,2.3,1.3c0.8,0.3,1.7,0.4,2.6,0.4c0.9,0,1.7-0.2,2.5-0.5c0.8-0.3,1.6-0.8,2.2-1.4c0.2-0.2,0.4-0.4,0.6-0.7
		c0.2-0.2,0.4-0.5,0.5-0.7l-4.9-4.1l4.1-4.8c-0.2-0.2-0.4-0.4-0.7-0.6c-0.2-0.2-0.5-0.4-0.7-0.5C101,117.1,100.2,116.8,99.4,116.6z
		 M97.6,122.4l-3.4-2.9c0.4-0.4,0.9-0.7,1.4-0.9c0.5-0.2,1.1-0.3,1.6-0.4c0.6,0,1.1,0,1.7,0.1c0.6,0.1,1.1,0.3,1.6,0.6L97.6,122.4z"
		/>
	<path class="st1" d="M114.9,106.6c0.5,0.6,0.8,1.2,1.1,1.9c0.3,0.7,0.4,1.4,0.4,2.1c0,0.7,0,1.4-0.2,2.1c-0.2,0.7-0.4,1.4-0.8,2
		l-1.4-1.3c0.4-0.9,0.6-1.8,0.5-2.8c-0.1-1-0.4-1.9-1-2.7l-4.4,4.5l-4.5-4.4c-0.4,0.5-0.6,1.1-0.8,1.7c-0.2,0.6-0.2,1.2-0.2,1.9
		c0.1,0.6,0.2,1.3,0.5,1.8c0.3,0.6,0.7,1.1,1.1,1.6c0.5,0.5,1.1,0.9,1.8,1.2c0.7,0.3,1.3,0.4,2.1,0.4c0.7,0,1.4-0.1,2.1-0.4
		c0.7-0.3,1.3-0.7,1.8-1.2l1.3,1.3c-0.7,0.7-1.5,1.2-2.4,1.6c-0.9,0.4-1.8,0.5-2.7,0.6c-1,0-1.9-0.2-2.8-0.5
		c-0.9-0.4-1.7-0.9-2.4-1.6c-0.6-0.6-1.2-1.4-1.5-2.2c-0.4-0.8-0.6-1.6-0.6-2.5c-0.1-0.9,0-1.7,0.3-2.6c0.3-0.9,0.7-1.6,1.2-2.4
		c0.2-0.2,0.4-0.5,0.6-0.7c0.2-0.2,0.4-0.4,0.7-0.6c1-0.8,2.2-1.3,3.5-1.5c0.6-0.1,1.3-0.1,1.9,0c0.6,0.1,1.3,0.3,1.9,0.5l-1.4,1.4
		c-0.8-0.2-1.6-0.2-2.4-0.1c-0.8,0.1-1.5,0.5-2.2,0.9l3.2,3.1l4.4-4.5c0.2,0.2,0.5,0.4,0.7,0.6C114.5,106.1,114.7,106.3,114.9,106.6
		z"/>
	<path class="st1" d="M136.7,96c-0.7,0.2-1.4,0.2-2.1,0.2c-0.7,0-1.4-0.2-2.1-0.4c-0.7-0.2-1.3-0.6-1.9-1c-0.6-0.4-1.1-1-1.6-1.6
		l1.5-1.1c0.6,0.8,1.3,1.4,2.2,1.8c0.9,0.4,1.8,0.5,2.8,0.4L136.7,96z M141.4,85.4l-5.1,3.7l3.7,5.1c-0.2,0.2-0.5,0.4-0.7,0.6
		c-0.2,0.2-0.5,0.3-0.8,0.5l-4.8-6.6l5.1-3.7c-0.5-0.4-1-0.8-1.6-1.1c-0.6-0.3-1.2-0.4-1.8-0.5c-0.6,0-1.3,0-1.9,0.2
		c-0.6,0.2-1.2,0.5-1.8,0.9l-1.1-1.5c0.7-0.5,1.5-0.9,2.4-1.2c0.8-0.2,1.7-0.3,2.6-0.2c0.9,0.1,1.7,0.3,2.5,0.7
		c0.8,0.4,1.5,0.9,2.1,1.6c0.2,0.2,0.4,0.5,0.6,0.7C141.1,84.9,141.2,85.1,141.4,85.4z"/>
	<path class="st1" d="M156.4,78.4c0.1,0.9,0.1,1.9-0.1,2.8s-0.6,1.8-1.2,2.5c-0.6,0.8-1.3,1.4-2.1,2l-0.9-1.6
		c0.6-0.4,1.2-0.9,1.6-1.5c0.4-0.6,0.7-1.2,0.9-1.9c0.2-0.7,0.2-1.4,0.1-2.1c-0.1-0.7-0.4-1.4-0.7-2c-0.3-0.5-0.7-0.9-1.1-1.3
		l-5.1,9.4l-0.9,1.6c-0.6-0.2-1.1-0.5-1.6-0.8c-0.9-0.6-1.6-1.4-2.2-2.3c-0.6-1-1-2.1-1-3.3c0-0.6,0-1.2,0.1-1.8l4.6,1.1l-0.4,1.8
		l-2.4-0.6c0.1,0.7,0.4,1.3,0.7,1.9c0.4,0.6,0.9,1.2,1.5,1.6l5.1-9.6l0.9-1.6c0.6,0.2,1.1,0.5,1.6,0.9c0.7,0.6,1.3,1.2,1.8,2
		C155.9,76.6,156.2,77.5,156.4,78.4z"/>
	<path class="st1" d="M186.3,61.6c0.4,0.9,0.5,1.9,0.5,2.8c0,0.9-0.2,1.9-0.6,2.7c-0.4,0.9-0.9,1.6-1.6,2.3
		c-0.7,0.7-1.5,1.2-2.4,1.6c-0.9,0.4-1.9,0.5-2.8,0.5c-0.9,0-1.9-0.2-2.7-0.6c-0.9-0.4-1.6-0.9-2.3-1.6c-0.7-0.7-1.2-1.5-1.6-2.4
		l1.7-0.7c0.3,0.7,0.7,1.3,1.2,1.8c0.5,0.5,1.1,0.9,1.7,1.2c0.7,0.3,1.3,0.4,2.1,0.4c0.7,0,1.4-0.1,2.1-0.4s1.3-0.7,1.8-1.2
		c0.5-0.5,0.9-1.1,1.2-1.7c0.3-0.7,0.4-1.3,0.4-2.1c0-0.7-0.1-1.4-0.4-2.1L186.3,61.6z M180.4,64l-1.7,0.7l-2.7-6.7
		c0.3-0.1,0.5-0.3,0.8-0.4s0.6-0.2,0.9-0.3L180.4,64z M181.8,67.4l-1.7,0.7l-0.7-1.7l1.7-0.7L181.8,67.4z"/>
	<path class="st1" d="M202.8,57.5l-6.5,2l-3.2,6c-0.6-0.2-1.1-0.5-1.6-0.9l0.9-1.6l2.1-3.9l0.2-0.5l-1.5-4.8
		c-0.8,0.4-1.4,0.9-1.9,1.5c-0.4,0.5-0.7,1-0.9,1.6l-1.6-0.9c0.2-0.6,0.5-1.1,0.9-1.6c0.8-1.1,1.7-1.9,3-2.4
		c0.3-0.1,0.6-0.2,0.9-0.3c0.3-0.1,0.6-0.2,0.9-0.2l1.8,6l6-1.8c0.1,0.3,0.2,0.6,0.3,0.9C202.7,56.9,202.7,57.2,202.8,57.5z
		 M200.4,62l-1.7,0.5l-0.5-1.7l1.7-0.5L200.4,62z"/>
	<path class="st1" d="M210.8,61.6c-0.7-0.1-1.4-0.3-2-0.7c-0.6-0.3-1.2-0.7-1.7-1.2c-0.5-0.5-1-1.1-1.3-1.7
		c-0.4-0.6-0.6-1.3-0.8-2.1l1.8-0.4c0.2,1,0.7,1.8,1.3,2.5c0.7,0.7,1.4,1.2,2.4,1.5L210.8,61.6z M219.3,53.7l-6.2,1.3l1.3,6.2
		c-0.3,0.1-0.6,0.2-0.9,0.2c-0.3,0.1-0.6,0.1-0.9,0.1l-1.7-8l6.2-1.3c-0.2-0.6-0.6-1.1-1-1.6c-0.4-0.5-0.9-0.9-1.5-1.2
		c-0.6-0.3-1.2-0.5-1.8-0.6c-0.7-0.1-1.3-0.1-2,0.1l-0.4-1.8c0.9-0.2,1.8-0.2,2.7-0.1c0.9,0.1,1.7,0.4,2.4,0.9c0.8,0.4,1.4,1,2,1.6
		c0.6,0.7,1,1.4,1.3,2.3c0.1,0.3,0.2,0.6,0.2,0.9C219.3,53.1,219.3,53.4,219.3,53.7z"/>
	<path class="st1" d="M223.9,53.8c0.2,0.5,0.5,0.9,0.9,1.3l-1.4,1.2c-0.5-0.5-0.9-1.1-1.1-1.8c-0.3-0.7-0.5-1.4-0.6-2.1
		c-0.1-0.7-0.1-1.5,0-2.2c0.1-0.7,0.3-1.4,0.7-2l1.6,0.8c-0.2,0.5-0.4,1-0.5,1.5c-0.1,0.5-0.1,1.1,0,1.6
		C223.5,52.7,223.6,53.3,223.9,53.8z M229.8,51.8l4.6,2.8l-0.9,1.6l-5.4-3.2l-1.1-8.5c0.3-0.1,0.6-0.1,0.9-0.2
		c1-0.1,1.9-0.1,2.9,0.2c0.9,0.3,1.8,0.7,2.5,1.2c0.8,0.6,1.4,1.3,1.9,2.1c0.5,0.8,0.8,1.8,0.9,2.7l-1.8,0.2
		c-0.1-0.7-0.3-1.3-0.6-1.9c-0.3-0.6-0.7-1.1-1.2-1.5c-0.5-0.4-1-0.8-1.6-1c-0.6-0.2-1.2-0.4-1.9-0.4L229.8,51.8z"/>
	<path class="st1" d="M247.7,55.1c-0.1,0.2-0.2,0.4-0.4,0.6c-0.2,0.2-0.3,0.3-0.6,0.4c-0.2,0.1-0.5,0.2-0.7,0.2
		c-0.2,0-0.5,0-0.7-0.1c-0.2-0.1-0.4-0.2-0.6-0.4c-0.2-0.2-0.3-0.3-0.4-0.6c-0.1-0.2-0.2-0.5-0.2-0.7c0-0.2,0-0.5,0.1-0.7
		c0.1-0.2,0.2-0.4,0.4-0.6c0.2-0.2,0.3-0.3,0.6-0.4s0.5-0.2,0.7-0.2c0.2,0,0.5,0,0.7,0.1c0.2,0.1,0.4,0.2,0.6,0.4
		c0.2,0.2,0.3,0.3,0.4,0.6c0.1,0.2,0.2,0.5,0.2,0.7C247.8,54.7,247.8,54.9,247.7,55.1z"/>
	<path class="st1" d="M269.5,52.7c-0.4,0.8-0.9,1.6-1.5,2.2l-1.2-1.3c0.5-0.5,0.8-1,1.1-1.6c0.3-0.6,0.4-1.3,0.4-2
		c0-1-0.2-1.9-0.6-2.8l-3.8-0.1l-0.1,4.2l-1.1,0.6l-3.6,1.9c0.5,0.5,1,0.9,1.7,1.1c0.6,0.3,1.3,0.4,2,0.5l-0.1,1.8c-1,0-2-0.3-3-0.7
		c-0.9-0.4-1.7-1-2.3-1.8c-0.4-0.5-0.7-1-1-1.5l1.6-0.8l4-2l0.2-4.9l3.9,0.1c-0.4-0.3-0.9-0.5-1.4-0.7c-0.5-0.2-1-0.3-1.6-0.3
		c-0.7,0-1.5,0.1-2.1,0.4c-0.7,0.3-1.3,0.6-1.8,1.1c-0.5,0.5-0.9,1.1-1.2,1.7c-0.3,0.7-0.5,1.4-0.5,2.1l-1.8-0.1
		c0-1,0.3-1.9,0.7-2.8c0.4-0.9,0.9-1.6,1.6-2.3s1.5-1.1,2.4-1.5c0.9-0.4,1.9-0.5,2.8-0.5c1.1,0,2.2,0.3,3.2,0.8
		c1,0.5,1.8,1.2,2.4,2.1c0.4,0.6,0.8,1.2,1,1.9c0.3,0.9,0.5,1.8,0.4,2.8C270.1,51,269.9,51.9,269.5,52.7z"/>
	<path class="st1" d="M274.4,52.1c0.1,0.5,0.3,1,0.5,1.5l-1.6,0.8c-0.3-0.6-0.6-1.3-0.7-2c-0.1-0.7-0.2-1.4-0.1-2.2
		c0.1-0.7,0.3-1.4,0.6-2.1c0.3-0.6,0.7-1.2,1.1-1.8l1.4,1.2c-0.3,0.4-0.6,0.8-0.8,1.3c-0.2,0.5-0.4,1-0.4,1.6S274.3,51.5,274.4,52.1
		z M280.6,51.6l3.8,3.8l-1.3,1.3l-4.4-4.4l1-8.5c0.3,0,0.6,0,0.9,0.1c1,0.1,1.9,0.4,2.7,0.9c0.8,0.5,1.5,1.1,2.1,1.8s1,1.6,1.3,2.5
		c0.3,0.9,0.4,1.9,0.2,2.9l-1.8-0.2c0.1-0.7,0-1.3-0.1-2c-0.2-0.6-0.4-1.2-0.8-1.7c-0.4-0.5-0.8-1-1.3-1.4c-0.5-0.4-1.1-0.7-1.7-0.8
		L280.6,51.6z"/>
	<path class="st1" d="M300.6,59.8c-1.7,1.1-3.5,1.5-5.5,1.1c-1.1-0.2-2-0.7-2.9-1.3c-0.5-0.3-1-0.8-1.4-1.3l1.6-0.9l4.4-2.6
		l-0.9-1.3l-4.3,2.6l-1.6,0.9c-0.3-0.5-0.5-1.1-0.6-1.8l1.7-1l3.7-2.2l-1.8-2.4l-1.1-1.4c0.5-0.4,1-0.7,1.5-1l1.1,1.5l1.8,2.4
		l1.1,1.5l2,2.7l-5.5,3.3c0.5,0.3,1,0.4,1.5,0.6c1.5,0.3,2.9,0,4.1-0.8c1.3-0.8,2-2,2.3-3.5c0.2-1.2,0.1-2.4-0.5-3.5
		c-0.6-1.1-1.4-1.9-2.5-2.5c-0.4-0.2-0.9-0.3-1.3-0.4l0.4-1.8c2,0.4,3.5,1.4,4.6,3.1c1.1,1.7,1.5,3.5,1.1,5.5
		C303.3,57.1,302.3,58.6,300.6,59.8z"/>
	<path class="st1" d="M316.6,64.1c-1.8,1-3.6,1.2-5.5,0.6c-1.9-0.6-3.4-1.7-4.4-3.5c-1-1.8-1.2-3.6-0.6-5.5l0,0l1.8,0.5l0,0
		c-0.4,1.4-0.3,2.8,0.5,4.1s1.8,2.2,3.3,2.6s2.8,0.3,4.2-0.5c1.3-0.7,2.2-1.8,2.6-3.3c0.4-1.5,0.3-2.8-0.5-4.2s-1.8-2.2-3.3-2.6
		c-1.1-0.3-2.2-0.3-3.3,0.1l2.8,5l0.9-3.1l1.8,0.5l-1.5,5.3l-1.7,0.2l-3.9-7l-0.9-1.6c0.5-0.4,1-0.6,1.6-0.9
		c1.5-0.6,3.1-0.7,4.7-0.2c1.9,0.6,3.4,1.7,4.4,3.5c1,1.8,1.2,3.6,0.6,5.5C319.5,61.7,318.4,63.1,316.6,64.1z"/>
	<path class="st1" d="M335.7,66.5c-0.4,0.7-0.8,1.2-1.3,1.8c-0.5,0.5-1.1,0.9-1.7,1.3c-0.6,0.3-1.3,0.6-2,0.7
		c-0.7,0.1-1.4,0.2-2.2,0.1l0.7-1.8c1,0,1.9-0.2,2.8-0.7c0.9-0.5,1.6-1.2,2.1-2l-5.9-2.2l2.2-5.9c-0.6-0.1-1.3-0.1-1.9,0
		c-0.6,0.1-1.2,0.3-1.8,0.6c-0.6,0.3-1.1,0.7-1.5,1.2c-0.4,0.5-0.8,1.1-1,1.7c-0.3,0.7-0.4,1.4-0.4,2.1c0,0.7,0.2,1.4,0.5,2
		s0.7,1.2,1.2,1.7c0.5,0.5,1.1,0.9,1.8,1.2l-0.6,1.7c-0.9-0.4-1.7-0.9-2.4-1.5c-0.7-0.7-1.2-1.4-1.6-2.3s-0.6-1.8-0.6-2.7
		c0-1,0.1-1.9,0.5-2.9c0.3-0.9,0.8-1.6,1.4-2.3c0.6-0.6,1.3-1.2,2.1-1.6c0.8-0.4,1.6-0.7,2.5-0.8c0.9-0.1,1.8-0.1,2.6,0.1
		c0.3,0.1,0.6,0.2,0.9,0.3c0.3,0.1,0.6,0.2,0.8,0.4c1.2,0.6,2.1,1.5,2.8,2.6c0.3,0.5,0.6,1.1,0.8,1.7c0.2,0.6,0.3,1.3,0.3,1.9
		l-1.9-0.7c-0.1-0.8-0.4-1.5-0.9-2.2c-0.5-0.7-1-1.2-1.7-1.6l-1.6,4.2l5.9,2.2c-0.1,0.3-0.2,0.6-0.3,0.9
		C336,66,335.8,66.2,335.7,66.5z"/>
	<path class="st1" d="M339.5,74.7c-0.5-0.5-0.9-1.1-1.2-1.8c-0.3-0.6-0.5-1.3-0.6-2c-0.1-0.7-0.1-1.4,0-2.1c0.1-0.7,0.3-1.4,0.6-2.1
		l1.6,0.8c-0.4,0.9-0.6,1.8-0.5,2.8c0.1,1,0.4,1.8,0.9,2.6L339.5,74.7z M351,73.7l-5.7-2.7l-2.7,5.7c-0.3-0.1-0.6-0.2-0.8-0.3
		c-0.3-0.1-0.5-0.3-0.8-0.4l3.5-7.4l5.7,2.7c0.2-0.6,0.2-1.3,0.2-1.9c0-0.6-0.2-1.2-0.5-1.8c-0.3-0.6-0.6-1.1-1-1.6
		c-0.5-0.5-1-0.9-1.6-1.1l0.8-1.6c0.8,0.4,1.5,0.9,2.2,1.6c0.6,0.6,1.1,1.4,1.4,2.2c0.3,0.8,0.5,1.6,0.6,2.5c0,0.9-0.1,1.8-0.4,2.6
		c-0.1,0.3-0.2,0.6-0.3,0.8C351.3,73.2,351.2,73.5,351,73.7z"/>
	<path class="st1" d="M354.6,76.5c-0.1,0.5-0.2,1-0.1,1.6l-1.8,0.1c0-0.7,0-1.4,0.2-2.1c0.2-0.7,0.4-1.4,0.8-2s0.8-1.2,1.4-1.7
		c0.5-0.5,1.1-0.9,1.7-1.2l0.8,1.6c-0.5,0.2-0.9,0.5-1.3,0.9c-0.4,0.4-0.7,0.8-1,1.3C354.9,75.5,354.7,76,354.6,76.5z M360.5,78.6
		l1.9,5l-1.7,0.7l-2.3-5.9l4.3-7.4c0.3,0.1,0.5,0.3,0.8,0.4c0.9,0.5,1.6,1.1,2.2,1.9c0.6,0.8,1,1.6,1.2,2.5c0.2,0.9,0.3,1.9,0.2,2.8
		c-0.1,1-0.4,1.9-0.9,2.7l-1.6-0.9c0.3-0.6,0.6-1.2,0.7-1.8c0.1-0.6,0.1-1.3,0-1.9c-0.1-0.6-0.3-1.2-0.6-1.8c-0.3-0.6-0.7-1-1.2-1.5
		L360.5,78.6z"/>
	<path class="st1" d="M393.9,101.2c-0.2,0.3-0.4,0.5-0.5,0.7c-0.2,0.2-0.4,0.5-0.6,0.7l-4.9-4l-4,4.9c-0.3-0.2-0.5-0.4-0.7-0.5
		s-0.5-0.4-0.7-0.6c-0.6-0.7-1.1-1.4-1.4-2.2c-0.3-0.8-0.5-1.6-0.5-2.5c0-0.9,0.1-1.7,0.4-2.6c0.3-0.9,0.7-1.6,1.3-2.3l1.4,1.2
		c-0.4,0.5-0.7,1.1-1,1.7c-0.2,0.6-0.3,1.2-0.3,1.9c0,0.6,0.1,1.2,0.3,1.8c0.2,0.6,0.6,1.2,1,1.6l8.1-9.7c0.3,0.2,0.5,0.3,0.7,0.5
		s0.5,0.4,0.7,0.6c0.6,0.6,1,1.3,1.3,2c0.3,0.7,0.5,1.5,0.6,2.3c0.1,0.8,0,1.6-0.2,2.4C394.7,99.7,394.4,100.5,393.9,101.2z
		 M387.1,90c-0.6,0.1-1.2,0.2-1.8,0.4l0.4,1.8c0.6-0.2,1.2-0.4,1.8-0.4L387.1,90z M392.5,100c0.3-0.5,0.5-1,0.6-1.6
		c0.1-0.6,0.1-1.1,0.1-1.7c-0.1-0.6-0.2-1.1-0.4-1.6c-0.2-0.5-0.5-1-0.9-1.4l-2.9,3.4L392.5,100z"/>
	<path class="st1" d="M404.9,114.4c-0.6,0.5-1.2,0.8-1.9,1.1c-0.7,0.3-1.4,0.4-2.1,0.5c-0.7,0.1-1.4,0-2.1-0.2
		c-0.7-0.2-1.4-0.4-2-0.8l1.3-1.4c0.9,0.4,1.8,0.6,2.8,0.5c1-0.1,1.9-0.4,2.7-1l-4.5-4.4l4.4-4.5c-0.5-0.4-1.1-0.6-1.7-0.8
		c-0.6-0.2-1.2-0.2-1.9-0.2c-0.6,0.1-1.3,0.2-1.8,0.5c-0.6,0.3-1.1,0.7-1.6,1.1c-0.5,0.5-0.9,1.1-1.2,1.8c-0.3,0.7-0.4,1.3-0.4,2.1
		c0,0.7,0.1,1.4,0.4,2.1c0.3,0.7,0.7,1.3,1.2,1.8l-1.3,1.3c-0.7-0.7-1.2-1.5-1.6-2.4c-0.4-0.9-0.6-1.8-0.6-2.7s0.2-1.9,0.5-2.8
		c0.4-0.9,0.9-1.7,1.6-2.4c0.6-0.6,1.4-1.2,2.2-1.5c0.8-0.4,1.6-0.6,2.5-0.6c0.9-0.1,1.7,0,2.6,0.3c0.9,0.3,1.6,0.6,2.4,1.2
		c0.2,0.2,0.5,0.4,0.7,0.6c0.2,0.2,0.4,0.4,0.6,0.7c0.8,1,1.3,2.2,1.5,3.5c0.1,0.6,0.1,1.3,0,1.9c-0.1,0.6-0.2,1.3-0.5,1.9l-1.4-1.4
		c0.2-0.8,0.2-1.6,0.1-2.4c-0.2-0.8-0.5-1.5-0.9-2.2l-3.1,3.2l4.5,4.4c-0.2,0.2-0.4,0.5-0.6,0.7S405.2,114.2,404.9,114.4z"/>
	<path class="st1" d="M415.6,136.2c-0.2-0.7-0.2-1.4-0.2-2.1c0-0.7,0.2-1.4,0.4-2.1c0.2-0.7,0.6-1.3,1-1.9c0.4-0.6,1-1.1,1.6-1.6
		l1.1,1.5c-0.8,0.6-1.4,1.3-1.8,2.2c-0.4,0.9-0.5,1.8-0.4,2.8L415.6,136.2z M426.2,140.8l-3.7-5.1l-5.1,3.7
		c-0.2-0.2-0.4-0.5-0.6-0.7c-0.2-0.2-0.3-0.5-0.5-0.8l6.6-4.8l3.7,5.1c0.4-0.5,0.8-1,1.1-1.6c0.3-0.6,0.4-1.2,0.5-1.8
		c0-0.6,0-1.3-0.2-1.9c-0.2-0.6-0.5-1.2-0.9-1.8l1.5-1.1c0.5,0.7,0.9,1.5,1.2,2.4c0.2,0.8,0.3,1.7,0.2,2.6c-0.1,0.9-0.3,1.7-0.7,2.5
		c-0.4,0.8-0.9,1.5-1.6,2.1c-0.2,0.2-0.5,0.4-0.7,0.6C426.7,140.4,426.4,140.6,426.2,140.8z"/>
	<path class="st1" d="M433.2,155.7c-0.9,0.1-1.9,0.1-2.8-0.1c-0.9-0.2-1.8-0.6-2.5-1.2c-0.8-0.6-1.5-1.3-2-2.1l1.6-1
		c0.4,0.6,0.9,1.2,1.5,1.6c0.6,0.4,1.2,0.7,1.9,0.9s1.4,0.2,2.1,0.1c0.7-0.1,1.4-0.4,2-0.7c0.5-0.3,0.9-0.7,1.3-1.1l-9.4-5l-1.6-0.9
		c0.2-0.6,0.5-1.1,0.8-1.6c0.6-0.9,1.4-1.6,2.3-2.2c1-0.6,2.1-1,3.3-1c0.6,0,1.2,0,1.8,0.1l-1.1,4.6l-1.8-0.4l0.6-2.4
		c-0.7,0.1-1.3,0.4-1.9,0.7c-0.6,0.4-1.2,0.9-1.6,1.5l9.6,5.1l1.6,0.9c-0.2,0.6-0.5,1.1-0.9,1.6c-0.6,0.7-1.2,1.3-2,1.8
		C435.1,155.3,434.2,155.6,433.2,155.7z"/>
	<path class="st1" d="M450.1,185.6c-0.9,0.4-1.9,0.5-2.8,0.5c-0.9,0-1.9-0.2-2.7-0.6c-0.9-0.4-1.6-0.9-2.3-1.6
		c-0.7-0.7-1.2-1.5-1.6-2.4c-0.4-0.9-0.5-1.9-0.5-2.8c0-0.9,0.2-1.9,0.6-2.7c0.4-0.9,0.9-1.6,1.6-2.3c0.7-0.7,1.5-1.2,2.4-1.6
		l0.7,1.7c-0.7,0.3-1.3,0.7-1.8,1.2c-0.5,0.5-0.9,1.1-1.2,1.7s-0.4,1.3-0.4,2.1c0,0.7,0.1,1.4,0.4,2.1s0.7,1.3,1.2,1.8
		c0.5,0.5,1.1,0.9,1.7,1.2c0.7,0.3,1.3,0.4,2.1,0.4c0.7,0,1.4-0.1,2.1-0.4L450.1,185.6z M444.4,181.1l-0.7-1.7l1.7-0.7l0.7,1.7
		L444.4,181.1z M447.7,179.7l-0.7-1.7l6.7-2.7c0.1,0.3,0.3,0.5,0.4,0.8c0.1,0.3,0.2,0.6,0.3,0.9L447.7,179.7z"/>
	<path class="st1" d="M454.4,202.1l-2-6.5l-6-3.2c0.2-0.6,0.5-1.1,0.9-1.6l1.6,0.9l4,2.1l0.5,0.2l4.8-1.5c-0.4-0.8-0.9-1.4-1.6-1.9
		c-0.5-0.4-1-0.7-1.6-0.9l0.9-1.6c0.6,0.2,1.1,0.5,1.6,0.9c1.1,0.8,1.9,1.7,2.5,2.9c0.1,0.3,0.2,0.6,0.3,0.9
		c0.1,0.3,0.2,0.6,0.2,0.9l-6,1.9l1.9,6c-0.3,0.1-0.6,0.2-0.9,0.3C455,202,454.7,202,454.4,202.1z M449.8,199.8l-0.5-1.7l1.7-0.5
		l0.5,1.7L449.8,199.8z"/>
	<path class="st1" d="M458.1,218.6l-1.4-6.2l-6.2,1.4c-0.1-0.3-0.2-0.6-0.2-0.9s-0.1-0.6-0.1-0.9l8-1.8l1.4,6.2
		c0.6-0.2,1.1-0.6,1.6-1c0.5-0.4,0.9-0.9,1.2-1.5c0.3-0.6,0.5-1.2,0.6-1.8c0.1-0.7,0.1-1.3-0.1-2l1.8-0.4c0.2,0.9,0.2,1.8,0.1,2.7
		c-0.1,0.9-0.4,1.7-0.8,2.4c-0.4,0.8-1,1.4-1.6,2c-0.7,0.6-1.4,1-2.3,1.3c-0.3,0.1-0.6,0.2-0.9,0.2
		C458.7,218.5,458.4,218.6,458.1,218.6z M450.3,210.2c0.1-0.7,0.3-1.4,0.7-2c0.3-0.6,0.7-1.2,1.2-1.7c0.5-0.5,1.1-1,1.7-1.3
		c0.6-0.4,1.3-0.6,2.1-0.8l0.4,1.8c-1,0.2-1.8,0.7-2.5,1.3c-0.7,0.7-1.2,1.4-1.5,2.4L450.3,210.2z"/>
	<path class="st1" d="M458.1,223.1c-0.5,0.2-0.9,0.5-1.3,0.9l-1.2-1.4c0.5-0.5,1.1-0.9,1.8-1.2c0.7-0.3,1.4-0.5,2.1-0.6
		s1.5-0.1,2.2,0c0.7,0.1,1.4,0.3,2,0.6l-0.8,1.6c-0.5-0.2-1-0.4-1.5-0.5c-0.5-0.1-1.1-0.1-1.6,0
		C459.1,222.8,458.6,222.9,458.1,223.1z M460.1,229.1l-2.8,4.6l-1.6-0.9l3.2-5.4l8.5-1.2c0.1,0.3,0.1,0.6,0.2,0.9
		c0.1,1,0.1,1.9-0.2,2.9c-0.2,0.9-0.7,1.8-1.2,2.5c-0.6,0.8-1.3,1.4-2.1,1.9c-0.8,0.5-1.8,0.8-2.7,0.9l-0.2-1.8
		c0.7-0.1,1.3-0.3,1.9-0.6c0.6-0.3,1-0.7,1.5-1.2c0.4-0.5,0.8-1,1-1.6c0.2-0.6,0.4-1.2,0.4-1.9L460.1,229.1z"/>
	<path class="st1" d="M456.8,247c-0.2-0.1-0.4-0.2-0.6-0.4s-0.3-0.3-0.4-0.6c-0.1-0.2-0.2-0.5-0.2-0.7c0-0.2,0-0.5,0.1-0.7
		c0.1-0.2,0.2-0.4,0.4-0.6c0.2-0.2,0.3-0.3,0.6-0.4c0.2-0.1,0.5-0.2,0.7-0.2c0.2,0,0.5,0,0.7,0.1c0.2,0.1,0.4,0.2,0.6,0.4
		s0.3,0.3,0.4,0.6c0.1,0.2,0.2,0.4,0.2,0.7c0,0.2,0,0.5-0.1,0.7c-0.1,0.2-0.2,0.4-0.4,0.6c-0.2,0.2-0.3,0.3-0.6,0.4
		c-0.2,0.1-0.5,0.2-0.7,0.2C457.3,247.1,457.1,247.1,456.8,247z"/>
	<path class="st1" d="M459.3,268.8c-0.8-0.4-1.6-0.9-2.2-1.5l1.3-1.3c0.5,0.5,1,0.8,1.6,1.1c0.6,0.3,1.3,0.4,2,0.4
		c1,0,1.9-0.2,2.8-0.7l0.1-3.8l-4.2-0.1l-0.6-1.1l-1.9-3.6c-0.5,0.5-0.9,1-1.1,1.7c-0.3,0.6-0.4,1.3-0.4,2l-1.8-0.1c0-1,0.3-2,0.7-3
		c0.4-0.9,1-1.7,1.8-2.3c0.5-0.4,1-0.7,1.5-1l0.8,1.6l2.1,4l4.9,0.1l-0.1,3.9c0.3-0.4,0.5-0.9,0.7-1.4c0.2-0.5,0.3-1,0.3-1.6
		c0-0.7-0.1-1.5-0.4-2.1c-0.3-0.7-0.6-1.3-1.1-1.8s-1.1-0.9-1.7-1.2c-0.7-0.3-1.4-0.5-2.1-0.5l0.1-1.8c1,0,1.9,0.2,2.8,0.7
		c0.9,0.4,1.6,0.9,2.3,1.6c0.7,0.7,1.2,1.5,1.5,2.4c0.4,0.9,0.5,1.9,0.5,2.8c0,1.1-0.3,2.2-0.8,3.2c-0.5,1-1.2,1.8-2.1,2.4
		c-0.6,0.4-1.2,0.8-1.9,1c-0.9,0.3-1.8,0.5-2.8,0.5C461.1,269.3,460.2,269.1,459.3,268.8z"/>
	<path class="st1" d="M460.5,279.9l-3.8,3.8l-1.3-1.3l4.4-4.4l8.5,0.9c0,0.3,0,0.6,0,0.9c-0.1,1-0.4,1.9-0.9,2.8
		c-0.5,0.8-1.1,1.5-1.8,2.1c-0.7,0.6-1.6,1-2.5,1.3c-0.9,0.3-1.9,0.4-2.9,0.3l0.2-1.8c0.7,0.1,1.3,0,2-0.1c0.6-0.2,1.2-0.4,1.7-0.8
		c0.5-0.4,1-0.8,1.4-1.3c0.4-0.5,0.7-1.1,0.8-1.7L460.5,279.9z M460,273.7c-0.5,0.1-1,0.3-1.5,0.5l-0.8-1.6c0.6-0.3,1.3-0.6,2-0.7
		c0.7-0.1,1.4-0.2,2.2-0.1s1.4,0.3,2.1,0.6c0.6,0.3,1.2,0.7,1.8,1.1l-1.2,1.4c-0.4-0.3-0.8-0.6-1.3-0.8c-0.5-0.2-1-0.4-1.6-0.4
		S460.5,273.6,460,273.7z"/>
	<path class="st1" d="M452.4,299.9c-1.1-1.7-1.5-3.5-1.1-5.5c0.2-1.1,0.6-2,1.3-2.9c0.3-0.5,0.8-1,1.3-1.4l0.9,1.6l2.6,4.4l1.3-0.9
		l-2.6-4.3l-0.9-1.6c0.5-0.3,1.1-0.5,1.8-0.6l1,1.7l2.2,3.7l2.4-1.8l1.4-1.1c0.4,0.5,0.7,1,1,1.5l-1.5,1.1l-2.4,1.8l-1.5,1.1l-2.7,2
		l-3.3-5.5c-0.3,0.5-0.4,1-0.6,1.5c-0.3,1.5,0,2.9,0.8,4.1c0.8,1.3,2,2,3.5,2.3c1.2,0.2,2.4,0.1,3.5-0.5c1.1-0.6,1.9-1.4,2.5-2.5
		c0.2-0.4,0.3-0.9,0.4-1.3l1.8,0.4c-0.4,2-1.4,3.5-3.1,4.7c-1.7,1.1-3.5,1.5-5.5,1.1C455.1,302.6,453.5,301.6,452.4,299.9z"/>
	<path class="st1" d="M448.1,315.9c-1-1.8-1.2-3.6-0.6-5.5c0.5-1.9,1.7-3.4,3.4-4.4c1.8-1,3.6-1.2,5.5-0.7l0,0l-0.5,1.8l0,0
		c-1.4-0.4-2.8-0.2-4.1,0.5c-1.3,0.7-2.2,1.8-2.6,3.3c-0.4,1.4-0.2,2.8,0.5,4.2c0.7,1.3,1.8,2.2,3.3,2.6c1.5,0.4,2.8,0.3,4.2-0.5
		c1.3-0.7,2.2-1.8,2.6-3.3c0.3-1.1,0.3-2.2-0.1-3.3l-5,2.8l3.1,0.9l-0.5,1.8l-5.3-1.5l-0.2-1.7l7-3.9l1.6-0.9c0.4,0.5,0.7,1,0.9,1.6
		c0.6,1.5,0.7,3.1,0.3,4.7c-0.5,1.9-1.7,3.4-3.5,4.4c-1.8,1-3.6,1.2-5.5,0.6C450.6,318.9,449.1,317.7,448.1,315.9z"/>
	<path class="st1" d="M445.8,335c-0.7-0.4-1.2-0.8-1.8-1.3c-0.5-0.5-0.9-1.1-1.3-1.7c-0.3-0.6-0.6-1.3-0.7-2
		c-0.1-0.7-0.2-1.4-0.1-2.2l1.8,0.7c0,1,0.2,1.9,0.7,2.8c0.5,0.9,1.2,1.6,2,2.1l2.2-5.9l5.9,2.2c0.1-0.6,0.1-1.3,0-1.9
		c-0.1-0.6-0.3-1.2-0.6-1.8c-0.3-0.6-0.7-1.1-1.2-1.5c-0.5-0.4-1.1-0.8-1.7-1c-0.7-0.3-1.4-0.4-2.1-0.3c-0.7,0-1.4,0.2-2,0.5
		c-0.7,0.3-1.2,0.7-1.7,1.2c-0.5,0.5-0.9,1.1-1.1,1.8l-1.7-0.6c0.3-0.9,0.9-1.7,1.5-2.5c0.7-0.7,1.4-1.2,2.3-1.6
		c0.9-0.4,1.8-0.6,2.7-0.6c1,0,1.9,0.1,2.9,0.5c0.9,0.3,1.6,0.8,2.3,1.4c0.6,0.6,1.2,1.3,1.6,2c0.4,0.8,0.7,1.6,0.8,2.5
		c0.1,0.9,0.1,1.8-0.1,2.6c-0.1,0.3-0.2,0.6-0.3,0.9s-0.2,0.6-0.4,0.8c-0.6,1.2-1.5,2.1-2.6,2.8c-0.5,0.3-1.1,0.6-1.7,0.8
		c-0.6,0.2-1.2,0.3-1.9,0.3l0.7-1.9c0.8-0.1,1.5-0.4,2.2-0.9c0.7-0.5,1.2-1,1.6-1.8l-4.2-1.6l-2.2,5.9c-0.3-0.1-0.6-0.2-0.9-0.3
		S446,335.2,445.8,335z"/>
	<path class="st1" d="M438.6,350.4l2.7-5.7l-5.7-2.7c0.1-0.3,0.2-0.6,0.3-0.9s0.3-0.5,0.4-0.8l7.4,3.5l-2.7,5.7
		c0.6,0.2,1.3,0.2,1.9,0.2c0.6-0.1,1.2-0.2,1.8-0.5c0.6-0.3,1.1-0.6,1.6-1.1c0.5-0.5,0.9-1,1.1-1.6l1.6,0.8
		c-0.4,0.8-0.9,1.5-1.6,2.2c-0.6,0.6-1.4,1.1-2.2,1.4c-0.8,0.3-1.6,0.5-2.5,0.6c-0.9,0-1.8-0.1-2.6-0.3c-0.3-0.1-0.6-0.2-0.9-0.3
		S438.9,350.5,438.6,350.4z M437.6,338.8c0.5-0.5,1.1-0.9,1.8-1.2c0.6-0.3,1.3-0.5,2-0.6c0.7-0.1,1.4-0.1,2.1,0
		c0.7,0.1,1.4,0.3,2.1,0.6l-0.8,1.6c-0.9-0.4-1.8-0.6-2.8-0.5c-1,0.1-1.8,0.4-2.6,1L437.6,338.8z"/>
	<path class="st1" d="M433.8,359.8l-5,1.9l-0.7-1.7l5.8-2.3l7.4,4.3c-0.1,0.3-0.3,0.5-0.4,0.8c-0.5,0.9-1.1,1.6-1.9,2.2
		c-0.8,0.6-1.6,1-2.5,1.2c-0.9,0.2-1.9,0.3-2.8,0.2c-1-0.1-1.9-0.4-2.7-0.9l0.9-1.6c0.6,0.3,1.2,0.6,1.8,0.7c0.6,0.1,1.3,0.1,1.9,0
		c0.6-0.1,1.2-0.3,1.8-0.7c0.6-0.3,1-0.7,1.5-1.2L433.8,359.8z M435.8,353.9c-0.5-0.1-1-0.2-1.6-0.1l-0.1-1.8c0.7,0,1.4,0,2.1,0.2
		c0.7,0.2,1.4,0.4,2,0.8c0.6,0.4,1.2,0.8,1.7,1.4c0.5,0.5,0.9,1.1,1.2,1.7l-1.6,0.8c-0.2-0.5-0.5-0.9-0.9-1.3
		c-0.4-0.4-0.8-0.7-1.3-1C436.9,354.3,436.4,354.1,435.8,353.9z"/>
	<path class="st1" d="M411.3,393.4c-0.3-0.2-0.5-0.3-0.7-0.5c-0.2-0.2-0.5-0.4-0.7-0.6l4-4.9l-4.9-4c0.2-0.3,0.3-0.5,0.5-0.7
		c0.2-0.2,0.4-0.5,0.6-0.7c0.7-0.6,1.4-1.1,2.2-1.4c0.8-0.3,1.6-0.5,2.5-0.5c0.9,0,1.7,0.1,2.6,0.4c0.9,0.3,1.6,0.7,2.3,1.3
		l-1.2,1.4c-0.5-0.4-1.1-0.7-1.7-1c-0.6-0.2-1.2-0.3-1.9-0.3c-0.6,0-1.2,0.1-1.8,0.4c-0.6,0.2-1.2,0.6-1.6,1l9.7,8
		c-0.2,0.3-0.3,0.5-0.5,0.7c-0.2,0.2-0.4,0.5-0.6,0.7c-0.6,0.6-1.3,1-2,1.3c-0.7,0.3-1.5,0.5-2.3,0.6c-0.8,0.1-1.6,0-2.4-0.2
		C412.7,394.1,412,393.8,411.3,393.4z M412.5,391.9c0.5,0.3,1,0.5,1.6,0.6c0.6,0.1,1.1,0.1,1.7,0.1c0.6-0.1,1.1-0.2,1.6-0.4
		c0.5-0.2,1-0.5,1.4-0.9l-3.5-2.9L412.5,391.9z M422.5,386.5c-0.1-0.6-0.2-1.2-0.4-1.8l-1.8,0.4c0.2,0.6,0.4,1.2,0.4,1.8
		L422.5,386.5z"/>
	<path class="st1" d="M398.2,404.4c-0.5-0.6-0.8-1.2-1.1-1.9c-0.3-0.7-0.4-1.4-0.5-2.1c-0.1-0.7,0-1.4,0.1-2.1
		c0.2-0.7,0.4-1.4,0.8-2l1.4,1.3c-0.4,0.9-0.6,1.8-0.5,2.8c0.1,1,0.4,1.9,1,2.7l4.4-4.5l4.5,4.4c0.4-0.5,0.6-1.1,0.8-1.7
		c0.2-0.6,0.2-1.2,0.2-1.9c-0.1-0.6-0.2-1.3-0.5-1.8c-0.3-0.6-0.7-1.1-1.1-1.6c-0.5-0.5-1.1-0.9-1.8-1.2c-0.7-0.3-1.4-0.4-2.1-0.4
		s-1.4,0.2-2.1,0.4c-0.7,0.3-1.3,0.7-1.8,1.2l-1.3-1.3c0.7-0.7,1.5-1.3,2.4-1.6c0.9-0.4,1.8-0.6,2.7-0.6c1,0,1.9,0.2,2.8,0.5
		c0.9,0.4,1.7,0.9,2.4,1.6c0.7,0.6,1.2,1.4,1.5,2.2c0.4,0.8,0.6,1.6,0.6,2.5c0.1,0.9,0,1.7-0.3,2.6c-0.2,0.9-0.6,1.7-1.2,2.4
		c-0.2,0.2-0.4,0.5-0.6,0.7c-0.2,0.2-0.4,0.4-0.7,0.6c-1,0.8-2.2,1.3-3.5,1.5c-0.6,0.1-1.3,0.1-1.9,0c-0.6-0.1-1.3-0.2-1.9-0.5
		l1.4-1.4c0.8,0.2,1.6,0.2,2.4,0.1c0.8-0.2,1.5-0.5,2.2-1l-3.2-3.1l-4.4,4.5c-0.2-0.2-0.5-0.4-0.7-0.6S398.3,404.6,398.2,404.4z"/>
	<path class="st1" d="M371.8,425.8l5.1-3.8l-3.8-5.1c0.2-0.2,0.5-0.4,0.7-0.6c0.2-0.2,0.5-0.3,0.8-0.5l4.8,6.6l-5.1,3.7
		c0.5,0.4,1,0.8,1.6,1.1c0.6,0.3,1.2,0.4,1.8,0.5c0.6,0,1.3,0,1.9-0.2c0.6-0.2,1.2-0.5,1.8-0.9l1.1,1.5c-0.7,0.5-1.5,0.9-2.4,1.2
		c-0.8,0.2-1.7,0.3-2.6,0.2c-0.9-0.1-1.7-0.3-2.5-0.7c-0.8-0.4-1.5-0.9-2.1-1.5c-0.2-0.2-0.4-0.5-0.6-0.7
		C372.2,426.3,372,426,371.8,425.8z M376.4,415.1c0.7-0.2,1.4-0.3,2.1-0.2c0.7,0,1.4,0.2,2.1,0.4c0.7,0.2,1.3,0.6,1.9,1
		c0.6,0.4,1.1,1,1.6,1.6l-1.5,1.1c-0.6-0.8-1.3-1.4-2.2-1.8c-0.9-0.4-1.8-0.5-2.8-0.4L376.4,415.1z"/>
	<path class="st1" d="M356.9,432.8c-0.1-0.9-0.1-1.9,0.1-2.8s0.6-1.8,1.2-2.5c0.6-0.8,1.3-1.5,2.1-2l1,1.6c-0.6,0.4-1.2,0.9-1.6,1.5
		c-0.4,0.6-0.7,1.2-0.9,1.9c-0.2,0.7-0.2,1.4-0.1,2.1c0.1,0.7,0.4,1.4,0.8,2c0.3,0.5,0.7,0.9,1.1,1.3l5-9.5l0.9-1.6
		c0.6,0.2,1.1,0.5,1.6,0.8c0.9,0.6,1.6,1.4,2.2,2.3c0.6,1,1,2.1,1.1,3.3c0,0.6,0,1.2-0.1,1.8l-4.6-1.1l0.4-1.8l2.4,0.6
		c-0.1-0.7-0.4-1.3-0.7-1.9c-0.4-0.6-0.9-1.2-1.5-1.6l-5.1,9.6l-0.8,1.6c-0.6-0.2-1.1-0.5-1.6-0.9c-0.7-0.6-1.3-1.2-1.8-2
		C357.4,434.7,357.1,433.8,356.9,432.8z"/>
	<path class="st1" d="M327.1,449.9c-0.4-0.9-0.6-1.9-0.5-2.8c0-0.9,0.2-1.9,0.6-2.7c0.4-0.9,0.9-1.7,1.6-2.3
		c0.7-0.7,1.5-1.2,2.4-1.6s1.9-0.6,2.8-0.5c0.9,0,1.9,0.2,2.7,0.6c0.9,0.4,1.7,0.9,2.3,1.6c0.7,0.7,1.2,1.5,1.6,2.4l-1.7,0.7
		c-0.3-0.7-0.7-1.3-1.2-1.8c-0.5-0.5-1.1-0.9-1.7-1.2s-1.3-0.4-2.1-0.4c-0.7,0-1.4,0.1-2.1,0.4c-0.7,0.3-1.3,0.7-1.8,1.2
		c-0.5,0.5-0.9,1.1-1.2,1.7s-0.4,1.3-0.4,2.1c0,0.7,0.1,1.4,0.4,2.1L327.1,449.9z M331.6,444.1l1.7-0.7l0.7,1.7l-1.7,0.7
		L331.6,444.1z M333,447.5l1.7-0.7l2.7,6.7c-0.3,0.1-0.5,0.3-0.8,0.4c-0.3,0.1-0.6,0.2-0.9,0.3L333,447.5z"/>
	<path class="st1" d="M310.6,454.2l6.5-2l3.2-6.1c0.6,0.2,1.1,0.5,1.6,0.8l-0.8,1.6l-2.1,4l-0.2,0.5l1.5,4.8
		c0.8-0.4,1.4-0.9,1.9-1.6c0.4-0.5,0.7-1,0.8-1.6l1.6,0.8c-0.2,0.6-0.5,1.1-0.8,1.6c-0.7,1.1-1.7,1.9-2.9,2.5
		c-0.3,0.1-0.6,0.3-0.9,0.3c-0.3,0.1-0.6,0.2-0.9,0.2l-1.9-6l-6,1.9c-0.1-0.3-0.3-0.6-0.3-0.9C310.7,454.8,310.7,454.5,310.6,454.2z
		 M313,449.6l1.7-0.5l0.5,1.7l-1.7,0.5L313,449.6z"/>
	<path class="st1" d="M294.1,458l6.2-1.4l-1.4-6.2c0.3-0.1,0.6-0.2,0.9-0.3c0.3-0.1,0.6-0.1,0.9-0.1l1.8,8l-6.1,1.4
		c0.2,0.6,0.6,1.1,1,1.6c0.4,0.5,0.9,0.9,1.5,1.2c0.6,0.3,1.2,0.5,1.8,0.6c0.7,0.1,1.3,0.1,2-0.1l0.4,1.8c-0.9,0.2-1.8,0.2-2.7,0.1
		c-0.9-0.1-1.7-0.4-2.5-0.8c-0.8-0.4-1.4-1-2-1.6c-0.6-0.7-1-1.4-1.3-2.3c-0.1-0.3-0.2-0.6-0.3-0.9
		C294.2,458.6,294.1,458.3,294.1,458z M302.6,450.1c0.7,0.1,1.4,0.3,2,0.7c0.6,0.3,1.2,0.7,1.7,1.2c0.5,0.5,1,1.1,1.3,1.7
		c0.4,0.6,0.6,1.3,0.8,2.1l-1.8,0.4c-0.2-1-0.7-1.8-1.3-2.5c-0.7-0.7-1.5-1.2-2.4-1.5L302.6,450.1z"/>
	<path class="st1" d="M283.7,460l-4.6-2.8l0.9-1.6l5.4,3.2l1.2,8.5c-0.3,0.1-0.6,0.1-0.9,0.2c-1,0.1-1.9,0.1-2.9-0.2
		c-0.9-0.2-1.8-0.7-2.5-1.2c-0.8-0.6-1.4-1.3-1.9-2.1c-0.5-0.8-0.8-1.8-1-2.7l1.8-0.3c0.1,0.7,0.3,1.3,0.6,1.9
		c0.3,0.6,0.7,1,1.2,1.5c0.5,0.4,1,0.7,1.6,1c0.6,0.2,1.2,0.4,1.9,0.4L283.7,460z M289.6,458c-0.2-0.5-0.5-0.9-0.9-1.3l1.4-1.2
		c0.5,0.5,0.9,1.1,1.2,1.8c0.3,0.7,0.5,1.4,0.6,2.1c0.1,0.7,0.1,1.5,0,2.2c-0.1,0.7-0.3,1.4-0.6,2l-1.6-0.8c0.2-0.5,0.4-1,0.5-1.5
		c0.1-0.5,0.1-1.1,0-1.6C290,459,289.8,458.5,289.6,458z"/>
	<path class="st1" d="M265.7,456.8c0.1-0.2,0.2-0.4,0.4-0.6s0.3-0.3,0.6-0.4c0.2-0.1,0.5-0.2,0.7-0.2c0.3,0,0.5,0,0.7,0.1
		c0.2,0.1,0.4,0.2,0.6,0.4c0.2,0.2,0.3,0.3,0.4,0.6c0.1,0.2,0.2,0.5,0.2,0.7c0,0.2,0,0.5-0.1,0.7c-0.1,0.2-0.2,0.4-0.4,0.6
		s-0.3,0.3-0.6,0.4c-0.2,0.1-0.4,0.2-0.7,0.2c-0.2,0-0.5,0-0.7-0.1s-0.4-0.2-0.6-0.4c-0.2-0.2-0.3-0.3-0.4-0.6
		c-0.1-0.2-0.2-0.5-0.2-0.7C265.6,457.3,265.6,457,265.7,456.8z"/>
</g>
<g>
</g>
<g>
</g>
<g>
</g>
<g>
</g>
<g>
</g>
<g>
</g>
<g>
</g>
<g>
</g>
<g>
</g>
<g>
</g>
<g>
</g>
<g>
</g>
<g>
</g>
<g>
</g>
<g>
</g>
</svg>
