<?xml version="1.0" encoding="utf-8"?>
<!-- Generator: Adobe Illustrator 22.0.1, SVG Export Plug-In . SVG Version: 6.00 Build 0)  -->
<svg version="1.1" id="Layer_1" xmlns="http://www.w3.org/2000/svg" xmlns:xlink="http://www.w3.org/1999/xlink" x="0px" y="0px"
	 viewBox="0 0 512 512" style="enable-background:new 0 0 512 512;" xml:space="preserve">
<path d="M320,216c0,11-4.5,21-11.7,28.3C301,251.5,291,256,280,256h-56v-80h56C302.1,176,320,193.9,320,216z"/>
<path d="M256,48C141.1,48,48,141.1,48,256s93.1,208,208,208s208-93.1,208-208S370.9,48,256,48z M280,288h-56v80h-32V144h88
	c19.9,0,37.9,8.1,50.9,21.1c13,13,21.1,31,21.1,50.9C352,255.8,319.8,288,280,288z"/>
</svg>
