<?xml version="1.0" encoding="utf-8"?>
<!-- Generator: Adobe Illustrator 22.0.1, SVG Export Plug-In . SVG Version: 6.00 Build 0)  -->
<svg version="1.1" id="Layer_1" xmlns="http://www.w3.org/2000/svg" xmlns:xlink="http://www.w3.org/1999/xlink" x="0px" y="0px"
	 viewBox="0 0 512 512" style="enable-background:new 0 0 512 512;" xml:space="preserve">
<path d="M459.3,107.3l-22.6-22.6L380,141.4c-29.6-25.1-67-41.4-108-44.7V64h80V32H160v32h80v32.7C141.5,104.8,64,187.3,64,288
	c0,47.3,17.1,90.5,45.4,124c6.9,8.2,14.5,15.7,22.6,22.6c33.5,28.3,76.7,45.4,124,45.4c106,0,192-86,192-192
	c0-47.3-17.1-90.5-45.4-124L459.3,107.3z M112,304c-8.8,0-16-7.2-16-16s7.2-16,16-16s16,7.2,16,16S120.8,304,112,304z M154.7,411.9
	L154.7,411.9L154.7,411.9c-2.8,2.6-6.6,4.1-10.7,4.1c-8.8,0-16-7.2-16-16c0-4.1,1.6-7.9,4.1-10.7l0,0h0c2.9-3.2,7.2-5.3,11.9-5.3
	c8.8,0,16,7.2,16,16C160,404.7,158,408.9,154.7,411.9z M144,192c-4.7,0-8.9-2-11.9-5.3c-2.6-2.8-4.1-6.6-4.1-10.7
	c0-8.8,7.2-16,16-16c4.1,0,7.9,1.6,10.7,4.1c3.2,2.9,5.3,7.2,5.3,11.9C160,184.8,152.8,192,144,192z M256,448c-8.8,0-16-7.2-16-16
	s7.2-16,16-16s16,7.2,16,16S264.8,448,256,448z M256,320c-2.9,0-5.7-0.4-8.3-1.1c-11-2.9-19.7-11.6-22.6-22.6
	c-0.7-2.6-1.1-5.4-1.1-8.3c0-11.8,6.4-22.2,16-27.7V128h32v132.3c4.9,2.8,8.9,6.9,11.7,11.7H368v32h-84.3
	C278.2,313.6,267.8,320,256,320z M368,416c-4.1,0-7.9-1.6-10.7-4.1c-3.2-2.9-5.3-7.2-5.3-11.9c0-8.8,7.2-16,16-16
	c4.7,0,8.9,2,11.9,5.3c2.6,2.8,4.1,6.6,4.1,10.7C384,408.8,376.8,416,368,416z M379.9,186.7C379.9,186.7,379.9,186.7,379.9,186.7
	c-2.9,3.3-7.2,5.3-11.9,5.3c-8.8,0-16-7.2-16-16c0-4.7,2-8.9,5.3-11.9c0,0,0,0,0,0c2.8-2.6,6.6-4.1,10.7-4.1c8.8,0,16,7.2,16,16
	C384,180.1,382.4,183.9,379.9,186.7z"/>
</svg>
